<?xml version="1.0" encoding="UTF-8"?>
<svg width="24px" height="24px" viewBox="0 0 24 24" version="1.1" xmlns="http://www.w3.org/2000/svg" xmlns:xlink="http://www.w3.org/1999/xlink">
    <!-- Generator: Sketch 48.1 (47250) - http://www.bohemiancoding.com/sketch -->
    <title>categories</title>
    <desc>Created with Sketch.</desc>
    <defs></defs>
    <g id="UI-Kit-Mobile" stroke="none" stroke-width="1" fill="none" fill-rule="evenodd">
        <g id="categories" fill="#FFFFFF" fill-rule="nonzero">
            <path d="M3,4.63604864 C3,3.7324839 3.72608179,3 4.63604864,3 L9.54576955,3 C10.4493343,3 11.1818182,3.72608179 11.1818182,4.63604864 L11.1818182,9.54576955 C11.1818182,10.4493343 10.4557364,11.1818182 9.54576955,11.1818182 L4.63604864,11.1818182 C3.7324839,11.1818182 3,10.4557364 3,9.54576955 L3,4.63604864 Z M3,14.4542305 C3,13.5506657 3.72608179,12.8181818 4.63604864,12.8181818 L9.54576955,12.8181818 C10.4493343,12.8181818 11.1818182,13.5442636 11.1818182,14.4542305 L11.1818182,19.3639514 C11.1818182,20.2675161 10.4557364,21 9.54576955,21 L4.63604864,21 C3.7324839,21 3,20.2739182 3,19.3639514 L3,14.4542305 Z M12.8181818,14.4542305 C12.8181818,13.5506657 13.5442636,12.8181818 14.4542305,12.8181818 L19.3639514,12.8181818 C20.2675161,12.8181818 21,13.5442636 21,14.4542305 L21,19.3639514 C21,20.2675161 20.2739182,21 19.3639514,21 L14.4542305,21 C13.5506657,21 12.8181818,20.2739182 12.8181818,19.3639514 L12.8181818,14.4542305 Z M12.8181818,4.63604864 C12.8181818,3.7324839 13.5442636,3 14.4542305,3 L19.3639514,3 C20.2675161,3 21,3.72608179 21,4.63604864 L21,9.54576955 C21,10.4493343 20.2739182,11.1818182 19.3639514,11.1818182 L14.4542305,11.1818182 C13.5506657,11.1818182 12.8181818,10.4557364 12.8181818,9.54576955 L12.8181818,4.63604864 Z" id="Shape-Copy"></path>
        </g>
    </g>
</svg>