<?xml version="1.0" encoding="UTF-8"?>
<svg width="24px" height="24px" viewBox="0 0 24 24" version="1.1" xmlns="http://www.w3.org/2000/svg" xmlns:xlink="http://www.w3.org/1999/xlink">
    <!-- Generator: Sketch 48.1 (47250) - http://www.bohemiancoding.com/sketch -->
    <title>Condition</title>
    <desc>Created with Sketch.</desc>
    <defs></defs>
    <g id="UI-Kit" stroke="none" stroke-width="1" fill="none" fill-rule="evenodd" opacity="0.50999999">
        <g id="Condition" fill="#000000" fill-rule="nonzero">
            <path d="M12,2 C17.5333333,2 22,6.46666667 22,12 C22,17.5333333 17.5333333,22 12,22 C6.46666667,22 2,17.5333333 2,12 C2,6.46666667 6.46666667,2 12,2 Z M17.68,13.5076923 L20,12.7 L17.0133333,11.6230769 L16.64,11.4884615 L16.2133333,12 L15.9733333,12.2692308 L14.1866667,7.69230769 L13.1466667,5 L12.1866667,7.74615385 L10.32,13.1576923 L8.98666667,10.1423077 L8.18666667,8.33846154 L7.12,9.98076923 L5.84,11.9461538 L4,12.7 L6.61333333,13.7769231 L7.06666667,13.9653846 L7.49333333,13.2923077 L7.84,12.8076923 L9.46666667,16.5230769 L10.56,19 L11.44,16.4423077 L13.2533333,11.1923077 L14.6133333,14.7192308 L15.2533333,16.3884615 L16.4,15.0153846 L17.68,13.5076923 Z" id="Shape"></path>
        </g>
    </g>
</svg>