<?xml version="1.0" encoding="UTF-8"?>
<svg width="80px" height="80px" viewBox="0 0 80 80" version="1.1" xmlns="http://www.w3.org/2000/svg" xmlns:xlink="http://www.w3.org/1999/xlink">
    <!-- Generator: Sketch 47 (45396) - http://www.bohemiancoding.com/sketch -->
    <title>console</title>
    <desc>Created with Sketch.</desc>
    <defs></defs>
    <g id="Page-1" stroke="none" stroke-width="1" fill="none" fill-rule="evenodd">
        <g id="console">
            <path d="M66.8346457,23 L13.1653543,23 C10.3181102,23 8,25.3115578 8,28.1507538 L8,52.8492462 C8,55.6884422 10.3181102,58 13.1653543,58 L66.8346457,58 C69.6818898,58 72,55.6884422 72,52.8492462 L72,28.1507538 C72,25.3115578 69.6818898,23 66.8346457,23 Z M69.9338583,52.8492462 C69.9338583,54.5577889 68.5480315,55.9396985 66.8346457,55.9396985 L13.1653543,55.9396985 C11.4519685,55.9396985 10.0661417,54.5577889 10.0661417,52.8492462 L10.0661417,28.1507538 C10.0661417,26.4422111 11.4519685,25.0603015 13.1653543,25.0603015 L66.8346457,25.0603015 C68.5480315,25.0603015 69.9338583,26.4422111 69.9338583,28.1507538 L69.9338583,52.8492462 Z" id="Shape" fill="#333333" fill-rule="nonzero"></path>
            <path d="M23,53 L58,53 L58,28 L23,28 L23,53 Z M25.0603015,30.0854527 L55.9396985,30.0854527 L55.9396985,50.9272635 L25.0603015,50.9272635 L25.0603015,30.0854527 Z" id="Shape" fill="#333333" fill-rule="nonzero"></path>
            <polygon id="Path-Copy" fill="#FFFFFF" points="25.0603015 30.0854527 39.0603015 30.0854527 39.0603015 50.9272635 25.0603015 50.9272635"></polygon>
            <rect id="Rectangle-path" fill="#333333" fill-rule="nonzero" x="63" y="36" width="2" height="2"></rect>
            <rect id="Rectangle-path" fill="#333333" fill-rule="nonzero" x="63" y="42" width="2" height="2"></rect>
            <rect id="Rectangle-path" fill="#333333" fill-rule="nonzero" x="66" y="39" width="2" height="2"></rect>
            <rect id="Rectangle-path" fill="#333333" fill-rule="nonzero" x="60" y="39" width="2" height="2"></rect>
            <polygon id="Shape" fill="#333333" fill-rule="nonzero" points="16.9954198 39 16.9954198 36 15.0045802 36 15.0045802 39 12 39 12 41 15.0045802 41 15.0045802 44 16.9954198 44 16.9954198 41 20 41 20 39"></polygon>
            <rect id="Rectangle-path" fill="#FC595A" fill-rule="nonzero" x="48.3" y="39.5" width="2" height="2"></rect>
            <rect id="Rectangle-path" fill="#FC595A" fill-rule="nonzero" x="52.3" y="39.5" width="2" height="2"></rect>
            <g id="pacman-3" transform="translate(33.000000, 34.000000)" opacity="0">
                <path d="M13.7507163,7.37929498 C13.3168455,10.5723908 10.5811615,12.98 7.33,12.98 C3.75119482,12.98 0.85,10.0788052 0.85,6.5 C0.85,2.92119482 3.75119482,0.02 7.33,0.02 C10.4672073,0.02 13.1376177,2.26470827 13.7017827,5.31543343 C13.7150254,5.38704316 13.7270671,5.45893371 13.7378998,5.53108144 C13.7417061,5.55643193 13.745363,5.58181352 13.7488703,5.60722522 C13.8102176,6.11543394 13.8108329,6.70612386 13.7507163,7.37929498 Z" fill="#333333" fill-rule="nonzero"></path>
                <path d="M7.33,2.18 C4.94412988,2.18 3.01,4.11412988 3.01,6.5 C3.01,8.88587012 4.94412988,10.82 7.33,10.82 C9.17420355,10.82 10.7702764,9.65714846 11.3829611,8.00042781 L5.89187517,6.50820759 L11.3805009,4.99296378 C10.7646305,3.33527619 9.16697282,2.18 7.33,2.18 Z" id="pacman-3-fiils" fill="#FFFFFF"></path>
            </g>
            <g id="pacman-2" transform="translate(33.000000, 34.000000)" opacity="0">
                <path d="M13.4910221,8.7575292 L12.9944637,9.64912038 C12.6353479,10.2939276 12.1682178,10.8731083 11.614969,11.3611001 C10.4400314,12.3974512 8.92879839,12.98 7.33,12.98 C3.75119482,12.98 0.85,10.0788052 0.85,6.5 C0.85,2.92119482 3.75119482,0.02 7.33,0.02 C8.92723318,0.02 10.4370989,0.60140487 11.6115975,1.63592811 C12.1652578,2.12360392 12.6328382,2.70255349 12.9924195,3.34721198 L13.4895247,4.23842407 L9.92678767,6.49928161 L13.4910221,8.7575292 Z" fill="#333333" fill-rule="nonzero"></path>
                <path d="M10.5071285,3.57279894 C10.4050687,3.46209503 10.2971803,3.35659641 10.1838912,3.25680897 C9.40015615,2.56647851 8.39649983,2.18 7.33,2.18 C4.94412988,2.18 3.01,4.11412988 3.01,6.5 C3.01,8.88587012 4.94412988,10.82 7.33,10.82 C8.39754249,10.82 9.40211115,10.4327597 10.1861442,9.74120511 C10.2992944,9.64140123 10.4070465,9.53589723 10.5089737,9.42519833 L5.89321233,6.50071839 L10.5071285,3.57279894 Z" id="pacman-2-fills" fill="#FFFFFF"></path>
            </g>
            <g id="pacman-1" transform="translate(33.000000, 34.000000)">
                <path d="M12.4246068,10.6469609 L11.614969,11.3611001 C10.4400314,12.3974512 8.92879839,12.98 7.33,12.98 C3.75119482,12.98 0.85,10.0788052 0.85,6.5 C0.85,2.92119482 3.75119482,0.02 7.33,0.02 C8.92723318,0.02 10.4370989,0.60140487 11.6115975,1.63592811 L12.4217248,2.3495055 L8.76916759,6.49950046 L12.4246068,10.6469609 Z" fill="#333333" fill-rule="nonzero"></path>
                <path d="M7.33,2.18 C4.94412988,2.18 3.01,4.11412988 3.01,6.5 C3.01,8.88587012 4.94412988,10.82 7.33,10.82 C8.02303603,10.82 8.68953203,10.6567994 9.28637952,10.3530864 L5.89083241,6.50049954 L9.28370577,2.64555454 C8.68753336,2.34270844 8.02199532,2.18 7.33,2.18 Z" id="pacman-1-fills" fill="#FFFFFF"></path>
            </g>
        </g>
    </g>
</svg>