<?xml version="1.0" encoding="UTF-8"?>
<svg width="80px" height="80px" viewBox="0 0 80 80" version="1.1" xmlns="http://www.w3.org/2000/svg" xmlns:xlink="http://www.w3.org/1999/xlink">
    <!-- Generator: Sketch 47 (45396) - http://www.bohemiancoding.com/sketch -->
    <title>external-hard-drive</title>
    <desc>Created with Sketch.</desc>
    <defs></defs>
    <g id="Page-1" stroke="none" stroke-width="1" fill="none" fill-rule="evenodd">
        <g id="external-hard-drive" fill-rule="nonzero">
            <g id="Group-2" transform="translate(27.590000, 18.590000)">
                <path d="M13.575,27.15 C6.07773452,27.15 0,21.0722655 0,13.575 C0,6.07773452 6.07773452,-2.27373675e-13 13.575,-2.27373675e-13 C21.0722655,-2.27373675e-13 27.15,6.07773452 27.15,13.575 C27.15,21.0722655 21.0722655,27.15 13.575,27.15 Z M13.575,25.3453324 C20.0755751,25.3453324 25.3453324,20.0755751 25.3453324,13.575 C25.3453324,7.07442494 20.0755751,1.80466765 13.575,1.80466765 C7.07442494,1.80466765 1.80466765,7.07442494 1.80466765,13.575 C1.80466765,20.0755751 7.07442494,25.3453324 13.575,25.3453324 Z M13.575,24.5004879 C7.54101963,24.5004879 2.64951206,19.6089804 2.64951206,13.575 C2.64951206,7.54101963 7.54101963,2.64951206 13.575,2.64951206 C19.6089804,2.64951206 24.5004879,7.54101963 24.5004879,13.575 C24.5004879,19.6089804 19.6089804,24.5004879 13.575,24.5004879 Z M13.575,22.6958203 C18.61229,22.6958203 22.6958203,18.61229 22.6958203,13.575 C22.6958203,8.53771005 18.61229,4.45417971 13.575,4.45417971 C8.53771005,4.45417971 4.45417971,8.53771005 4.45417971,13.575 C4.45417971,18.61229 8.53771005,22.6958203 13.575,22.6958203 Z M13.5700009,21.8409777 C9.00206657,21.8409777 5.29902412,18.1379353 5.29902412,13.5700009 C5.29902412,9.00206657 9.00206657,5.29902412 13.5700009,5.29902412 C18.1379353,5.29902412 21.8409777,9.00206657 21.8409777,13.5700009 C21.8409777,18.1379353 18.1379353,21.8409777 13.5700009,21.8409777 Z M13.5700009,20.0363101 C17.1412449,20.0363101 20.0363101,17.1412449 20.0363101,13.5700009 C20.0363101,9.99875699 17.1412449,7.10369177 13.5700009,7.10369177 C9.99875699,7.10369177 7.10369177,9.99875699 7.10369177,13.5700009 C7.10369177,17.1412449 9.99875699,20.0363101 13.5700009,20.0363101 Z" id="Combined-Shape" fill="#FC595A"></path>
                <path d="M13.575,27.15 C6.07773452,27.15 0,21.0722655 0,13.575 C0,6.07773452 6.07773452,-2.27373675e-13 13.575,-2.27373675e-13 C21.0722655,-2.27373675e-13 27.15,6.07773452 27.15,13.575 C27.15,15.7557211 26.6357951,17.8163432 25.7220185,19.6422332 L13.575,13.575 L18.0856987,26.3826024 C16.6744174,26.8796322 15.1562826,27.15 13.575,27.15 Z" id="Combined-Shape-Copy" fill="#FFFFFF"></path>
            </g>
            <g id="Group" transform="translate(24.330000, 15.330000)" fill="#333333">
                <path d="M16.8364519,33.6694002 C7.53965143,33.6694002 0.00310559209,26.1328543 0.00310559209,16.8360539 C0.00310559209,7.53925345 7.53965143,0.00270761941 16.8364519,0.00270761941 C26.1332523,0.00270761941 33.6697981,7.53925345 33.6697981,16.8360539 C33.6697981,26.1328543 26.1332523,33.6694002 16.8364519,33.6694002 Z M16.8364519,31.6694002 C25.0286828,31.6694002 31.6697981,25.0282848 31.6697981,16.8360539 C31.6697981,8.64382295 25.0286828,2.00270762 16.8364519,2.00270762 C8.64422093,2.00270762 2.00310559,8.64382295 2.00310559,16.8360539 C2.00310559,25.0282848 8.64422093,31.6694002 16.8364519,31.6694002 Z" id="Oval"></path>
                <path d="M16.8364519,21.1789334 C14.4379457,21.1789334 12.4935723,19.23456 12.4935723,16.8360539 C12.4935723,14.4375478 14.4379457,12.4931744 16.8364519,12.4931744 C19.234958,12.4931744 21.1793314,14.4375478 21.1793314,16.8360539 C21.1793314,19.23456 19.234958,21.1789334 16.8364519,21.1789334 Z M16.8364519,19.8456001 C18.4985783,19.8456001 19.845998,18.4981803 19.845998,16.8360539 C19.845998,15.1739274 18.4985783,13.8265077 16.8364519,13.8265077 C15.1743254,13.8265077 13.8269057,15.1739274 13.8269057,16.8360539 C13.8269057,18.4981803 15.1743254,19.8456001 16.8364519,19.8456001 Z" id="Oval-Copy"></path>
            </g>
            <g id="Group" transform="translate(66.000000, 61.500000) rotate(90.000000) translate(-66.000000, -61.500000) translate(60.000000, 56.000000)" fill="#333333">
                <path d="M2,1.375 C1.63181017,1.375 1.33333333,1.68280423 1.33333333,2.0625 L1.33333333,8.9375 C1.33333333,9.31719577 1.63181017,9.625 2,9.625 L10,9.625 C10.3681898,9.625 10.6666667,9.31719577 10.6666667,8.9375 L10.6666667,2.0625 C10.6666667,1.68280423 10.3681898,1.375 10,1.375 L2,1.375 Z M2,0 L10,0 C11.1045695,-1.52655666e-16 12,0.923412703 12,2.0625 L12,8.9375 C12,10.0765873 11.1045695,11 10,11 L2,11 C0.8954305,11 1.48029737e-16,10.0765873 0,8.9375 L0,2.0625 C-1.48029737e-16,0.923412703 0.8954305,1.52655666e-16 2,0 Z" id="Rectangle-path"></path>
                <g transform="translate(4.333333, 7.218750) rotate(90.000000) translate(-4.333333, -7.218750) translate(2.000000, 6.187500)" id="Shape">
                    <polygon points="0.0291666628 1.60416666 4.66666666 1.60416669 4.66666667 0.229166692 0.0291666705 0.229166664"></polygon>
                </g>
                <g transform="translate(7.333333, 7.218750) rotate(90.000000) translate(-7.333333, -7.218750) translate(5.000000, 6.531250)" id="Shape">
                    <polygon points="0.0291666628 0.916666664 4.66666666 0.916666692 4.66666667 -0.458333308 0.0291666705 -0.458333336"></polygon>
                </g>
            </g>
            <g id="Group" transform="translate(37.500000, 58.500000) rotate(90.000000) translate(-37.500000, -58.500000) translate(34.000000, 44.000000)" fill="#333333">
                <polygon id="Shape" points="0.276477965 8.09597017 0.359897822 28.3285283 1.63261294 28.3226345 1.54919309 8.09007634"></polygon>
                <polygon id="Shape" points="5.45080081 3.32225926e-10 5.45080084 28.3255814 6.72352811 28.3255814 6.72352808 -9.52380989e-10"></polygon>
            </g>
            <path d="M21,11.9963074 L21,11.9963074 L21,68.0036926 C21,67.9992449 21.0007581,68 21.0049233,68 L60.9950767,68 C60.9991077,68 61,67.9991119 61,68.0036926 L61,11.9963074 C61,12.0007551 60.9992419,12 60.9950767,12 L21.0049233,12 C21.0008923,12 21,12.0008881 21,11.9963074 L21,11.9963074 Z M19,11.9963074 C19,10.8937773 19.8988551,10 21.0049233,10 L60.9950767,10 C62.1023653,10 63,10.8947304 63,11.9963074 L63,68.0036926 C63,69.1062227 62.1011449,70 60.9950767,70 L21.0049233,70 C19.8976347,70 19,69.1052696 19,68.0036926 L19,11.9963074 L19,11.9963074 Z" id="Shape" fill="#333333"></path>
        </g>
    </g>
</svg>