<?xml version="1.0" encoding="UTF-8"?>
<svg width="24px" height="24px" viewBox="0 0 24 24" version="1.1" xmlns="http://www.w3.org/2000/svg" xmlns:xlink="http://www.w3.org/1999/xlink">
    <!-- Generator: Sketch 48.1 (47250) - http://www.bohemiancoding.com/sketch -->
    <title>info</title>
    <desc>Created with Sketch.</desc>
    <defs></defs>
    <g id="UI-Kit-Mobile" stroke="none" stroke-width="1" fill="none" fill-rule="evenodd" opacity="0.5">
        <g id="info" fill="#000000" fill-rule="nonzero">
            <path d="M21,12 C21,13.6363636 20.6072727,15.1418182 19.7890909,16.5163636 C18.9709091,17.8909091 17.8909091,18.9709091 16.5163636,19.7890909 C15.1418182,20.6072727 13.6363636,21 12,21 C10.3636364,21 8.85818182,20.6072727 7.48363636,19.7890909 C6.10909091,18.9709091 5.02909091,17.8909091 4.21090909,16.5163636 C3.39272727,15.1418182 3,13.6363636 3,12 C3,10.3636364 3.39272727,8.85818182 4.21090909,7.48363636 C5.02909091,6.10909091 6.10909091,5.02909091 7.48363636,4.21090909 C8.85818182,3.39272727 10.3636364,3 12,3 C13.6363636,3 15.1418182,3.39272727 16.5163636,4.21090909 C17.8909091,5.02909091 18.9709091,6.10909091 19.7890909,7.48363636 C20.6072727,8.85818182 21,10.3636364 21,12 Z M12.983871,15.7994987 L13,14.4360902 L13,10.7468672 C13,10.6867168 12.9784946,10.6265664 12.9354839,10.5864662 C12.8924731,10.5463659 12.827957,10.5263158 12.7634409,10.5263158 L11.2526882,10.5263158 C11.188172,10.5263158 11.1236559,10.5463659 11.0806452,10.5864662 C11.0376344,10.6265664 11.016129,10.6867168 11.016129,10.7468672 L11,12.1102757 L11,14.4160401 L11.016129,15.7794486 C11.016129,15.839599 11.0376344,15.8997494 11.0806452,15.9398496 C11.1236559,15.9799499 11.188172,16 11.2526882,16 L12.7258065,16 C12.7903226,16 12.8548387,15.9799499 12.8978495,15.9398496 C12.9408602,15.8997494 12.983871,15.8596491 12.983871,15.7994987 Z M12.9784946,9.36340852 L12.9784946,8.22055138 C12.9784946,8.160401 12.9569892,8.10025063 12.9139785,8.06015038 C12.8709677,8.02005013 12.8064516,8 12.7419355,8 L11.2580645,8 C11.1935484,8 11.1290323,8.02005013 11.0860215,8.06015038 C11.0430108,8.10025063 11.0215054,8.160401 11.0215054,8.22055138 L11.0215054,9.36340852 C11.0215054,9.4235589 11.0430108,9.48370927 11.0860215,9.52380952 C11.1290323,9.56390977 11.1935484,9.5839599 11.2580645,9.5839599 L12.7419355,9.5839599 C12.8064516,9.5839599 12.8709677,9.56390977 12.9139785,9.52380952 C12.9569892,9.48370927 12.9784946,9.4235589 12.9784946,9.36340852 Z" id="Combined-Shape"></path>
        </g>
    </g>
</svg>