<?xml version="1.0" encoding="UTF-8"?>
<svg width="16px" height="44px" viewBox="0 0 16 44" version="1.1" xmlns="http://www.w3.org/2000/svg" xmlns:xlink="http://www.w3.org/1999/xlink">
    <!-- Generator: Sketch 48.1 (47250) - http://www.bohemiancoding.com/sketch -->
    <title>label-precart</title>
    <desc>Created with Sketch.</desc>
    <defs></defs>
    <g id="UI-Kit" stroke="none" stroke-width="1" fill="none" fill-rule="evenodd">
        <g id="label-precart">
            <path d="M3.01993218,6.04005515 L16,0 L16,44 L3.01993218,37.9599448 C1.17794152,37.1028056 -1.52755101e-15,35.2554405 -1.77635684e-15,33.2237867 L-4.4408921e-15,10.7762133 C-4.68969793e-15,8.74455946 1.17794152,6.89719437 3.01993218,6.04005515 Z" id="Rectangle-8" fill="#FFFFFF"></path>
            <path d="M15,0.465333097 L15,43.5346669 L3.01993218,37.9599448 C1.17794152,37.1028056 -1.52755101e-15,35.2554405 -1.77635684e-15,33.2237867 L-4.4408921e-15,10.7762133 C-4.68969793e-15,8.74455946 1.17794152,6.89719437 3.01993218,6.04005515 L15,0.465333097 Z M16,0 L16,44 L16,0 Z M15,1.5682995 L3.44182453,6.94670108 C1.95244738,7.63975756 1,9.13348032 1,10.7762133 L1,33.2237867 C1,34.8665197 1.95244738,36.3602424 3.44182453,37.0532989 L15,42.4317005 L15,1.5682995 Z" id="Combined-Shape" fill="#E7E7E7" fill-rule="nonzero"></path>
        </g>
    </g>
</svg>