<?xml version="1.0" encoding="UTF-8"?>
<svg width="80px" height="80px" viewBox="0 0 80 80" version="1.1" xmlns="http://www.w3.org/2000/svg" xmlns:xlink="http://www.w3.org/1999/xlink">
    <!-- Generator: Sketch 47 (45396) - http://www.bohemiancoding.com/sketch -->
    <title>monitor</title>
    <desc>Created with Sketch.</desc>
    <defs></defs>
    <g id="Page-1" stroke="none" stroke-width="1" fill="none" fill-rule="evenodd">
        <g id="monitor">
            <path d="M9.05500145,61.6835402 L38.4431429,61.6835402 L38.4431429,67.8683484 L31.5375761,67.8683484 C30.9544871,67.8683484 30.4825747,68.3452739 30.4825747,68.9341742 C30.4825747,69.5215949 30.9567321,70 31.5375761,70 L47.6962308,70 C48.2793198,70 48.7512322,69.5230744 48.7512322,68.9341742 C48.7512322,68.3467534 48.2770748,67.8683484 47.6962308,67.8683484 L40.5568571,67.8683484 L40.5568571,61.6835402 L69.9449986,61.6835402 C70.5280876,61.6835402 71,61.2066146 71,60.6177143 L71,17.0658258 C71,16.4761383 70.5273105,16 69.9449986,16 L9.05500145,16 C8.47191241,16 8,16.4769256 8,17.0658258 L8,60.6139699 C8,61.2062212 8.47152488,61.6835402 9.05500145,61.6835402 Z M68.8862859,18.1353961 L68.8862859,59.5518885 L10.1100029,59.5518885 L10.1100029,18.1353961 L68.8862859,18.1353961 Z" id="Shape" fill="#333333" fill-rule="nonzero"></path>
            <path d="M43,55.0769231 C41.8529471,55.0769231 40.9230769,54.1470529 40.9230769,53 C40.9230769,51.9803974 40.0965257,51.1538462 39.0769231,51.1538462 C37.9298701,51.1538462 37,50.223976 37,49.0769231 C37,47.9298701 37.9298701,47 39.0769231,47 C40.223976,47 41.1538462,47.9298701 41.1538462,49.0769231 C41.1538462,50.0965257 41.9803974,50.9230769 43,50.9230769 C44.1470529,50.9230769 45.0769231,51.8529471 45.0769231,53 C45.0769231,54.0196026 45.9034743,54.8461538 46.9230769,54.8461538 C48.0701299,54.8461538 49,55.776024 49,56.9230769 C49,58.0701299 48.0701299,59 46.9230769,59 C45.776024,59 44.8461538,58.0701299 44.8461538,56.9230769 C44.8461538,55.9034743 44.0196026,55.0769231 43,55.0769231 Z M39.0769231,59 C37.9298701,59 37,58.0701299 37,56.9230769 C37,55.776024 37.9298701,54.8461538 39.0769231,54.8461538 C40.223976,54.8461538 41.1538462,55.776024 41.1538462,56.9230769 C41.1538462,58.0701299 40.223976,59 39.0769231,59 Z M46.9230769,51.1538462 C45.776024,51.1538462 44.8461538,50.223976 44.8461538,49.0769231 C44.8461538,47.9298701 45.776024,47 46.9230769,47 C48.0701299,47 49,47.9298701 49,49.0769231 C49,50.223976 48.0701299,51.1538462 46.9230769,51.1538462 Z" id="Combined-Shape" fill="#FC595A"></path>
        </g>
    </g>
</svg>