<?xml version="1.0" encoding="UTF-8"?>
<svg width="24px" height="24px" viewBox="0 0 24 24" version="1.1" xmlns="http://www.w3.org/2000/svg" xmlns:xlink="http://www.w3.org/1999/xlink">
    <!-- Generator: Sketch 48.1 (47250) - http://www.bohemiancoding.com/sketch -->
    <title>more-info</title>
    <desc>Created with Sketch.</desc>
    <defs></defs>
    <g id="UI-Kit" stroke="none" stroke-width="1" fill="none" fill-rule="evenodd" opacity="0.5">
        <g id="more-info" fill="#000000" fill-rule="nonzero">
            <path d="M12,2 C6.47715789,2 2,6.47715672 2,12.0000026 C2,17.5228433 6.47715789,22 12,22 C17.5228684,22 22,17.5228433 22,12.0000026 C22,6.47715672 17.5228684,2 12,2 Z M7.21052632,10.4210504 C8.08255263,10.4210504 8.78947368,11.1279713 8.78947368,12.0000026 C8.78947368,12.8720287 8.08255263,13.5789496 7.21052632,13.5789496 C6.3385,13.5789496 5.63157895,12.8720287 5.63157895,12.0000026 C5.63157895,11.1279713 6.3385,10.4210504 7.21052632,10.4210504 Z M12,10.4210504 C12.8720263,10.4210504 13.5789474,11.1279713 13.5789474,12.0000026 C13.5789474,12.8720287 12.8720263,13.5789496 12,13.5789496 C11.1279474,13.5789496 10.4210526,12.8720287 10.4210526,12.0000026 C10.4210526,11.1279713 11.1279474,10.4210504 12,10.4210504 Z M16.7894737,10.4210504 C17.6615,10.4210504 18.3684211,11.1279713 18.3684211,12.0000026 C18.3684211,12.8720287 17.6615,13.5789496 16.7894737,13.5789496 C15.9174211,13.5789496 15.2105263,12.8720287 15.2105263,12.0000026 C15.2105263,11.1279713 15.9174211,10.4210504 16.7894737,10.4210504 Z" id="Shape"></path>
        </g>
    </g>
</svg>