<?xml version="1.0" encoding="UTF-8"?>
<svg width="80px" height="80px" viewBox="0 0 80 80" version="1.1" xmlns="http://www.w3.org/2000/svg" xmlns:xlink="http://www.w3.org/1999/xlink">
    <!-- Generator: Sketch 47 (45396) - http://www.bohemiancoding.com/sketch -->
    <title>notebook-bag</title>
    <desc>Created with Sketch.</desc>
    <defs></defs>
    <g id="Page-1" stroke="none" stroke-width="1" fill="none" fill-rule="evenodd">
        <g id="notebook-bag" fill-rule="nonzero">
            <path d="M32.3529412,13.9527187 C31.6057324,13.9527187 31,14.5441312 31,15.2736754 L31,22.7263246 C31,23.4558688 31.6057324,24.0472813 32.3529412,24.0472813 L47.6470588,24.0472813 C48.3942676,24.0472813 49,23.4558688 49,22.7263246 L49,15.2736754 C49,14.5441312 48.3942676,13.9527187 47.6470588,13.9527187 L32.3529412,13.9527187 Z M32.3529412,12 L47.6470588,12 C49.4988371,12 51,13.4656744 51,15.2736754 L51,22.7263246 C51,24.5343256 49.4988371,26 47.6470588,26 L32.3529412,26 C30.5011629,26 29,24.5343256 29,22.7263246 L29,15.2736754 C29,13.4656744 30.5011629,12 32.3529412,12 Z" id="Rectangle-path" fill="#333333"></path>
            <path d="M12.3529412,22.9917479 C11.6057324,22.9917479 11,23.5949811 11,24.3391068 L11,62.6608932 C11,63.4050189 11.6057324,64.0082521 12.3529412,64.0082521 L67.6470588,64.0082521 C68.3942676,64.0082521 69,63.4050189 69,62.6608932 L69,24.3391068 C69,23.5949811 68.3942676,22.9917479 67.6470588,22.9917479 L12.3529412,22.9917479 Z M12.3529412,21 L67.6470588,21 C69.4988371,21 71,22.4949691 71,24.3391068 L71,62.6608932 C71,64.5050309 69.4988371,66 67.6470588,66 L12.3529412,66 C10.5011629,66 9,64.5050309 9,62.6608932 L9,24.3391068 C9,22.4949691 10.5011629,21 12.3529412,21 Z" id="Rectangle-path" fill="#FC595A"></path>
        </g>
    </g>
</svg>