<?xml version="1.0" encoding="UTF-8"?>
<svg width="80px" height="80px" viewBox="0 0 80 80" version="1.1" xmlns="http://www.w3.org/2000/svg" xmlns:xlink="http://www.w3.org/1999/xlink">
    <!-- Generator: Sketch 47 (45396) - http://www.bohemiancoding.com/sketch -->
    <title>notebook-bag-2</title>
    <desc>Created with Sketch.</desc>
    <defs></defs>
    <g id="Page-1" stroke="none" stroke-width="1" fill="none" fill-rule="evenodd">
        <g id="notebook-bag-2" fill-rule="nonzero">
            <path d="M32.3529412,23.9527187 C31.6057324,23.9527187 31,24.5441312 31,25.2736754 L31,32.7263246 C31,33.4558688 31.6057324,34.0472813 32.3529412,34.0472813 L47.6470588,34.0472813 C48.3942676,34.0472813 49,33.4558688 49,32.7263246 L49,25.2736754 C49,24.5441312 48.3942676,23.9527187 47.6470588,23.9527187 L32.3529412,23.9527187 Z M32.3529412,22 L47.6470588,22 C49.4988371,22 51,23.4656744 51,25.2736754 L51,32.7263246 C51,34.5343256 49.4988371,36 47.6470588,36 L32.3529412,36 C30.5011629,36 29,34.5343256 29,32.7263246 L29,25.2736754 C29,23.4656744 30.5011629,22 32.3529412,22 Z" id="Rectangle-path" fill="#333333"></path>
            <path d="M17.1196755,33 C16.5012958,33 16,33.4562137 16,34.0189819 L16,63.0010186 C16,63.5637867 16.5012958,64.0200005 17.1196755,64.0200005 L62.8803245,64.0200005 C63.4987042,64.0200005 64,63.5637867 64,63.0010186 L64,34.0189819 C64,33.4562137 63.4987042,33 62.8803245,33 L17.1196755,33 Z M16.8121442,31 L63.1878558,31 C64.7409602,31 66,32.1627537 66,33.5970831 L66,63.4029169 C66,64.8372463 64.7409602,66 63.1878558,66 L16.8121442,66 C15.2590398,66 14,64.8372463 14,63.4029169 L14,33.5970831 C14,32.1627537 15.2590398,31 16.8121442,31 Z" id="Rectangle-path" fill="#FC595A"></path>
        </g>
    </g>
</svg>