<?xml version="1.0" encoding="UTF-8"?>
<svg width="24px" height="24px" viewBox="0 0 24 24" version="1.1" xmlns="http://www.w3.org/2000/svg" xmlns:xlink="http://www.w3.org/1999/xlink">
    <!-- Generator: Sketch 48.1 (47250) - http://www.bohemiancoding.com/sketch -->
    <title>price-drop</title>
    <desc>Created with Sketch.</desc>
    <defs></defs>
    <g id="UI-Kit-Mobile" stroke="none" stroke-width="1" fill="none" fill-rule="evenodd">
        <g id="price-drop" fill="#FF655B" fill-rule="nonzero">
            <path d="M5.72159082,10.8192552 L7.82578099,11.7022706 C7.58853307,12.3084395 7.39928519,12.9327399 7.25982639,13.56927 L7.18001228,13.9364282 L10.1966229,16.9911843 L10.5594143,16.9122453 C11.1883739,16.7711079 11.8052492,16.5795821 12.4042086,16.3394785 L13.2767219,18.468996 C13.2940918,18.5118689 13.3316056,18.543024 13.376544,18.551898 C13.4214823,18.560772 13.4678173,18.5461745 13.4998386,18.5130549 L14.8185854,17.1784349 C15.2537983,16.7380357 15.484459,16.1317664 15.4534704,15.509701 L15.4063075,14.6523866 C17.8478937,12.8276105 20.3185032,9.62782691 20.9914813,4.04335095 C21.0301715,3.75953564 20.9356963,3.47371488 20.7360516,3.27058671 C20.536407,3.06745854 20.2544935,2.97032313 19.9738514,3.00796488 C14.457608,3.69455068 11.2940669,6.1967337 9.49099357,8.6603651 L8.64568958,8.61630612 C8.03238322,8.58253348 7.43352258,8.81255962 6.99680262,9.24965399 L5.67805585,10.584274 C5.64086242,10.6162741 5.62346146,10.6659888 5.63245796,10.7145476 C5.64145446,10.7631065 5.67546912,10.8030647 5.72159082,10.8192552 Z M14.1818865,7.56623372 C14.8200246,6.92265311 15.8526745,6.9238627 16.4893388,7.56893653 C17.1260032,8.21401037 17.1260032,9.25909048 16.4893388,9.90416432 C15.8526745,10.5492382 14.8200246,10.5504477 14.1818865,9.90686713 C13.874495,9.59685403 13.7017144,9.17573831 13.7017144,8.73655043 C13.7017144,8.29736255 13.874495,7.87624682 14.1818865,7.56623372 Z M5.32796214,17.2353445 C4.9787803,17.1113301 4.60381026,17.0809715 4.23958791,17.1472265 C4.17378886,17.1616301 4.10529107,17.1408334 4.0581922,17.0921528 C3.9993512,17.0328373 3.98340851,16.9426303 4.01828515,16.8663505 C4.404658,16.0255582 5.42954373,14.3347948 7.28522179,15.7006233 C7.30482749,15.718384 7.31603239,15.7437537 7.31603239,15.7703833 C7.31603239,15.7970129 7.30482749,15.8223826 7.28522179,15.8401434 C6.78136928,16.2417174 6.49646117,16.8620177 6.51791796,17.5107131 C6.52071896,17.5885913 6.58245465,17.6510701 6.65940661,17.6539048 C7.29760741,17.6798729 7.91013069,17.3978543 8.31010753,16.8938874 C8.32767734,16.8721159 8.35398319,16.8594858 8.38175883,16.8594858 C8.40953447,16.8594858 8.43584032,16.8721159 8.45341013,16.8938874 C8.71099203,17.204136 9.42024924,18.2174926 8.63480584,19.1959692 C8.29190939,19.6130627 7.80060138,19.8768408 7.26708222,19.9302855 C6.50522026,20.0128961 5.09758959,20.2643995 4.52256521,20.9289558 C4.4755322,20.9853522 4.40164485,21.0109714 4.3303205,20.9956133 C4.25899616,20.9802553 4.20181433,20.9264134 4.18154128,20.8555241 C3.97837809,20.154252 3.66274957,18.5864866 5.32796214,17.2353445 Z" id="Shape"></path>
        </g>
    </g>
</svg>