<?xml version="1.0" encoding="UTF-8"?>
<svg width="80px" height="80px" viewBox="0 0 80 80" version="1.1" xmlns="http://www.w3.org/2000/svg" xmlns:xlink="http://www.w3.org/1999/xlink">
    <!-- Generator: Sketch 47 (45396) - http://www.bohemiancoding.com/sketch -->
    <title>printer</title>
    <desc>Created with Sketch.</desc>
    <defs></defs>
    <g id="Page-1" stroke="none" stroke-width="1" fill="none" fill-rule="evenodd">
        <g id="printer">
            <path d="M59.380337,14.0587495 C59.380337,13.5064647 58.9326217,13.0587495 58.380337,13.0587495 L21.6196629,13.0587495 C21.0673782,13.0587495 20.6196629,13.5064647 20.6196629,14.0587495 L20.6196629,33.8660546 L59.380337,33.8660546 L59.380337,14.0587495 Z M61.440337,14.0587495 L61.440337,35.9260546 L18.5596629,35.9260546 L18.5596629,14.0587495 C18.5596629,12.3687582 19.9296716,10.9987495 21.6196629,10.9987495 L58.380337,10.9987495 C60.0703283,10.9987495 61.440337,12.3687582 61.440337,14.0587495 Z" id="Path" fill="#FC595A" fill-rule="nonzero"></path>
            <path d="M66.3978787,66.9412505 L63.2328768,66.9412505 L16.7654604,66.9412505 L13.6037839,66.9412505 C9.99767938,66.9412505 7.06427629,64.0142518 7.06427629,60.4166238 L7.06427629,42.4494308 C7.06427629,38.8512527 9.99739933,35.9248041 13.6037839,35.9248041 L66.3978787,35.9248041 C70.0039832,35.9248041 72.9373863,38.8518027 72.9373863,42.4494308 L72.9373863,60.4166238 C72.9373863,64.0145225 70.003712,66.9412505 66.3978787,66.9412505 Z" id="Path-Copy" fill="#FFFFFF"></path>
            <path d="M66.3970474,33.8652251 L61.4437819,33.8652251 L18.556218,33.8660546 L13.6029525,33.8660546 C8.85941087,33.8660546 5,37.7169306 5,42.4494308 L5,60.4166238 C5,65.1493713 8.85965876,69 13.6029525,69 L66.3970474,69 C71.140589,69 74.9999999,65.149124 74.9999999,60.4166238 L74.9999999,42.4493748 C75.0008002,37.7164942 71.1409953,33.8652251 66.3970474,33.8652251 Z M18.8289053,66.9412505 L18.8289053,54.2395458 C18.8289053,53.2591813 19.6279175,52.4619873 20.6105179,52.4619873 L59.3878192,52.4619873 C60.3704197,52.4619873 61.1694318,53.2591813 61.1694318,54.2395458 L61.1694318,66.9412505 L18.8289053,66.9412505 Z" id="Shape" fill="#333333" fill-rule="nonzero"></path>
            <path d="M66.3978787,66.9412505 L63.2328768,66.9412505 L63.2328768,54.2395458 C63.2328768,52.1248537 61.5075713,50.4032378 59.3878192,50.4032378 L20.6105179,50.4032378 C18.4904687,50.4032378 16.7654604,52.1243208 16.7654604,54.2395458 L16.7654604,66.9412505 L13.6037839,66.9412505 C9.99767938,66.9412505 7.06427629,64.0142518 7.06427629,60.4166238 L7.06427629,42.4494308 C7.06427629,38.8512527 9.99739933,35.9248041 13.6037839,35.9248041 L66.3978787,35.9248041 C70.0039832,35.9248041 72.9373863,38.8518027 72.9373863,42.4494308 L72.9373863,60.4166238 C72.9373863,64.0145225 70.003712,66.9412505 66.3978787,66.9412505 Z" id="Path" fill="#FFFFFF"></path>
        </g>
    </g>
</svg>