<?xml version="1.0" encoding="UTF-8"?>
<svg width="24px" height="24px" viewBox="0 0 24 24" version="1.1" xmlns="http://www.w3.org/2000/svg" xmlns:xlink="http://www.w3.org/1999/xlink">
    <!-- Generator: Sketch 48.1 (47250) - http://www.bohemiancoding.com/sketch -->
    <title>profile</title>
    <desc>Created with Sketch.</desc>
    <defs></defs>
    <g id="UI-Kit" stroke="none" stroke-width="1" fill="none" fill-rule="evenodd">
        <g id="profile" fill="#FFFFFF" fill-rule="nonzero">
            <path d="M4.88573712,17.5271689 C3.72373083,18.1566321 3.00004282,19.3682581 3.0000006,20.6856825 L3,20.7617553 C3.00083328,21.4459431 3.55704064,21.9991748 4.24091102,21.9999994 L19.7580748,22 C20.44294,21.9991748 20.9991473,21.4459431 20.9999837,20.7603078 C21.0040992,19.3973153 20.2290915,18.1510501 18.9989671,17.5449641 L15.3174318,15.709043 C15.0209735,15.5646283 14.8312758,15.2681266 14.8252023,14.9267107 L14.8252023,13.698025 L14.982376,13.4844972 L15.0762762,13.3571514 C15.5037458,12.7539467 15.8536871,12.0998826 16.1179368,11.4101967 L16.2075329,11.176353 L16.4144969,11.033173 C16.8657643,10.7209812 17.1356101,10.2085772 17.1366832,9.66235922 L17.1366834,8.12925813 C17.1364998,7.81581885 17.0468525,7.50894323 16.8782688,7.24442064 L16.7518529,7.04606308 L16.7518529,6.8114569 L16.7542616,5.97131543 C16.8274065,5.02876065 16.5218741,4.0959326 15.91556,3.38965729 C15.1016606,2.47917657 13.7967313,2 11.9899947,2 C10.1797835,2 8.87918849,2.48078307 8.0767469,3.39046786 C7.46426412,4.10823831 7.1587912,5.03651283 7.22813656,6.03348618 L7.22813656,7.04606308 L7.10172065,7.24442064 C6.93313689,7.50894323 6.84348965,7.81581885 6.84330622,8.12878753 L6.84330465,9.66394733 C6.84246324,10.0896576 7.0065396,10.4991485 7.30114854,10.8071735 L7.43552859,10.947673 L7.49136682,11.1331783 C7.74292379,11.9688991 8.12682803,12.7593294 8.6285968,13.4746931 L8.77495462,13.6833531 L8.77495462,13.9374699 L8.77491086,14.902784 C8.77151216,15.228445 8.58525196,15.5230687 8.29565273,15.6692969 L4.88573712,17.5271689 Z" id="Shape"></path>
        </g>
    </g>
</svg>