<?xml version="1.0" encoding="UTF-8"?>
<svg width="48px" height="48px" viewBox="0 0 48 48" version="1.1" xmlns="http://www.w3.org/2000/svg" xmlns:xlink="http://www.w3.org/1999/xlink">
    <!-- Generator: Sketch 50.2 (55047) - http://www.bohemiancoding.com/sketch -->
    <title>split-48</title>
    <desc>Created with Sketch.</desc>
    <defs></defs>
    <g id="split-48" stroke="none" stroke-width="1" fill="none" fill-rule="evenodd">
        <path d="M23.9988098,10.0000494 C24.0823346,9.9990006 24.1652574,10.0146565 24.2429351,10.0461404 L41.58868,18.1120627 C41.8193093,18.2151834 41.9699704,18.4468062 41.974141,18.7046611 C41.9798565,18.9665765 41.8335321,19.2070463 41.6015287,19.3170128 L24.2557838,27.9491957 C24.0882586,28.0263779 23.8965122,28.0263779 23.7289871,27.9491957 L6.38324213,19.3104283 C6.15031318,19.2051631 6,18.9688636 6,18.7079533 C6,18.4470431 6.15031318,18.2107435 6.38324213,18.1054783 L23.7289871,10.0527248 C23.8147009,10.0172481 23.9063731,9.99935169 23.9988098,10.0000494 Z M13.8868829,25.6020655 L23.1829173,30.211164 C23.7000124,30.4588069 24.2976071,30.4588069 24.8147022,30.211164 L34.1107366,25.6020655 L41.6143774,29.1049803 C41.8450067,29.2081011 41.9956678,29.4397238 41.9998384,29.6975787 C42.0055539,29.9594941 41.8592295,30.1999639 41.6272261,30.3099304 L24.2814812,38.9421134 C24.113956,39.0192955 23.9222096,39.0192955 23.7546845,38.9421134 L6.40893953,30.3033459 C6.17601058,30.1980807 6.0256974,29.9617812 6.0256974,29.7008709 C6.0256974,29.4399607 6.17601058,29.2036611 6.40893953,29.0983959 L13.8868829,25.6020655 Z" id="Combined-Shape" fill="#FFFFFF" fill-rule="nonzero"></path>
    </g>
</svg>