<?xml version="1.0" encoding="UTF-8"?>
<svg width="80px" height="80px" viewBox="0 0 80 80" version="1.1" xmlns="http://www.w3.org/2000/svg" xmlns:xlink="http://www.w3.org/1999/xlink">
    <!-- Generator: Sketch 47 (45396) - http://www.bohemiancoding.com/sketch -->
    <title>tablet-2</title>
    <desc>Created with Sketch.</desc>
    <defs></defs>
    <g id="Page-1" stroke="none" stroke-width="1" fill="none" fill-rule="evenodd">
        <g id="tablet-2" fill-rule="nonzero">
            <g id="noun_1008453_cc" transform="translate(17.000000, 9.000000)" fill="#333333">
                <path d="M3.68369503,0 L42.316305,7.80178936e-14 C44.3449087,7.80178936e-14 46,1.65034033 46,3.67235125 L46,57.3276487 C46,59.3496597 44.3449087,61 42.316305,61 L3.68369503,61 C1.65509128,61 0,59.3496597 0,57.3276487 L0,3.67235125 C0,1.65034033 1.65509128,0 3.68369503,0 Z M44.1515582,3.67235125 C44.1515582,2.64564144 43.3451985,1.84159649 42.316305,1.84159649 L3.68369503,1.84159649 C2.65480147,1.84159649 1.84844185,2.64564144 1.84844185,3.67235125 L1.84844185,5.50310602 L44.1515582,5.50310602 L44.1515582,3.67235125 Z M1.84844185,7.34470251 L1.84844185,50.9037445 L44.1515582,50.9037445 L44.1515582,7.34470251 L1.84844185,7.34470251 Z M1.84844185,57.3276487 C1.84844185,58.3543586 2.65480147,59.1584035 3.68369503,59.1584035 L42.316305,59.1584035 C43.3451985,59.1584035 44.1515582,58.3543586 44.1515582,57.3276487 L44.1515582,52.745341 L1.84844185,52.745341 L1.84844185,57.3276487 Z M23.0000138,54.3431857 C23.8916311,54.3431857 24.6141032,55.0635765 24.6141032,55.9518722 C24.6141032,56.8401679 23.8916311,57.5605587 23.0000138,57.5605587 C22.1083965,57.5605587 21.3859243,56.8401679 21.3859243,55.9518722 C21.3859243,55.0635765 22.1083965,54.3431857 23.0000138,54.3431857 Z" id="Shape"></path>
            </g>
            <path d="M46.1875,33 L34.8125,33 C34.3637686,33 34,33.3517763 34,33.7857143 L34,43.2142857 C34,43.6482237 34.3637686,44 34.8125,44 L46.1875,44 C46.6362314,44 47,43.6482237 47,43.2142857 L47,33.7857143 C47,33.3517763 46.6362314,33 46.1875,33 Z M45.375,40.4642857 L43.1284375,37.9761905 C42.9777536,37.8096663 42.7600706,37.7141483 42.53125,37.7141483 C42.3024294,37.7141483 42.0847464,37.8096663 41.9340625,37.9761905 L39.7890625,40.3516667 L39.0659375,39.547619 C38.9152536,39.3810948 38.6975706,39.2855769 38.46875,39.2855769 C38.2399294,39.2855769 38.0222464,39.3810948 37.8715625,39.547619 L35.625,42.0357143 L35.625,34.5714286 L45.375,34.5714286 L45.375,40.4642857 Z M37.65625,36.9285714 C37.65625,36.2776644 38.201903,35.75 38.875,35.75 C39.548097,35.75 40.09375,36.2776644 40.09375,36.9285714 C40.09375,37.5794785 39.548097,38.1071429 38.875,38.1071429 C38.201903,38.1071429 37.65625,37.5794785 37.65625,36.9285714 Z" id="Shape" fill="#FC595A"></path>
        </g>
    </g>
</svg>