<?xml version="1.0" encoding="UTF-8"?>
<svg width="24px" height="24px" viewBox="0 0 24 24" version="1.1" xmlns="http://www.w3.org/2000/svg" xmlns:xlink="http://www.w3.org/1999/xlink">
    <!-- Generator: Sketch 48.1 (47250) - http://www.bohemiancoding.com/sketch -->
    <title>terms</title>
    <desc>Created with Sketch.</desc>
    <defs></defs>
    <g id="UI-Kit" stroke="none" stroke-width="1" fill="none" fill-rule="evenodd">
        <g id="terms" fill="#000000" fill-rule="nonzero">
            <path d="M15.5037987,1 L21,6.29943483 L21,20.8878011 C21,22.0523607 20.0033609,23 18.7785851,23 L6.22141488,23 C4.99663913,23 4,22.0523607 4,20.8878011 L4,3.11219894 C4,1.94763934 4.99663913,1 6.22141488,1 L15.5037987,1 Z M15.9717403,3.63097122 L15.9717403,5.84799583 L18.2712125,5.84799583 L15.9717403,3.63097122 Z M8.00305318,19.1616207 L16.9965445,19.1616207 L16.9965445,17.631319 L8.00305318,17.631319 L8.00305318,19.1616207 Z M8.00305318,15.1216242 L16.9965445,15.1216242 L16.9965445,13.5913225 L8.00305318,13.5913225 L8.00305318,15.1216242 Z M8.00305318,11.0816277 L16.9965445,11.0816277 L16.9965445,9.55132597 L8.00305318,9.55132597 L8.00305318,11.0816277 Z" id="Shape"></path>
        </g>
    </g>
</svg>