<?xml version="1.0" encoding="UTF-8"?>
<svg width="24px" height="24px" viewBox="0 0 24 24" version="1.1" xmlns="http://www.w3.org/2000/svg" xmlns:xlink="http://www.w3.org/1999/xlink">
    <!-- Generator: Sketch 48.1 (47250) - http://www.bohemiancoding.com/sketch -->
    <title>todays-deal</title>
    <desc>Created with Sketch.</desc>
    <defs></defs>
    <g id="UI-Kit-Mobile" stroke="none" stroke-width="1" fill="none" fill-rule="evenodd">
        <g id="todays-deal" fill="#493B8D" fill-rule="nonzero">
            <path d="M17.9377709,9.17455165 C17.841683,8.99679909 17.649507,8.88524404 17.4397436,8.88524404 L13.1983608,8.88524404 L16.3295844,3.80376844 C16.4312489,3.63868331 16.4323213,3.43457435 16.3325872,3.26846765 C16.232853,3.10236095 16.047326,3 15.8463563,3 L9.52728579,3 C9.28642243,3 9.07236933,3.14669694 8.99601372,3.36449489 L6.02886885,11.8144835 C5.97181663,11.9773212 6.00034274,12.1562997 6.10543895,12.2956413 C6.21074964,12.434983 6.37997599,12.5175255 6.56014093,12.5175255 L11.0320919,12.5175255 L8.63246662,20.3161635 C8.55546756,20.5662429 8.67922371,20.8324631 8.92523464,20.9462656 C9.00373507,20.9826334 9.08716859,21 9.16974419,21 C9.34604844,21 9.51806306,20.9205221 9.62616202,20.7760726 L17.8957325,9.72864926 C18.0177727,9.56601589 18.0338589,9.3523042 17.9377709,9.17455165 Z" id="Shape"></path>
        </g>
    </g>
</svg>