<?xml version="1.0" encoding="UTF-8"?>
<svg width="80px" height="80px" viewBox="0 0 80 80" version="1.1" xmlns="http://www.w3.org/2000/svg" xmlns:xlink="http://www.w3.org/1999/xlink">
    <!-- Generator: Sketch 47 (45396) - http://www.bohemiancoding.com/sketch -->
    <title>toner</title>
    <desc>Created with Sketch.</desc>
    <defs></defs>
    <g id="Page-1" stroke="none" stroke-width="1" fill="none" fill-rule="evenodd">
        <g id="toner">
            <path d="M47.8668859,11 L20.9681107,11 C18.9425276,11 17.2948255,12.6577799 17.2948255,14.695752 L17.2948255,44.2950631 L13.0258724,44.2950631 C12.459424,44.2950631 12,44.7571375 12,45.3272101 L12,59.9770379 C12,60.5471105 12.459424,61.0091848 13.0258724,61.0091848 L17.2948255,61.0091848 L17.2948255,65.304248 C17.2948255,67.3422201 18.9425276,69 20.9681107,69 L58.0318893,69 C60.0574724,69 61.7051745,67.3422201 61.7051745,65.304248 L61.7051745,61.0091848 L65.9741276,61.0091848 C66.5409862,61.0091848 67,60.5473636 67,59.9770379 L67,45.3272101 C67,44.7568844 66.5409862,44.2950631 65.9741276,44.2950631 L61.7051745,44.2950631 L61.7051745,24.9229274 L47.8668859,11 Z M59.526616,25.6498278 L48.7659446,25.6498278 C47.8707696,25.6498278 47.1444043,24.9190199 47.1444043,24.0183697 L47.1444043,13.1918832 L59.526616,25.6498278 Z M19.3465704,14.695752 C19.3465704,13.7951018 20.0729356,13.0642939 20.9681107,13.0642939 L45.0926594,13.0642939 L45.0926594,24.0183697 C45.0926594,26.0563418 46.7403616,27.7141217 48.7659446,27.7141217 L59.6534296,27.7141217 L59.6534296,44.2950631 L19.3465704,44.2950631 L19.3465704,14.695752 Z M59.6534296,65.304248 C59.6534296,66.2048982 58.9270644,66.9357061 58.0318893,66.9357061 L20.9681107,66.9357061 C20.0729356,66.9357061 19.3465704,66.2048982 19.3465704,65.304248 L19.3465704,61.0091848 L59.6534296,61.0091848 L59.6534296,65.304248 Z M14.0517449,58.9448909 L14.0517449,46.3593571 L64.9482551,46.3593571 L64.9482551,58.9448909 L14.0517449,58.9448909 Z" id="Shape" fill="#333333" fill-rule="nonzero"></path>
            <path d="M50.7515042,34.9724455 L28.2484958,34.9724455 C27.6820474,34.9724455 27.2226233,35.4345198 27.2226233,36.0045924 C27.2226233,36.574665 27.6820474,37.0367394 28.2484958,37.0367394 L50.7515042,37.0367394 C51.3183628,37.0367394 51.7773767,36.5749181 51.7773767,36.0045924 C51.7773767,35.4342667 51.3183628,34.9724455 50.7515042,34.9724455 Z" id="Path" fill="#FC595A"></path>
            <path d="M28.2484958,27.7141217 L36.1907341,27.7141217 C36.7571825,27.7141217 37.2166065,27.2520473 37.2166065,26.6819747 C37.2166065,26.1119022 36.7571825,25.6498278 36.1907341,25.6498278 L28.2484958,25.6498278 C27.6820474,25.6498278 27.2226233,26.1119022 27.2226233,26.6819747 C27.2226233,27.2520473 27.6820474,27.7141217 28.2484958,27.7141217 Z" id="Path" fill="#FC595A"></path>
        </g>
    </g>
</svg>