<?xml version="1.0" encoding="UTF-8"?>
<svg width="80px" height="80px" viewBox="0 0 80 80" version="1.1" xmlns="http://www.w3.org/2000/svg" xmlns:xlink="http://www.w3.org/1999/xlink">
    <!-- Generator: Sketch 47 (45396) - http://www.bohemiancoding.com/sketch -->
    <title>tv</title>
    <desc>Created with Sketch.</desc>
    <defs></defs>
    <g id="Page-1" stroke="none" stroke-width="1" fill="none" fill-rule="evenodd">
        <g id="tv">
            <path d="M40.5708982,24.9105454 L52.1123889,13.3847372 C52.4288046,13.0687515 52.4297103,12.5555297 52.1144119,12.2384242 C51.7991135,11.9213187 51.2870081,11.920411 50.9705924,12.2363968 L39.4291018,23.762205 C39.1126861,24.0781907 39.1117803,24.5914125 39.4270787,24.908518 C39.7423771,25.2256234 40.2544826,25.2265312 40.5708982,24.9105454 Z" id="Shape" fill="#FC595A"></path>
            <path d="M40.5708982,23.762205 L29.0294076,12.2363968 C28.7129919,11.920411 28.2008865,11.9213187 27.8855881,12.2384242 C27.5702897,12.5555297 27.5711954,13.0687515 27.8876111,13.3847372 L39.4291018,24.9105454 C39.7455174,25.2265312 40.2576229,25.2256234 40.5729213,24.908518 C40.8882197,24.5914125 40.8873139,24.0781907 40.5708982,23.762205 Z" id="Shape" fill="#FC595A"></path>
            <path d="M39.1911962,64.9173948 L39.1911962,61.0764509 L7,61.0764509 L7,23.5258082 L73,23.5258082 L73,61.0764509 L40.8088038,61.0764509 L40.8088038,64.9036678 L54.8097372,67.2670615 C55.2502225,67.3414165 55.5471608,67.7595555 55.4729675,68.2010011 C55.3987742,68.6424467 54.9815447,68.9400323 54.5410594,68.8656773 L40.0081805,66.4124898 L26.4215952,68.9857547 C25.9826746,69.0688852 25.5596151,68.7796846 25.4766655,68.3398071 C25.3937159,67.8999296 25.6822874,67.4759479 26.121208,67.3928175 L39.1911962,64.9173948 Z M8.61760761,25.1469422 L8.61760761,59.4553169 L71.3823924,59.4553169 L71.3823924,25.1469422 L8.61760761,25.1469422 Z" id="Combined-Shape" fill="#333333" fill-rule="nonzero"></path>
        </g>
    </g>
</svg>