<?xml version="1.0" encoding="UTF-8"?>
<svg width="24px" height="24px" viewBox="0 0 24 24" version="1.1" xmlns="http://www.w3.org/2000/svg" xmlns:xlink="http://www.w3.org/1999/xlink">
    <!-- Generator: Sketch 48.1 (47250) - http://www.bohemiancoding.com/sketch -->
    <title>Warranty</title>
    <desc>Created with Sketch.</desc>
    <defs></defs>
    <g id="UI-Kit" stroke="none" stroke-width="1" fill="none" fill-rule="evenodd" opacity="0.50999999">
        <g id="Warranty" fill="#000000" fill-rule="nonzero">
            <path d="M20.7707031,6.58208955 C20.8447175,6.87396352 21.3258109,9.57379768 20.6226744,12.9303483 C19.956545,16.1409619 17.9951641,20.4096186 12.5181006,22.7810945 L12,23 L11.4818994,22.7446103 C6.00483586,20.3731343 4.04345499,16.0679934 3.37732564,12.893864 C2.67418911,9.64676617 3.15528253,6.87396352 3.2292969,6.58208955 L3.45134002,5.52404643 L4.63556997,5.56053068 C5.37571369,5.56053068 9.22446104,5.4145937 10.9267916,2.67827529 L12,1 L13.0732084,2.64179104 C14.775539,5.4145937 18.6242863,5.56053068 19.36443,5.56053068 L20.54866,5.52404643 L20.7707031,6.58208955 Z M10.8596491,17 L17,10.9459459 L15.0263158,9 L10.8596491,13.1081081 L8.97368421,11.2486486 L7,13.1945946 L10.8596491,17 Z" id="Shape"></path>
        </g>
    </g>
</svg>