<?xml version="1.0" encoding="UTF-8"?>
<svg width="150px" height="150px" viewBox="0 0 96 96" version="1.1" xmlns="http://www.w3.org/2000/svg" xmlns:xlink="http://www.w3.org/1999/xlink">
    <!-- Generator: Sketch 48.1 (47250) - http://www.bohemiancoding.com/sketch -->
    <title>item/logo/apple</title>
    <desc>Created with Sketch.</desc>
    <defs>
        <path d="M61.4067794,46.5634279 C61.4758133,54.1300976 67.92851,56.6480651 68,56.6801167 C67.9454395,56.8576056 66.968965,60.2683744 64.600409,63.7914576 C62.5528124,66.8374278 60.4278488,69.8720595 57.0802745,69.9349127 C53.7909447,69.9966052 52.7332435,67.9496797 48.9726061,67.9496797 C45.213109,67.9496797 44.0379536,69.8721487 40.9242349,69.9966945 C37.6929744,70.1212403 35.2323147,66.7030612 33.1678763,63.668251 C28.9492643,57.4606036 25.725372,46.1269374 30.0542454,38.476523 C32.2047349,34.6772963 36.0478271,32.2714647 40.2191593,32.2097721 C43.3921752,32.1481688 46.3870363,34.3824933 48.3268276,34.3824933 C50.265391,34.3824933 53.9048024,31.6955185 57.7308774,32.0901367 C59.3326044,32.1579896 63.8287555,32.748667 66.7157237,37.0498265 C66.4830961,37.1966031 61.3509909,40.2374843 61.4067794,46.5634279 M55.2248676,27.9832507 C56.9403646,25.8697222 58.0949939,22.9274955 57.7799993,20 C55.3072346,20.1011544 52.3171103,21.6771273 50.5434564,23.7894951 C48.9539222,25.6600924 47.5618407,28.6541016 47.9374483,31.5236543 C50.6936293,31.7406943 53.5092829,30.0981184 55.2248676,27.9832507" id="path-1"></path>
    </defs>
    <g id="Symbols" stroke="none" stroke-width="1" fill="none" fill-rule="evenodd">
        <g id="item/logo/apple">
            <mask id="mask-2" fill="white">
                <use xlink:href="#path-1"></use>
            </mask>
            <use id="Shape" fill="#76729C" fill-rule="nonzero" xlink:href="#path-1"></use>
        </g>
    </g>
</svg>