<?xml version="1.0" encoding="UTF-8"?>
<svg width="48px" height="48px" viewBox="0 0 48 48" version="1.1" xmlns="http://www.w3.org/2000/svg" xmlns:xlink="http://www.w3.org/1999/xlink">
    <!-- Generator: Sketch 49.3 (51167) - http://www.bohemiancoding.com/sketch -->
    <title>edit-icon-48</title>
    <desc>Created with Sketch.</desc>
    <defs></defs>
    <g id="edit-icon-48" stroke="none" stroke-width="1" fill="none" fill-rule="evenodd">
        <path d="M32.6111111,13.3595084 L25.7458602,17.6911252 C25.6223916,17.7690275 25.321518,17.9689822 24.8432393,18.2909892 C24.4936429,18.5025669 24.2054705,18.7083155 23.978722,18.9082351 C23.7828327,19.0809469 23.5157876,19.3741218 23.2089736,19.7432397 L14.5597961,19.7432397 L14.5597961,21.8300148 L21.6205168,21.8300148 C20.7535399,23.0455506 19.9381761,24.3044952 19.6322882,24.9573998 C19.584962,25.0595132 19.5437784,25.1561493 19.5083345,25.2523259 L14.5597961,25.2523259 L14.5597961,27.3391009 L19.7964561,27.3391009 C20.1424879,27.7810834 20.5350703,27.9512295 20.9926591,28.0441218 C21.1767157,28.081486 21.3563272,28.097042 21.5531019,28.1008916 C21.8165096,28.1060448 22.1272966,28.0889049 22.4972876,28.0532313 C23.113717,27.9937967 23.9140357,27.8796923 24.7965427,27.7290465 C25.5124682,27.6068365 26.2183348,27.4727697 26.8501836,27.3391009 L27.0507562,27.3391009 L27.0507562,27.2961418 C27.9091472,27.1099622 28.6101088,26.9271148 28.9799352,26.7808826 C29.2738267,26.6646756 29.6320484,26.4821554 30.0546002,26.2333218 C30.4586844,25.9662577 30.7318325,25.7878539 30.8740447,25.6981105 L32.6111111,24.6019292 L32.6111111,31.773498 L24.9774982,39 L12.0852984,39 C10.384221,39 9,37.7077645 9,36.1197287 L9,11.8802713 C9,10.2922355 10.384221,9 12.0852984,9 L29.5258127,9 C31.2268901,9 32.6111111,10.2922355 32.6111111,11.8802713 L32.6111111,13.3595084 Z M24.6881794,37.125 L30.6304046,31.5 L24.6881794,31.5 L24.6881794,37.125 Z M14.5597961,14.2341536 L14.5597961,16.3209286 L27.0507562,16.3209286 L27.0507562,14.2341536 L14.5597961,14.2341536 Z M42.3836257,16.2036214 L40.7996549,17.201354 L37.687792,12.3902733 L39.269748,11.3912054 C39.8207965,11.0443857 40.4890395,11.1054714 40.7627168,11.5297331 L42.8819536,14.806996 C43.1579815,15.2315915 42.9329952,15.8554664 42.3836257,16.2036214 Z M26.7537931,19.2886146 L36.282467,13.2765162 L39.3946657,18.0875969 L29.8659918,24.1006968 C27.9274157,24.4208124 25.5925951,20.7817087 26.7537931,19.2886146 Z M21.3460624,25.7516789 C21.8457335,24.6851832 24.4347551,21.0243823 25.2279158,20.3250682 C24.3071509,21.8468692 26.4314246,25.147832 28.285379,25.0243255 C27.258837,25.4302281 21.5022096,26.4927182 21.2611049,26.1435618 C21.2201372,26.084479 21.2456581,25.9683161 21.3460624,25.7516789 Z" id="Combined-Shape" fill="#FFFFFF" fill-rule="nonzero"></path>
    </g>
</svg>