<?xml version="1.0" encoding="UTF-8"?>
<svg width="24px" height="24px" viewBox="0 0 24 24" version="1.1" xmlns="http://www.w3.org/2000/svg" xmlns:xlink="http://www.w3.org/1999/xlink">
    <!-- Generator: Sketch 49.3 (51167) - http://www.bohemiancoding.com/sketch -->
    <title>edit-icon-24</title>
    <desc>Created with Sketch.</desc>
    <defs></defs>
    <g id="edit-icon-24" stroke="none" stroke-width="1" fill="none" fill-rule="evenodd">
        <path d="M17.8888889,5.61570503 L13.850506,8.21467512 C13.7778774,8.26141649 13.6008929,8.38138929 13.3195525,8.57459354 C13.1139076,8.70154011 12.9443944,8.82498929 12.8110129,8.94494106 C12.6957839,9.04856812 12.5386986,9.22447306 12.3582197,9.44594383 L7.27046829,9.44594383 L7.27046829,10.6980089 L11.4238334,10.6980089 C10.913847,11.4273304 10.4342213,12.1826971 10.2542872,12.5744399 C10.2264482,12.6357079 10.2022226,12.6936896 10.1813732,12.7513955 L7.27046829,12.7513955 L7.27046829,14.0034606 L10.3508565,14.0034606 C10.5544047,14.2686501 10.7853355,14.3707377 11.0545054,14.4264731 C11.1627739,14.4488916 11.2684278,14.4582252 11.3841776,14.4605349 C11.5391233,14.4636269 11.7219392,14.453343 11.939581,14.4319388 C12.3021865,14.396278 12.7729622,14.3278154 13.2920839,14.2374279 C13.7132166,14.1641019 14.1284323,14.0836618 14.500108,14.0034606 L14.6180919,14.0034606 L14.6180919,13.9776851 C15.1230278,13.8659773 15.5353581,13.7562689 15.752903,13.6685296 C15.9257804,13.5988054 16.1364991,13.4892932 16.385059,13.3399931 C16.6227555,13.1797546 16.7834309,13.0727124 16.8670851,13.0188663 L17.8888889,12.3611575 L17.8888889,16.6640988 L13.3985284,21 L5.81488144,21 C4.81424766,21 4,20.2246587 4,19.2718372 L4,4.72816277 C4,3.77534127 4.81424766,3 5.81488144,3 L16.0740075,3 C17.0746412,3 17.8888889,3.77534127 17.8888889,4.72816277 L17.8888889,5.61570503 Z M13.2283408,19.875 L16.7237674,16.5 L13.2283408,16.5 L13.2283408,19.875 Z M7.27046829,6.14049213 L7.27046829,7.39255717 L14.6180919,7.39255717 L14.6180919,6.14049213 L7.27046829,6.14049213 Z M23.6374269,7.32217283 L22.7056793,7.9208124 L20.8751718,5.03416396 L21.8057341,4.43472327 C22.1298803,4.22663142 22.5229644,4.26328283 22.6839511,4.51783983 L23.9305609,6.48419759 C24.0929303,6.73895488 23.9605854,7.11327986 23.6374269,7.32217283 Z M14.4434077,9.17316879 L20.04851,5.56590972 L21.8792151,8.45255816 L16.2741128,12.0604181 C15.1337739,12.2524874 13.76035,10.0690252 14.4434077,9.17316879 Z M11.2623897,13.0510073 C11.5563138,12.4111099 13.0792677,10.2146294 13.5458328,9.79504095 C13.0042064,10.7081215 14.2537792,12.6886992 15.3443406,12.6145953 C14.7404923,12.8581368 11.354241,13.4956309 11.2124146,13.2861371 C11.188316,13.2506874 11.2033283,13.1809896 11.2623897,13.0510073 Z" id="Combined-Shape" fill="#FFFFFF" fill-rule="nonzero"></path>
    </g>
</svg>