<?xml version="1.0" encoding="UTF-8"?>
<svg width="96px" height="96px" viewBox="-12 -12 120 120" version="1.1" xmlns="http://www.w3.org/2000/svg" xmlns:xlink="http://www.w3.org/1999/xlink">
    <!-- Generator: Sketch 49.1 (51147) - http://www.bohemiancoding.com/sketch -->
    <title>item/logo/hubx-logo</title>
    <desc>Created with Sketch.</desc>
    <defs></defs>
    <g id="item/logo/hubx-logo" stroke="none" stroke-width="1" fill="none" fill-rule="evenodd">
        <path d="M40,31 C40,35.418278 43.581722,39 48,39 C52.9705627,39 57,43.0294373 57,48 C57,52.418278 60.581722,56 65,56 C69.9705627,56 74,60.0294373 74,65 C74,69.9705627 69.9705627,74 65,74 C60.0294373,74 56,69.9705627 56,65 C56,60.581722 52.418278,57 48,57 C43.0294373,57 39,52.9705627 39,48 C39,43.581722 35.418278,40 31,40 C26.0294373,40 22,35.9705627 22,31 C22,26.0294373 26.0294373,22 31,22 C35.9705627,22 40,26.0294373 40,31 Z M65,40 C60.0294373,40 56,35.9705627 56,31 C56,26.0294373 60.0294373,22 65,22 C69.9705627,22 74,26.0294373 74,31 C74,35.9705627 69.9705627,40 65,40 Z M31,74 C26.0294373,74 22,69.9705627 22,65 C22,60.0294373 26.0294373,56 31,56 C35.9705627,56 40,60.0294373 40,65 C40,69.9705627 35.9705627,74 31,74 Z" id="Combined-Shape" fill="#FFFFFF"></path>
    </g>
</svg>