<?xml version="1.0" encoding="UTF-8" standalone="no"?>
<!-- Created with Inkscape (http://www.inkscape.org/) -->

<svg
   xmlns:dc="http://purl.org/dc/elements/1.1/"
   xmlns:cc="http://creativecommons.org/ns#"
   xmlns:rdf="http://www.w3.org/1999/02/22-rdf-syntax-ns#"
   xmlns:svg="http://www.w3.org/2000/svg"
   xmlns="http://www.w3.org/2000/svg"
   xmlns:sodipodi="http://sodipodi.sourceforge.net/DTD/sodipodi-0.dtd"
   xmlns:inkscape="http://www.inkscape.org/namespaces/inkscape"
   version="1.1"
   id="svg3713"
   width="100%"
   height="100%"
   viewBox="0 0 82 26"
   sodipodi:docname="lenovoPngNew.svg"
   inkscape:version="0.92.3 (2405546, 2018-03-11)">
  <metadata
     id="metadata3719">
    <rdf:RDF>
      <cc:Work
         rdf:about="">
        <dc:format>image/svg+xml</dc:format>
        <dc:type
           rdf:resource="http://purl.org/dc/dcmitype/StillImage" />
        <dc:title></dc:title>
      </cc:Work>
    </rdf:RDF>
  </metadata>
  <defs
     id="defs3717" />
  <sodipodi:namedview
     pagecolor="#ffffff"
     bordercolor="#666666"
     borderopacity="1"
     objecttolerance="10"
     gridtolerance="10"
     guidetolerance="10"
     inkscape:pageopacity="0"
     inkscape:pageshadow="2"
     inkscape:window-width="1920"
     inkscape:window-height="1017"
     id="namedview3715"
     showgrid="false"
     inkscape:zoom="4.3109756"
     inkscape:cx="26.212164"
     inkscape:cy="13"
     inkscape:window-x="-8"
     inkscape:window-y="-8"
     inkscape:window-maximized="1"
     inkscape:current-layer="svg3713" />
  <path
     style="fill:#000000"
     d=""
     id="path3725"
     inkscape:connector-curvature="0" />
  <path
     style="fill:#ffffff;stroke-width:0.23656595"
     d="M -0.39434236,13.178608 V -0.77878381 H 41.359547 83.113437 V 13.178608 27.135998 H 41.359547 -0.39434236 Z M 25.717687,19.319671 c 1.287886,-0.48186 2.51245,-1.276956 2.51245,-1.631308 0,-0.102972 -0.429901,-0.485144 -0.955338,-0.849271 l -0.955339,-0.66205 -0.910255,0.511593 c -0.562294,0.316027 -1.321611,0.511594 -1.986336,0.511594 -1.220287,0 -2.47558,-0.396043 -2.150808,-0.678576 0.118771,-0.103324 1.706312,-0.80075 3.527871,-1.549837 1.821557,-0.749087 3.399513,-1.445463 3.506569,-1.547501 0.337962,-0.322124 -0.303088,-2.110564 -1.069325,-2.983259 -1.154532,-1.3149386 -2.395008,-1.8454725 -4.33628,-1.8545602 -1.426761,-0.00673 -1.84602,0.095466 -2.957074,0.7204395 -3.184934,1.7915397 -3.833973,6.1943567 -1.288394,8.7399357 1.722269,1.72227 4.51547,2.225675 7.062259,1.2728 z m 23.579972,0.123294 c 1.505734,-0.531254 2.464875,-1.368733 3.156032,-2.755701 1.606986,-3.224803 -0.0295,-6.8794161 -3.537116,-7.8991071 -4.996312,-1.4524684 -9.242508,3.5848451 -6.862035,8.1405171 1.211114,2.317789 4.532382,3.470694 7.243119,2.514291 z m 23.811939,-0.498186 c 1.528826,-0.945201 2.493902,-2.541411 2.624004,-4.340024 0.125067,-1.72905 -0.251648,-2.886827 -1.326378,-4.076425 -1.281613,-1.4185921 -2.460474,-1.9340509 -4.423197,-1.9340509 -3.420983,0 -5.795866,2.2654379 -5.795866,5.5287669 0,2.401016 1.067405,4.122302 3.183972,5.134435 1.700247,0.81305 4.130875,0.680576 5.737465,-0.312702 z M 16.874972,18.146492 V 16.727097 H 13.563049 10.251125 V 11.049514 5.3719313 H 8.7134466 7.1757679 v 7.0969787 7.096978 h 4.8496021 4.849602 z m 15.613352,-2.029007 v -3.448404 l 0.720995,-0.720993 c 0.650535,-0.650537 0.828934,-0.708827 1.825579,-0.59649 0.806051,0.09086 1.250553,0.294199 1.644665,0.752382 0.50849,0.591153 0.54008,0.82775 0.54008,4.044894 v 3.417014 h 1.537679 1.537679 v -3.910936 c 0,-4.346829 -0.160969,-5.047919 -1.397984,-6.0887983 -1.537334,-1.293581 -4.029972,-1.3610509 -5.723813,-0.1549296 l -0.68488,0.4876778 V 9.2913778 c 0,-0.5900104 -0.04432,-0.607524 -1.537678,-0.607524 h -1.537678 v 5.4410172 5.441017 h 1.537678 1.537678 z m 30.008911,-1.815189 c 1.190431,-2.894976 2.164337,-5.3434338 2.164238,-5.4410172 -1e-4,-0.097588 -0.782274,-0.177425 -1.738165,-0.177425 h -1.73799 l -1.252732,3.4893482 c -0.689006,1.919142 -1.274722,3.517606 -1.301595,3.552143 -0.02687,0.03454 -0.623849,-1.534801 -1.326607,-3.487417 l -1.277747,-3.5502111 -1.715104,-0.00194 c -1.032067,-0.00112 -1.715103,0.09615 -1.715103,0.2443574 0,0.1354589 0.864226,2.3439557 1.920499,4.9077717 1.056274,2.563815 2.011731,4.901443 2.123238,5.194728 0.185069,0.486773 0.35484,0.533254 1.947693,0.533254 h 1.744956 z"
     id="path3798"
     inkscape:connector-curvature="0" />
  <path
     style="fill:#ffffff;stroke-width:0.23656595"
     d="m 20.18778,13.736191 c 0.0021,-1.598709 1.572705,-2.887925 3.156335,-2.590835 0.884617,0.165955 1.788725,0.980144 1.438398,1.295339 -0.176581,0.158874 -2.568412,1.19345 -4.258527,1.842008 -0.243372,0.0934 -0.336844,-0.05855 -0.336206,-0.546512 z"
     id="path3800"
     inkscape:connector-curvature="0" />
  <path
     style="fill:#ffffff;stroke-width:0.23656595"
     d="m 46.307368,16.863971 c -1.169785,-0.509325 -1.75418,-1.440349 -1.75418,-2.794659 0,-1.02038 0.105595,-1.280178 0.804324,-1.978908 0.906431,-0.906432 2.023037,-1.067051 3.197145,-0.459896 0.75661,0.391258 1.439975,1.649246 1.438663,2.648398 -0.0013,0.978309 -0.83154,2.188202 -1.770942,2.580709 -0.974875,0.407329 -0.98941,0.407362 -1.91501,0.0044 z"
     id="path3802"
     inkscape:connector-curvature="0" />
  <path
     style="fill:#ffffff;stroke-width:0.23656595"
     d="m 69.0177,16.86934 c -1.172569,-0.519163 -1.754181,-1.447535 -1.754181,-2.800028 0,-1.02038 0.105595,-1.280178 0.804324,-1.978908 0.620877,-0.620877 1.001242,-0.804324 1.66771,-0.804324 1.740268,0 2.97303,1.199792 2.965495,2.886185 -0.009,2.009881 -1.978396,3.451955 -3.683348,2.697075 z"
     id="path3804"
     inkscape:connector-curvature="0" />
</svg>
