<?xml version="1.0" encoding="UTF-8"?>
<svg width="24px" height="24px" viewBox="0 0 24 24" version="1.1" xmlns="http://www.w3.org/2000/svg" xmlns:xlink="http://www.w3.org/1999/xlink">
    <!-- Generator: Sketch 47.1 (45422) - http://www.bohemiancoding.com/sketch -->
    <title>pdf</title>
    <desc>Created with Sketch.</desc>
    <defs></defs>
    <g id="UI-Kit" stroke="none" stroke-width="1" fill="none" fill-rule="evenodd">
        <g id="pdf" fill-rule="nonzero" fill="#493B8D">
            <path d="M6.2,7.40072439 L6.2,18.8057319 C6.2,19.3535043 6.64734438,19.8 7.1992278,19.8 L16.8007722,19.8 C17.3534802,19.8 17.8,19.3549129 17.8,18.8061373 L17.8,5.19386269 C17.8,4.64441994 17.3540487,4.2 16.8017313,4.2 L9.42181973,4.2 C9.18647529,4.2 8.94659386,4.29782269 8.78058923,4.46300143 L6.46390224,6.76816262 C6.29821767,6.9330229 6.2,7.16838709 6.2,7.40072439 Z M11.2,6.1488838 C11.2,5.90667422 11.3961526,5.71044776 11.638516,5.71044776 L15.841484,5.71044776 C16.0837981,5.71044776 16.28,5.90540364 16.28,6.14826906 L16.28,17.8517309 C16.28,18.0935208 16.0813048,18.2895522 15.8402059,18.2895522 L8.1597941,18.2895522 C7.91744404,18.2895522 7.72,18.0934885 7.72,17.8518885 L7.72,9.61079802 C7.72,9.3686273 7.9168805,9.17313433 8.15962822,9.17313433 L10.1994064,9.17313433 C10.7517454,9.17313433 11.2,8.72645084 11.2,8.17851384 L11.2,6.1488838 Z M8.39778672,7.78208955 C8.08581157,7.78208955 7.97139195,7.48761925 8.18977345,7.27032423 L9.28809006,6.17747188 C9.50672959,5.95992011 9.8,6.07635982 9.8,6.38585743 L9.8,7.34548585 C9.8,7.586465 9.60238457,7.78208955 9.36221328,7.78208955 L8.39778672,7.78208955 Z M13.7685057,11.6081017 L10.6527961,11.5987757 C10.1827237,11.599611 9.89329656,11.9234889 9.89252324,12.3543606 C9.89175084,12.7847195 10.1792007,13.1066563 10.6475086,13.1058274 C11.2363467,13.101383 11.4198115,13.5434189 11.0116742,13.9495258 L9.76655157,15.1884537 C9.47060826,15.4829247 9.47130904,15.9597173 9.76923719,16.2561632 L9.4871007,16.5397104 L9.76131083,16.2482763 C10.0592366,16.5447199 10.5409438,16.5457182 10.8371873,16.2509486 L12.0823099,15.0120206 C12.4898321,14.6065259 12.9322498,14.7894005 12.9277422,15.3630509 C12.9268124,15.8405185 13.2504487,16.1266177 13.683873,16.1258475 C14.1178064,16.1250764 14.4433928,15.8370103 14.4442385,15.372537 L14.4156241,12.247439 C14.4124066,11.8960368 14.1224174,11.6091608 13.7685057,11.6081017 Z" id="Shape"></path>
        </g>
    </g>
</svg>