<?xml version="1.0" encoding="UTF-8"?>
<svg width="24px" height="24px" viewBox="0 0 24 24" version="1.1" xmlns="http://www.w3.org/2000/svg" xmlns:xlink="http://www.w3.org/1999/xlink">
    <!-- Generator: Sketch 50 (54983) - http://www.bohemiancoding.com/sketch -->
    <title>price-list</title>
    <desc>Created with Sketch.</desc>
    <defs></defs>
    <g id="price-list" stroke="none" stroke-width="1" fill="none" fill-rule="evenodd" opacity="0.5">
        <path d="M14.1504106,2 L19,6.81766803 L19,20.0798191 C19,21.1385097 18.1206125,22 17.039928,22 L5.96007195,22 C4.87938747,22 4,21.1385097 4,20.0798191 L4,3.92018085 C4,2.86149031 4.87938747,2 5.96007195,2 L14.1504106,2 Z M16.5922463,6.40726893 L14.5633003,4.39179202 L14.5633003,6.40726893 L16.5922463,6.40726893 Z M7.53210575,18.5105643 L15.4675392,18.5105643 L15.4675392,17.1193809 L7.53210575,17.1193809 L7.53210575,18.5105643 Z M7.53210575,14.8378402 L15.4675392,14.8378402 L15.4675392,13.4466568 L7.53210575,13.4466568 L7.53210575,14.8378402 Z M7.53210575,11.1651161 L15.4675392,11.1651161 L15.4675392,9.7739327 L7.53210575,9.7739327 L7.53210575,11.1651161 Z" id="Shape" fill="#FFFFFF" fill-rule="nonzero"></path>
    </g>
</svg>