<?xml version="1.0" encoding="UTF-8"?>
<svg width="50px" height="50px" viewBox="0 0 50 50" version="1.1" xmlns="http://www.w3.org/2000/svg" xmlns:xlink="http://www.w3.org/1999/xlink">
    <!-- Generator: Sketch 45.2 (43514) - http://www.bohemiancoding.com/sketch -->
    <title>spinner_50px</title>
    <desc>Created with Sketch.</desc>
    <defs></defs>
    <g id="Page-1" stroke="none" stroke-width="1" fill="none" fill-rule="evenodd">
        <g id="spinner_50px" fill-rule="nonzero">
            <path d="M37.1152275,29.4965797 L45.8587532,34.5446566 L45.8587532,34.5446566 C46.8935209,35.14208 47.2480585,36.4652323 46.6506351,37.5 C46.0532117,38.5347677 44.7300594,38.8893053 43.6952917,38.2918819 L34.951766,33.243805 C33.9169983,32.6463816 33.5624607,31.3232292 34.1598841,30.2884615 C34.7573075,29.2536938 36.0804598,28.8991562 37.1152275,29.4965797 Z M33.243805,34.951766 L38.2918819,43.6952917 C38.8893053,44.7300594 38.5347677,46.0532117 37.5,46.6506351 C36.4652323,47.2480585 35.14208,46.8935209 34.5446566,45.8587532 L29.4965797,37.1152275 L29.4965797,37.1152275 C28.8991562,36.0804598 29.2536938,34.7573075 30.2884615,34.1598841 C31.3232292,33.5624607 32.6463816,33.9169983 33.243805,34.951766 Z M27.1634615,37.7403846 L27.1634615,47.8365385 L27.1634615,47.8365385 C27.1634615,49.0313853 26.1948468,50 25,50 C23.8051532,50 22.8365385,49.0313853 22.8365385,47.8365385 L22.8365385,37.7403846 C22.8365385,36.5455378 23.8051532,35.5769231 25,35.5769231 L25,35.5769231 L25,35.5769231 C26.1948468,35.5769231 27.1634615,36.5455378 27.1634615,37.7403846 Z M20.5034203,37.1152275 L15.4553434,45.8587532 L15.4553434,45.8587532 C14.85792,46.8935209 13.5347677,47.2480585 12.5,46.6506351 L12.5,46.6506351 C11.4652323,46.0532117 11.1106947,44.7300594 11.7081181,43.6952917 L16.756195,34.951766 C17.3536184,33.9169983 18.6767708,33.5624607 19.7115385,34.1598841 L19.7115385,34.1598841 L19.7115385,34.1598841 C20.7463062,34.7573075 21.1008438,36.0804598 20.5034203,37.1152275 Z M15.048234,33.243805 L6.30470833,38.2918819 L6.30470833,38.2918819 C5.26994063,38.8893053 3.94678831,38.5347677 3.34936491,37.5 C2.7519415,36.4652323 3.10647909,35.14208 4.14124679,34.5446566 L12.8847725,29.4965797 C13.9195402,28.8991562 15.2426925,29.2536938 15.8401159,30.2884615 L15.8401159,30.2884615 L15.8401159,30.2884615 C16.4375393,31.3232292 16.0830017,32.6463816 15.048234,33.243805 Z M12.2596154,27.1634615 L2.16346154,27.1634615 L2.16346154,27.1634615 C0.968614724,27.1634615 1.77635684e-15,26.1948468 0,25 L0,25 C0,23.8051532 0.968614724,22.8365385 2.16346154,22.8365385 L12.2596154,22.8365385 C13.4544622,22.8365385 14.4230769,23.8051532 14.4230769,25 L14.4230769,25 L14.4230769,25 C14.4230769,26.1948468 13.4544622,27.1634615 12.2596154,27.1634615 Z M12.8847725,20.5034203 L4.14124679,15.4553434 L4.14124679,15.4553434 C3.10647909,14.85792 2.7519415,13.5347677 3.34936491,12.5 L3.34936491,12.5 C3.94678831,11.4652323 5.26994063,11.1106947 6.30470833,11.7081181 L15.048234,16.756195 L15.048234,16.756195 C16.0830017,17.3536184 16.4375393,18.6767708 15.8401159,19.7115385 C15.2426925,20.7463062 13.9195402,21.1008438 12.8847725,20.5034203 Z M16.756195,15.048234 L11.7081181,6.30470833 L11.7081181,6.30470833 C11.1106947,5.26994063 11.4652323,3.94678831 12.5,3.34936491 L12.5,3.34936491 C13.5347677,2.7519415 14.85792,3.10647909 15.4553434,4.14124679 L20.5034203,12.8847725 L20.5034203,12.8847725 C21.1008438,13.9195402 20.7463062,15.2426925 19.7115385,15.8401159 C18.6767708,16.4375393 17.3536184,16.0830017 16.756195,15.048234 Z M22.8365385,12.2596154 L22.8365385,2.16346154 L22.8365385,2.16346154 C22.8365385,0.968614724 23.8051532,1.77635684e-15 25,0 L25,0 C26.1948468,0 27.1634615,0.968614724 27.1634615,2.16346154 L27.1634615,12.2596154 C27.1634615,13.4544622 26.1948468,14.4230769 25,14.4230769 L25,14.4230769 L25,14.4230769 C23.8051532,14.4230769 22.8365385,13.4544622 22.8365385,12.2596154 Z M29.4965797,12.8847725 L34.5446566,4.14124679 L34.5446566,4.14124679 C35.14208,3.10647909 36.4652323,2.7519415 37.5,3.34936491 C38.5347677,3.94678831 38.8893053,5.26994063 38.2918819,6.30470833 L33.243805,15.048234 L33.243805,15.048234 C32.6463816,16.0830017 31.3232292,16.4375393 30.2884615,15.8401159 C29.2536938,15.2426925 28.8991562,13.9195402 29.4965797,12.8847725 Z" id="Rectangle" fill="#D8D8D8"></path>
            <rect id="Rectangle-Copy" fill="#868686" x="35.5769231" y="22.8365385" width="14.4230769" height="4.32692308" rx="2.16346154"></rect>
            <rect id="Rectangle-Copy-2" fill="#BCBCBC" transform="translate(40.405260, 16.105769) rotate(-30.000000) translate(-40.405260, -16.105769) " x="33.1937211" y="13.9423077" width="14.4230769" height="4.32692308" rx="2.16346154"></rect>
        </g>
    </g>
</svg>