<?xml version="1.0" encoding="UTF-8"?>
<svg width="24px" height="24px" viewBox="0 0 24 24" version="1.1" xmlns="http://www.w3.org/2000/svg" xmlns:xlink="http://www.w3.org/1999/xlink">
    <!-- Generator: Sketch 50.2 (55047) - http://www.bohemiancoding.com/sketch -->
    <title>split-24</title>
    <desc>Created with Sketch.</desc>
    <defs></defs>
    <g id="split-24" stroke="none" stroke-width="1" fill="none" fill-rule="evenodd">
        <path d="M11.9994049,5.00002386 C12.0411673,4.99951753 12.0826287,5.00707554 12.1214675,5.02227468 L20.79434,8.91616821 C20.9096546,8.96595063 20.9849852,9.07776849 20.9870705,9.20225019 C20.9899283,9.32869209 20.9167661,9.44478097 20.8007644,9.49786823 L12.1278919,13.665129 C12.0441293,13.7023893 11.9482561,13.7023893 11.8644935,13.665129 L3.19162107,9.49468954 C3.07515659,9.44387184 3,9.3297962 3,9.20383953 C3,9.07788286 3.07515659,8.96380722 3.19162107,8.91298952 L11.8644935,5.02545336 C11.9073504,5.00832669 11.9531866,4.99968702 11.9994049,5.00002386 Z M6.94344145,12.5320316 L11.5914587,14.7571136 C11.8500062,14.8766654 12.1488036,14.8766654 12.4073511,14.7571136 L17.0553683,12.5320316 L20.8071887,14.223094 C20.9225033,14.2728764 20.9978339,14.3846942 20.9999192,14.5091759 C21.002777,14.6356178 20.9296148,14.7517067 20.8136131,14.804794 L12.1407406,18.9720547 C12.056978,19.0093151 11.9611048,19.0093151 11.8773422,18.9720547 L3.20446977,14.8016153 C3.08800529,14.7507976 3.0128487,14.6367219 3.0128487,14.5107653 C3.0128487,14.3848086 3.08800529,14.270733 3.20446977,14.2199153 L6.94344145,12.5320316 Z" id="Combined-Shape" fill="#493B8D" fill-rule="nonzero"></path>
    </g>
</svg>