<?xml version="1.0" encoding="UTF-8"?>
<svg width="24px" height="24px" viewBox="0 0 24 24" version="1.1" xmlns="http://www.w3.org/2000/svg" xmlns:xlink="http://www.w3.org/1999/xlink">
    <!-- Generator: Sketch 48.1 (47250) - http://www.bohemiancoding.com/sketch -->
    <title>todays-specials</title>
    <desc>Created with Sketch.</desc>
    <defs></defs>
    <g id="Approved" stroke="none" stroke-width="1" fill="none" fill-rule="evenodd">
        <g id="todays-specials" fill="#FFFFFF" fill-rule="nonzero">
            <path d="M18.4325852,8.86061294 C18.3284899,8.6631101 18.1202993,8.53916005 17.8930555,8.53916005 L13.2982242,8.53916005 L16.6903831,2.89307605 C16.8005197,2.70964813 16.8016814,2.48286039 16.6936361,2.29829739 C16.5855908,2.11373439 16.3846032,2 16.166886,2 L9.32122627,2 C9.06029097,2 8.82840011,2.16299659 8.74568153,2.40499432 L5.53127459,11.7938706 C5.46946801,11.9748014 5.5003713,12.1736663 5.61422553,12.3284904 C5.72831211,12.4833144 5.91164066,12.5750284 6.10681934,12.5750284 L10.9514329,12.5750284 L8.35183884,21.2401816 C8.26842319,21.5180477 8.40249235,21.8138479 8.66900419,21.9402951 C8.75404633,21.9807037 8.84443264,22 8.93388954,22 C9.12488582,22 9.31123498,21.9116913 9.42834219,21.7511918 L18.3870435,9.47627696 C18.5192538,9.29557321 18.5366805,9.05811578 18.4325852,8.86061294 Z" id="Shape"></path>
        </g>
    </g>
</svg>