<?xml version="1.0" encoding="UTF-8"?>
<svg width="24px" height="24px" viewBox="0 0 24 24" version="1.1" xmlns="http://www.w3.org/2000/svg" xmlns:xlink="http://www.w3.org/1999/xlink">
    <!-- Generator: Sketch 48.1 (47250) - http://www.bohemiancoding.com/sketch -->
    <title>category/accessories</title>
    <desc>Created with Sketch.</desc>
    <defs></defs>
    <g id="UI-Kit" stroke="none" stroke-width="1" fill="none" fill-rule="evenodd">
        <g id="category/accessories" fill="#FFFFFF" fill-rule="nonzero">
            <path d="M21.2069773,1 C22.1962062,1 23,1.80416997 23,2.79268936 L23,21.2069477 C23,21.6816112 22.8116619,22.1098245 22.5101031,22.4309844 L22.5101031,22.4349762 L22.5068371,22.4349762 C22.1798763,22.7808129 21.7197361,23 21.2069773,23 L2.79265979,23 C1.8041567,23 1,22.1965558 1,21.2076735 L1,2.79268936 C1,1.80416997 1.8041567,1 2.79265979,1 L21.2069773,1 Z M18.0378887,4.66884402 C17.3193732,4.66884402 16.6763381,5.15040248 16.4742103,5.84026128 C16.4727588,5.84497889 16.4702186,5.84860781 16.468767,5.85332542 C16.4622351,5.8736474 16.4538887,5.89288071 16.4448165,5.9128398 C16.4375588,5.92844418 16.4306639,5.94404856 16.4219546,5.95892716 C16.4186887,5.96437055 16.4172371,5.97017683 16.4139711,5.97562022 C16.4081649,5.98469253 16.4009072,5.99158749 16.3947381,6.00029691 C16.3827629,6.01735286 16.3707876,6.03368303 16.3569979,6.04892452 C16.3475629,6.0598113 16.3366763,6.06997229 16.3265155,6.07977039 C16.3109113,6.09464898 16.2949443,6.10880179 16.2778887,6.12150304 C16.2673649,6.12912378 16.2564784,6.13638163 16.2459546,6.14327659 C16.2263588,6.15597783 16.2064,6.1672275 16.1853526,6.17738849 C16.1762804,6.1817432 16.1668454,6.18573502 16.1574103,6.18936395 C16.1338227,6.19916205 16.1091464,6.20750858 16.0844701,6.21367775 C16.0768495,6.21549221 16.0692289,6.21694378 16.0616082,6.21839535 C16.0347546,6.22420164 16.0075381,6.22783056 15.979233,6.22928213 C15.9723381,6.22964503 15.9654433,6.22928213 15.9581856,6.22964503 C15.9306062,6.22964503 15.9030268,6.22855635 15.8750845,6.22420164 C15.8674639,6.22311296 15.8594804,6.2212985 15.8518598,6.21984693 C15.8340784,6.21658089 15.8166598,6.21512932 15.7992412,6.21004883 C15.7890804,6.20714568 15.7796454,6.2017023 15.7698474,6.19807337 C15.7636784,6.19589601 15.7578722,6.19299287 15.7517031,6.19081552 C15.7219464,6.17884006 15.6936412,6.16505015 15.6671505,6.14871998 C15.6660619,6.14835709 15.6649732,6.14799419 15.6638845,6.14726841 C14.5676041,5.45958696 13.3000412,5.09633149 11.9994557,5.09633149 C10.7017732,5.09633149 9.43783918,5.45849828 8.34409897,6.1425508 C8.2998268,6.17158221 8.25265155,6.1966218 8.19894433,6.21222618 C8.00842887,6.26702296 7.81428454,6.21258907 7.67892784,6.08811692 C7.67566186,6.08521378 7.67275876,6.08158485 7.66949278,6.07868171 C7.64155052,6.05146477 7.61651134,6.02134468 7.59473814,5.98795856 C7.59183505,5.98360385 7.58748041,5.98033782 7.58494021,5.97598311 C7.5824,5.97199129 7.58131134,5.96799947 7.57877113,5.96400765 C7.56824742,5.94586302 7.55917526,5.92662972 7.55046598,5.90703352 C7.54320825,5.89070335 7.53595052,5.87437319 7.53050722,5.85731723 C7.52869278,5.85187385 7.52578969,5.84715624 7.52397526,5.84134996 C7.32329897,5.15112827 6.6806268,4.66920691 5.96065979,4.66920691 C5.06287835,4.66920691 4.33275052,5.39934679 4.33275052,6.29714305 C4.33275052,7.05994326 4.85095258,7.71206123 5.59269278,7.88370942 C5.5977732,7.8847981 5.60212784,7.88733835 5.60757113,7.88878992 C5.62789278,7.89423331 5.64785155,7.90149116 5.66781031,7.9091119 C5.68341443,7.91528108 5.69901856,7.92145025 5.71389691,7.92907099 C5.72006598,7.93233703 5.72659794,7.9337886 5.73240412,7.93705463 C5.74256495,7.94249802 5.75054845,7.95011876 5.75998351,7.95592505 C5.77558763,7.96572315 5.79082887,7.97588414 5.80534433,7.98713381 C5.81985979,7.99838348 5.83292371,8.01035893 5.84598763,8.02306017 C5.85832577,8.03503563 5.86993814,8.04664819 5.88118763,8.05971233 C5.89316289,8.07350224 5.90404948,8.08801795 5.91421031,8.10289654 C5.92400825,8.11704935 5.9334433,8.13083927 5.94178969,8.14571787 C5.95013608,8.16059646 5.95739381,8.17583795 5.96465155,8.19144233 C5.97227216,8.20813539 5.97916701,8.22519134 5.98533608,8.24297308 C5.99005361,8.25785168 5.99404536,8.27273027 5.99767423,8.28797176 C6.00239175,8.30720507 6.00602062,8.32643837 6.00856082,8.34639747 C6.01037526,8.36163895 6.01110103,8.37651755 6.0118268,8.39175904 C6.01255258,8.41135524 6.01255258,8.43095144 6.01146392,8.45127342 C6.01037526,8.46760359 6.00783505,8.48357086 6.00529485,8.49990103 C6.00311753,8.51223938 6.00348041,8.52457772 6.00057732,8.53727897 C5.99948866,8.54235946 5.99622268,8.54562549 5.99477113,8.55070599 C5.98352165,8.59352732 5.96900619,8.63598575 5.94650722,8.67662972 C5.38947629,9.68873713 5.09517526,10.8380179 5.09517526,12.0007258 C5.09517526,13.273753 5.44427216,14.5162972 6.10436289,15.5966284 C6.14536907,15.6604975 6.17476289,15.733076 6.18637526,15.8132753 C6.22556701,16.084356 6.05646186,16.3354777 5.8006268,16.4105965 C5.79191753,16.4131367 5.78357113,16.4149512 5.77449897,16.4171285 C5.75780619,16.4214832 5.74220206,16.4269266 5.72478351,16.4294669 C4.93078763,16.543778 4.33202474,17.23654 4.33202474,18.0399842 C4.33202474,18.9374175 5.06251546,19.6675574 5.95993402,19.6675574 C6.76227629,19.6675574 7.45357526,19.070962 7.57006186,18.2787675 C7.57985979,18.2083663 7.60344742,18.1390538 7.6419134,18.074459 C7.64227629,18.0733703 7.64263918,18.0719187 7.64336495,18.07083 C7.64372784,18.0701042 7.64409072,18.0690156 7.64445361,18.0682898 C7.65316289,18.0537741 7.66477526,18.0421615 7.6745732,18.0287345 C7.68545979,18.0138559 7.69562062,17.9982515 7.70832165,17.9844616 C7.71993402,17.9721233 7.73299794,17.9615994 7.74569897,17.9503497 C7.75985155,17.9376485 7.77291546,17.9245843 7.7881567,17.9129718 C7.79868041,17.905351 7.81065567,17.8995447 7.82154227,17.8926498 C7.84077526,17.8803114 7.85964536,17.868336 7.8803299,17.8585379 C7.88758763,17.8549089 7.89520825,17.8530945 7.90210309,17.8505542 C7.92750515,17.8400304 7.95363299,17.8298694 7.9804866,17.8237002 C7.98411546,17.8226115 7.98810722,17.8226115 7.99173608,17.8218857 C8.02185567,17.8149908 8.05270103,17.8102732 8.08427216,17.8088216 C8.09044124,17.8088216 8.09624742,17.8099103 8.10241649,17.8099103 C8.13072165,17.8095474 8.15866392,17.8095474 8.18733196,17.8139021 C8.26535258,17.8251518 8.33684124,17.8527316 8.39925773,17.8926498 C9.47993402,18.554203 10.7242722,18.9040314 11.9980041,18.9040314 C13.2735505,18.9040314 14.5178887,18.5534772 15.5996536,17.8904724 C15.6613443,17.8523687 15.7317443,17.8247889 15.8083134,17.8139021 C15.8308124,17.8106361 15.8522227,17.8113618 15.8743588,17.8109989 C15.8870598,17.8106361 15.8997608,17.8088216 15.912099,17.8091845 C15.9378639,17.8106361 15.963266,17.8153537 15.9883052,17.8197084 C15.9973773,17.8215228 16.0068124,17.8222486 16.0158845,17.824426 C16.0405608,17.8305951 16.0637856,17.8393046 16.0870103,17.8487398 C16.0960825,17.8523687 16.1062433,17.8549089 16.1153155,17.8589008 C16.1367258,17.8686989 16.1563216,17.881763 16.1759175,17.8941013 C16.1860784,17.9006334 16.1969649,17.9057139 16.2064,17.9126089 C16.2259959,17.9271246 16.2434144,17.9438176 16.2604701,17.9605107 C16.2684536,17.9681314 16.2775258,17.9746635 16.2851464,17.9833729 C16.3069196,18.0062352 16.3254268,18.0323634 16.3428454,18.0592175 C16.3450227,18.0624835 16.3479258,18.0650238 16.3501031,18.0682898 C16.3501031,18.0686527 16.3501031,18.0686527 16.350466,18.0690156 C16.3628041,18.0893376 16.3722392,18.111474 16.3816742,18.1336105 C16.4023588,18.1800607 16.4179629,18.2275996 16.4248577,18.2762272 C16.5398928,19.0702362 17.2326433,19.6682832 18.0353485,19.6682832 C18.9334928,19.6682832 19.6632577,18.9374175 19.6632577,18.0403471 C19.6632577,17.3163764 19.1751753,16.6863948 18.497666,16.4846266 C18.4316206,16.5114806 18.3623093,16.5292623 18.2911835,16.5292623 C18.1913897,16.5292623 18.0905072,16.5024083 17.9997856,16.4450713 C17.7461278,16.2843098 17.6710103,15.9479084 17.8317691,15.6938836 C18.5314144,14.591053 18.9004701,13.314034 18.9004701,12.0014516 C18.9004701,10.8391066 18.6061691,9.6901887 18.0498639,8.67953286 C18.0273649,8.63925178 18.0128495,8.59679335 18.0019629,8.55433492 C18.0001485,8.54816574 17.9957938,8.54344814 17.9943423,8.53691607 C17.9903505,8.52058591 17.9903505,8.50425574 17.9878103,8.48792557 C17.9867216,8.47994194 17.985633,8.4719583 17.9849072,8.46397466 C17.9820041,8.4327659 17.9820041,8.40228292 17.9841814,8.37179995 C17.9845443,8.36962259 17.9845443,8.36744524 17.9849072,8.36526788 C18.0055918,8.13737134 18.1670763,7.93814331 18.4022268,7.88370942 C19.1443299,7.71278702 19.662532,7.06030615 19.662532,6.29714305 C19.6657979,5.3989839 18.9349443,4.66884402 18.0378887,4.66884402 Z M11.9998186,8.67699261 C13.832033,8.67699261 15.3224082,10.1677553 15.3224082,12 C15.3224082,13.8322447 13.832033,15.3226445 11.9998186,15.3226445 C10.1676041,15.3226445 8.67686598,13.8322447 8.67686598,12 C8.67686598,10.1677553 10.1676041,8.67699261 11.9998186,8.67699261 Z" id="Combined-Shape"></path>
        </g>
    </g>
</svg>