<?xml version="1.0" encoding="UTF-8"?>
<svg width="24px" height="24px" viewBox="0 0 24 24" version="1.1" xmlns="http://www.w3.org/2000/svg" xmlns:xlink="http://www.w3.org/1999/xlink">
    <!-- Generator: Sketch 48.1 (47250) - http://www.bohemiancoding.com/sketch -->
    <title>category/aio</title>
    <desc>Created with Sketch.</desc>
    <defs></defs>
    <g id="UI-Kit" stroke="none" stroke-width="1" fill="none" fill-rule="evenodd">
        <g id="category/aio" fill="#FFFFFF" fill-rule="nonzero">
            <path d="M22.1737338,3 C22.6295806,3 22.9997666,3.34677299 23,3.7749851 L23,13.4566542 L2,13.4566542 L2,3.7749851 C2,3.34655407 2.36995254,3 2.82626624,3 L22.1737338,3 Z M2,15.0553379 L23,15.0553379 L23,17.6914849 C23,18.1573554 22.6298141,18.5350561 22.1739672,18.5350561 L14.8983895,18.5350561 C14.8983895,18.5350561 14.8925543,21.0680799 15.2284292,21.1209819 C15.5636038,21.1738838 17.054462,21.687831 17.054462,21.7581286 C17.054462,21.8284262 16.054462,22 12.4998833,22 C8.9453046,22 7.9453046,21.8284262 7.9453046,21.7581286 C7.9453046,21.687831 9.43592936,21.1736455 9.77157084,21.1209819 C10.1072123,21.0683182 10.1013771,18.5350561 10.1013771,18.5350561 L2.82626624,18.5350561 C2.36995254,18.5350561 2,18.1573554 2,17.6914849 L2,15.0553379 Z M12.5001148,15.5860409 C11.8761767,15.5860409 11.3699234,16.102897 11.3699234,16.7399026 C11.3699234,17.3769082 11.8761767,17.8930534 12.5001148,17.8930534 C13.1247492,17.8930534 13.6296098,17.3769082 13.6296098,16.7399026 C13.6296098,16.102897 13.1247492,15.5860409 12.5001148,15.5860409 Z" id="Combined-Shape"></path>
        </g>
    </g>
</svg>