<?xml version="1.0" encoding="UTF-8"?>
<svg width="24px" height="24px" viewBox="0 0 24 24" version="1.1" xmlns="http://www.w3.org/2000/svg" xmlns:xlink="http://www.w3.org/1999/xlink">
    <!-- Generator: Sketch 48.1 (47250) - http://www.bohemiancoding.com/sketch -->
    <title>category/analog-phones</title>
    <desc>Created with Sketch.</desc>
    <defs></defs>
    <g id="UI-Kit" stroke="none" stroke-width="1" fill="none" fill-rule="evenodd">
        <g id="category/analog-phones" fill="#FFFFFF" fill-rule="nonzero">
            <path d="M7.575,2 C7.9875,2 8.325,2.29333333 8.325,2.69666667 L8.325,23.3033333 C8.325,23.7066667 7.95,24 7.5375,24 L3.7125,24 C3.2625,24 2.925,23.67 2.925,23.3033333 L2.925,2.69666667 C2.925,2.29333333 3.3,2 3.7125,2 L7.575,2 Z M0,4.38333333 C0,4.05333333 0.2625,3.79666667 0.6,3.79666667 L2.175,3.79666667 L2.175,22.2033333 L0.6,22.2033333 C0.2625,22.2033333 0,21.9466667 0,21.6166667 L0,4.38333333 Z M23.4,3.79666667 C23.7375,3.79666667 24,4.05333333 24,4.38333333 L24,21.6166667 C24,21.9466667 23.7375,22.2033333 23.4,22.2033333 L9.1125,22.2033333 L9.1125,3.79666667 L23.4,3.79666667 Z M13.0125,20.1866667 L13.05,20.1866667 L13.05,18.61 C13.05,18.39 12.9,18.2433333 12.675,18.2433333 L11.0625,18.2433333 C10.8375,18.2433333 10.6875,18.39 10.6875,18.61 L10.6875,20.1866667 C10.6875,20.4066667 10.8375,20.5533333 11.0625,20.5533333 L12.6375,20.5533333 C12.8625,20.5533333 13.0125,20.4066667 13.0125,20.1866667 Z M13.0125,16.4466667 L13.05,16.4466667 L13.05,14.87 C13.05,14.65 12.9,14.5033333 12.675,14.5033333 L11.0625,14.5033333 C10.8375,14.5033333 10.6875,14.65 10.6875,14.87 L10.6875,16.4466667 C10.6875,16.6666667 10.8375,16.8133333 11.0625,16.8133333 L12.6375,16.8133333 C12.8625,16.8133333 13.0125,16.6666667 13.0125,16.4466667 Z M13.0125,12.4866667 L13.05,12.4866667 L13.05,10.91 C13.05,10.69 12.9,10.5433333 12.675,10.5433333 L11.0625,10.5433333 C10.8375,10.5433333 10.6875,10.69 10.6875,10.91 L10.6875,12.4866667 C10.6875,12.7066667 10.8375,12.8533333 11.0625,12.8533333 L12.6375,12.8533333 C12.8625,12.8533333 13.0125,12.7066667 13.0125,12.4866667 Z M17.475,20.1866667 L17.475,18.61 C17.475,18.39 17.325,18.2433333 17.1,18.2433333 L15.4875,18.2433333 C15.2625,18.2433333 15.1125,18.39 15.1125,18.61 L15.1125,20.1866667 C15.1125,20.4066667 15.2625,20.5533333 15.4875,20.5533333 L17.1,20.5533333 C17.325,20.5533333 17.475,20.4066667 17.475,20.1866667 Z M17.475,16.4466667 L17.475,14.87 C17.475,14.65 17.325,14.5033333 17.1,14.5033333 L15.4875,14.5033333 C15.2625,14.5033333 15.1125,14.65 15.1125,14.87 L15.1125,16.4466667 C15.1125,16.6666667 15.2625,16.8133333 15.4875,16.8133333 L17.1,16.8133333 C17.325,16.8133333 17.475,16.6666667 17.475,16.4466667 Z M17.475,12.4866667 L17.475,10.91 C17.475,10.69 17.325,10.5433333 17.1,10.5433333 L15.4875,10.5433333 C15.2625,10.5433333 15.1125,10.69 15.1125,10.91 L15.1125,12.4866667 C15.1125,12.7066667 15.2625,12.8533333 15.4875,12.8533333 L17.1,12.8533333 C17.325,12.8533333 17.475,12.7066667 17.475,12.4866667 Z M21.9,20.1866667 L21.9,18.61 C21.9,18.39 21.75,18.2433333 21.525,18.2433333 L19.9125,18.2433333 C19.6875,18.2433333 19.5375,18.39 19.5375,18.61 L19.5375,20.1866667 C19.5375,20.4066667 19.6875,20.5533333 19.9125,20.5533333 L21.525,20.5533333 C21.75,20.5533333 21.9,20.4066667 21.9,20.1866667 Z M21.9,16.4466667 L21.9,14.87 C21.9,14.65 21.75,14.5033333 21.525,14.5033333 L19.9125,14.5033333 C19.6875,14.5033333 19.5375,14.65 19.5375,14.87 L19.5375,16.4466667 C19.5375,16.6666667 19.6875,16.8133333 19.9125,16.8133333 L21.525,16.8133333 C21.75,16.8133333 21.9,16.6666667 21.9,16.4466667 Z M21.9,12.4866667 L21.9,10.91 C21.9,10.69 21.75,10.5433333 21.525,10.5433333 L19.9125,10.5433333 C19.6875,10.5433333 19.5375,10.69 19.5375,10.91 L19.5375,12.4866667 C19.5375,12.7066667 19.6875,12.8533333 19.9125,12.8533333 L21.525,12.8533333 C21.75,12.8533333 21.9,12.7066667 21.9,12.4866667 Z M21.9,9.11333333 L21.9,5.48333333 L10.6875,5.48333333 L10.6875,9.11333333 L21.9,9.11333333 Z" id="Combined-Shape"></path>
        </g>
    </g>
</svg>