<?xml version="1.0" encoding="UTF-8"?>
<svg width="24px" height="24px" viewBox="0 0 24 24" version="1.1" xmlns="http://www.w3.org/2000/svg" xmlns:xlink="http://www.w3.org/1999/xlink">
    <!-- Generator: Sketch 48.1 (47250) - http://www.bohemiancoding.com/sketch -->
    <title>category/apple</title>
    <desc>Created with Sketch.</desc>
    <defs></defs>
    <g id="Symbols" stroke="none" stroke-width="1" fill="none" fill-rule="evenodd">
        <g id="category/apple" fill="#FFFFFF" fill-rule="nonzero">
            <path d="M18.0330507,11.6879083 C18.064116,15.0172429 20.9678295,16.1251486 21,16.1392513 C20.9754478,16.2173464 20.5360342,17.7180847 19.4701841,19.2682413 C18.5487656,20.6084682 17.592532,21.9437062 16.0861235,21.9713616 C14.6059251,21.9985063 14.1299596,21.0978591 12.4376727,21.0978591 C10.745899,21.0978591 10.2170791,21.9437454 8.81590572,21.9985456 C7.36183848,22.0533457 6.25454163,20.5493469 5.32554436,19.2140305 C3.42716892,16.4826656 1.97641742,11.4958525 3.92441042,8.12967012 C4.89213071,6.45801039 6.62152219,5.39944445 8.49862167,5.37229972 C9.92647884,5.34519427 11.2741663,6.32829707 12.1470724,6.32829707 C13.0194259,6.32829707 14.6571611,5.14602816 16.3788948,5.31966015 C17.099672,5.34951543 19.12294,5.60941346 20.4220757,7.50192367 C20.3173933,7.56650534 18.0079459,8.90449309 18.0330507,11.6879083 M15.2511904,3.51263031 C16.0231641,2.58267776 16.5427473,1.28809801 16.4009997,0 C15.2882556,0.0445079307 13.9426996,0.737935991 13.1445554,1.66737786 C12.429265,2.49044067 11.8028283,3.80780471 11.9718518,5.07040789 C13.2121332,5.16590548 14.4791773,4.44317211 15.2511904,3.51263031" id="Shape"></path>
        </g>
    </g>
</svg>