<?xml version="1.0" encoding="UTF-8"?>
<svg width="24px" height="24px" viewBox="0 0 24 24" version="1.1" xmlns="http://www.w3.org/2000/svg" xmlns:xlink="http://www.w3.org/1999/xlink">
    <!-- Generator: Sketch 48.1 (47250) - http://www.bohemiancoding.com/sketch -->
    <title>category/bags</title>
    <desc>Created with Sketch.</desc>
    <defs></defs>
    <g id="UI-Kit" stroke="none" stroke-width="1" fill="none" fill-rule="evenodd">
        <g id="category/bags" fill="#FFFFFF" fill-rule="nonzero">
            <path d="M8.93412293,3 C8.49892537,3.0470114 8.13279439,3.4680783 8.1351339,3.91889376 L8.1351339,6.07254253 L2.38429098,6.07254253 C1.54418073,6.07254253 1,6.83984352 1,7.5944688 L1,20.4780737 C1,21.2326447 1.54418073,22 2.38429098,22 L21.606418,22 C22.4465256,22 23,21.232699 23,20.4780737 L23,7.59446609 C23,6.83989509 22.4465256,6.07253982 21.606418,6.07253982 L15.8648661,6.07253982 L15.8648661,3.91889376 C15.8648178,3.43775975 15.4399522,3.00002443 14.9729727,3 L8.93412293,3 Z M9.91891805,4.83776038 L14.081082,4.83776038 L14.081082,6.07254253 L9.91891805,6.07254253 L9.91891805,4.83776038 Z M2.78378415,7.91030291 L21.2162159,7.91030291 L21.2162159,13.1337365 L18.875,14.5790928 L5.125,14.5790928 L2.78378415,13.1433179 L2.78378415,7.91030291 Z" id="Shape"></path>
        </g>
    </g>
</svg>