<?xml version="1.0" encoding="UTF-8"?>
<svg width="24px" height="24px" viewBox="0 0 24 24" version="1.1" xmlns="http://www.w3.org/2000/svg" xmlns:xlink="http://www.w3.org/1999/xlink">
    <!-- Generator: Sketch 48.1 (47250) - http://www.bohemiancoding.com/sketch -->
    <title>category/cameras</title>
    <desc>Created with Sketch.</desc>
    <defs></defs>
    <g id="UI-Kit" stroke="none" stroke-width="1" fill="none" fill-rule="evenodd">
        <g id="category/cameras" fill="#FFFFFF" fill-rule="nonzero">
            <path d="M6.81505907,1 L5.6698756,1 C3.09483028,1 1,3.08542338 1,5.64890537 L1,18.3510946 C1,20.9145766 3.09483028,23 5.6698756,23 L6.81505907,23 C9.39010439,23 11.4849347,20.9145766 11.4849347,18.3510946 L11.4849347,14.4836863 C11.489248,15.1163267 12.0061261,15.6287369 12.6416203,15.6287369 L22.8418766,15.6287369 C23.4809652,15.6287369 24,15.1113171 24,14.4758141 L24,6.85908071 C24,6.22429329 23.4809652,5.70687356 22.8418766,5.70687356 L12.6416203,5.70687356 C12.0061261,5.70687356 11.489248,6.21999935 11.4849347,6.85120848 L11.4849347,5.64890537 C11.4849347,3.08542338 9.39010439,1 6.81505907,1 Z M5.2069138,18.9522462 C4.86472464,18.9522462 4.58723511,18.6645522 4.58723511,18.3103022 C4.58723511,17.9560522 4.86472464,17.6683582 5.2069138,17.6683582 C5.54910296,17.6683582 5.82659249,17.9560522 5.82659249,18.3103022 C5.82659249,18.6645522 5.54910296,18.9522462 5.2069138,18.9522462 Z M7.27730199,18.9522462 C6.93511283,18.9522462 6.6576233,18.6645522 6.6576233,18.3103022 C6.6576233,17.9560522 6.93511283,17.6683582 7.27730199,17.6683582 C7.61949115,17.6683582 7.89698068,17.9560522 7.89698068,18.3103022 C7.89698068,18.6645522 7.61949115,18.9522462 7.27730199,18.9522462 Z M6.2421079,9.43258189 C4.66487466,9.43258189 3.38166531,8.17231059 3.38166531,6.62362968 C3.38166531,5.07494877 4.66487466,3.81467747 6.2421079,3.81467747 C7.81862224,3.81467747 9.10255048,5.07494877 9.10255048,6.62362968 C9.10255048,8.17231059 7.81934113,9.43258189 6.2421079,9.43258189 Z" id="Shape"></path>
        </g>
    </g>
</svg>