<?xml version="1.0" encoding="UTF-8"?>
<svg width="24px" height="24px" viewBox="0 0 24 24" version="1.1" xmlns="http://www.w3.org/2000/svg" xmlns:xlink="http://www.w3.org/1999/xlink">
    <!-- Generator: Sketch 48.1 (47250) - http://www.bohemiancoding.com/sketch -->
    <title>category/desktops</title>
    <desc>Created with Sketch.</desc>
    <defs></defs>
    <g id="UI-Kit" stroke="none" stroke-width="1" fill="none" fill-rule="evenodd">
        <g id="category/desktops" fill="#FFFFFF">
            <path d="M18.4702491,4 L23.0777518,4 C23.5870954,4 24,4.41290459 24,4.92224821 L24,20.0582479 C24,20.5675915 23.5870954,20.9804961 23.0777518,20.9804961 L18.4702491,20.9804961 C17.9609055,20.9804961 17.5480009,20.5675915 17.5480009,20.0582479 L17.5480009,4.92224821 C17.5480009,4.41290459 17.9609055,4 18.4702491,4 Z M19.0382489,19 C18.7674924,19 18.5480009,19.2194915 18.5480009,19.490248 C18.5480009,19.7610046 18.7674924,19.9804961 19.0382489,19.9804961 L22.509752,19.9804961 C22.7805085,19.9804961 23,19.7610046 23,19.490248 C23,19.2194915 22.7805085,19 22.509752,19 L19.0382489,19 Z M19.0382489,5 C18.7674924,5 18.5480009,5.21949153 18.5480009,5.49024805 C18.5480009,5.76100457 18.7674924,5.98049609 19.0382489,5.98049609 L22.509752,5.98049609 C22.7805085,5.98049609 23,5.76100457 23,5.49024805 C23,5.21949153 22.7805085,5 22.509752,5 L19.0382489,5 Z M19.0382489,17 C18.7674924,17 18.5480009,17.2194915 18.5480009,17.490248 C18.5480009,17.7610046 18.7674924,17.9804961 19.0382489,17.9804961 L22.509752,17.9804961 C22.7805085,17.9804961 23,17.7610046 23,17.490248 C23,17.2194915 22.7805085,17 22.509752,17 L19.0382489,17 Z M19.0382489,15 C18.7674924,15 18.5480009,15.2194915 18.5480009,15.490248 C18.5480009,15.7610046 18.7674924,15.9804961 19.0382489,15.9804961 L22.509752,15.9804961 C22.7805085,15.9804961 23,15.7610046 23,15.490248 C23,15.2194915 22.7805085,15 22.509752,15 L19.0382489,15 Z M15.7872359,5.80446927 C16.1439653,5.80446927 16.4336594,6.0818061 16.4338421,6.42427505 L16.4338421,14.167333 L0,14.167333 L0,6.42427505 C0,6.08163101 0.289511506,5.80446927 0.646606139,5.80446927 L15.7872359,5.80446927 Z M0,15.4459038 L16.4338421,15.4459038 L16.4338421,17.5542014 C16.4338421,17.9267882 16.1441479,18.2288599 15.7874186,18.2288599 L10.0938141,18.2288599 C10.0938141,18.2288599 10.0892477,20.2546832 10.3520912,20.2969923 C10.6143868,20.3393013 11.7810786,20.7503382 11.7810786,20.8065598 C11.7810786,20.8627813 10.9985147,21 8.21682971,21 C5.43514471,21 4.65258081,20.8627813 4.65258081,20.8065598 C4.65258081,20.7503382 5.81908994,20.3391108 6.08175085,20.2969923 C6.34441177,20.2548737 6.33984534,18.2288599 6.33984534,18.2288599 L0.646606139,18.2288599 C0.289511506,18.2288599 0,17.9267882 0,17.5542014 L0,15.4459038 Z M8.21701086,15.8703414 C7.72873944,15.8703414 7.33256385,16.2837047 7.33256385,16.7931594 C7.33256385,17.3026141 7.72873944,17.7154088 8.21701086,17.7154088 C8.70582722,17.7154088 9.10091292,17.3026141 9.10091292,16.7931594 C9.10091292,16.2837047 8.70582722,15.8703414 8.21701086,15.8703414 Z" id="Combined-Shape"></path>
        </g>
    </g>
</svg>