<?xml version="1.0" encoding="UTF-8"?>
<svg width="24px" height="24px" viewBox="0 0 24 24" version="1.1" xmlns="http://www.w3.org/2000/svg" xmlns:xlink="http://www.w3.org/1999/xlink">
    <!-- Generator: Sketch 48.1 (47250) - http://www.bohemiancoding.com/sketch -->
    <title>category/drones</title>
    <desc>Created with Sketch.</desc>
    <defs></defs>
    <g id="UI-Kit" stroke="none" stroke-width="1" fill="none" fill-rule="evenodd">
        <g id="category/drones" fill="#FFFFFF" fill-rule="nonzero">
            <path d="M6.55847907,11.5017561 C6.53159693,11.5031941 6.50111051,11.5049357 6.465635,11.5070247 C6.31460907,11.5159178 6.24778767,11.5189129 6.16561845,11.5189129 C3.22272306,11.5189129 0.823060797,9.10187715 0.823060797,6.14791406 C0.823060797,3.19807127 3.21863688,0.8 6.16561845,0.8 C9.11250632,0.8 11.5090773,3.22141874 11.4851153,6.17099888 C11.4851153,6.31433709 11.4846153,6.38140275 11.4821464,6.46543278 C11.4811328,6.49993164 11.4798155,6.53312916 11.4781556,6.56519716 C11.821773,6.58882995 12.1653575,6.58859396 12.5089755,6.5644892 C12.5075363,6.53751575 12.5057921,6.50691622 12.5036987,6.47129131 C12.4948156,6.32012056 12.4918239,6.25323715 12.4918239,6.17099888 C12.4918239,3.21703578 14.8914862,0.8 17.8343816,0.8 C20.7813631,0.8 23.1769392,3.19807127 23.1769392,6.14791406 C23.1769392,9.09775685 20.7813631,11.4958281 17.8343816,11.4958281 C17.6911864,11.4958281 17.6241864,11.4953276 17.5402357,11.4928559 C17.5058587,11.4918437 17.4727747,11.4905291 17.4408135,11.4888735 C17.4171893,11.8329792 17.4174251,12.1770523 17.4415209,12.5211587 C17.4684031,12.5197207 17.4988895,12.5179791 17.534365,12.5158902 C17.6853909,12.506997 17.7522123,12.5040019 17.8343816,12.5040019 C20.7854782,12.5040019 23.2,14.9061646 23.2,17.851916 C23.2,20.8017588 20.8044239,23.19983 17.8574423,23.19983 C14.9104608,23.19983 12.5148847,20.8017588 12.5148847,17.851916 C12.5148847,17.7085778 12.5153847,17.6415121 12.5178536,17.5574821 C12.5188672,17.5229832 12.5201845,17.4897857 12.5218444,17.4577177 C12.178227,17.4340849 11.8346425,17.4343209 11.4910245,17.4584257 C11.4924637,17.4853991 11.4942079,17.5159986 11.4963013,17.5516235 C11.5051844,17.7027943 11.5081761,17.7696777 11.5081761,17.851916 C11.5081761,20.8135716 9.10053939,23.2237161 6.14255765,23.19983 C3.19557608,23.19983 0.8,20.8017588 0.8,17.851916 C0.8,14.9021675 3.21890151,12.5030981 6.16561845,12.5270867 C6.30881359,12.5270867 6.37581363,12.5275873 6.45976434,12.530059 C6.49414131,12.5310711 6.52722526,12.5323857 6.55918648,12.5340414 C6.58281072,12.1899356 6.58257492,11.8458626 6.55847907,11.5017561 Z M17.8343816,1.92339266 C15.5052411,1.92339266 13.6142558,3.83943242 13.6142558,6.17099888 C13.6142558,6.30950777 13.6142558,6.44801667 13.6603774,6.60961039 C14.836478,6.30950777 15.9433962,5.70930255 16.8658281,4.78590989 C17.21174,4.43963765 17.7651992,4.39346801 18.1572327,4.71665544 C18.572327,5.06292769 18.9643606,5.45536957 19.3102725,5.87089626 C19.6331237,6.24025333 19.5870021,6.81737374 19.2410901,7.16364598 C18.3186583,8.06395382 17.6960168,9.19510983 17.4192872,10.3724355 C17.557652,10.3955203 17.6960168,10.3955203 17.8343816,10.3955203 C20.163522,10.3955203 22.0545073,8.47948052 22.0545073,6.14791406 C22.0545073,3.8163476 20.163522,1.92339266 17.8343816,1.92339266 Z M13.6373166,17.4363893 C13.6142558,17.5748982 13.6142558,17.7134071 13.6142558,17.851916 C13.6142558,20.1834824 15.5052411,22.0995222 17.8113208,22.0995222 C20.1404612,22.0995222 22.0314465,20.2065673 22.0314465,17.8750008 C22.0314465,15.5434343 20.1404612,13.6504794 17.8113208,13.6504794 C17.672956,13.6504794 17.5345912,13.6504794 17.3962264,13.6735642 C17.6960168,14.8508898 18.2955975,15.958961 19.2180294,16.8823537 C19.5639413,17.2286259 19.6100629,17.7826615 19.2872117,18.1751034 C18.9412998,18.5906301 18.5492662,18.983072 18.1341719,19.3293442 C17.7651992,19.6525317 17.1886792,19.606362 16.8427673,19.2600898 C15.9433962,18.3366971 14.8134172,17.7134071 13.6373166,17.4363893 Z M5.8427673,4.69357063 C6.23480084,4.3703832 6.78825996,4.41655283 7.1572327,4.76282508 C8.05660377,5.68621773 9.18658281,6.30950777 10.3626834,6.58652557 C10.3857442,6.44801667 10.3857442,6.30950777 10.3857442,6.17099888 C10.3857442,3.83943242 8.49475891,1.92339266 6.16561845,1.92339266 C3.83647799,1.92339266 1.92243187,3.83943242 1.92243187,6.17099888 C1.92243187,8.50256533 3.83647799,10.3955203 6.16561845,10.3955203 C6.30398323,10.3955203 6.44234801,10.3955203 6.58071279,10.3493506 C6.28092243,9.17202501 5.68134172,8.06395382 4.75890985,7.14056117 C4.4129979,6.79428892 4.36687631,6.24025333 4.68972746,5.84781145 C5.03563941,5.43228475 5.42767296,5.03984287 5.8427673,4.69357063 Z M6.16561845,22.0995222 C8.49475891,22.0995222 10.3857442,20.1834824 10.3626834,17.8288312 C10.3626834,17.6903223 10.3626834,17.5518134 10.3396226,17.4133045 C9.16352201,17.7134071 8.05660377,18.3136123 7.13417191,19.237005 C6.78825996,19.5832772 6.23480084,19.6294468 5.8427673,19.3062594 C5.42767296,18.9599872 5.03563941,18.5675453 4.68972746,18.1520186 C4.36687631,17.7826615 4.4129979,17.2055411 4.75890985,16.8592689 C5.68134172,15.958961 6.30398323,14.827805 6.58071279,13.6504794 C6.44234801,13.6273946 6.30398323,13.6273946 6.16561845,13.6273946 C3.83647799,13.6273946 1.94549266,15.5434343 1.94549266,17.8750008 C1.94549266,20.2065673 3.83647799,22.0995222 6.16561845,22.0995222 Z" id="Shape"></path>
        </g>
    </g>
</svg>