<?xml version="1.0" encoding="UTF-8"?>
<svg width="24px" height="24px" viewBox="0 0 24 24" version="1.1" xmlns="http://www.w3.org/2000/svg" xmlns:xlink="http://www.w3.org/1999/xlink">
    <!-- Generator: Sketch 48.1 (47250) - http://www.bohemiancoding.com/sketch -->
    <title>category/e-reader</title>
    <desc>Created with Sketch.</desc>
    <defs></defs>
    <g id="UI-Kit" stroke="none" stroke-width="1" fill="none" fill-rule="evenodd">
        <g id="category/e-reader" fill="#FFFFFF" fill-rule="nonzero">
            <path d="M20.2887029,1.02315789 C20.6680614,1.02315789 21,1.32421053 21,1.71789474 L20.9762901,22.3052632 C20.9762901,22.6757895 20.6680614,23 20.264993,23 L4.71129707,22.9768421 C4.33193863,22.9768421 4,22.6757895 4,22.2821053 L4.0237099,1.69473684 C4.0237099,1.32421053 4.33193863,1 4.73500697,1 L20.2887029,1.02315789 Z M12.488145,21.8421053 C12.986053,21.8421053 13.4128312,21.4252632 13.4128312,20.9389474 C13.4128312,20.4526316 13.0097629,20.0357895 12.488145,20.0357895 C11.9902371,20.0357895 11.5634589,20.4294737 11.5634589,20.9389474 C11.5634589,21.4484211 11.9665272,21.8421053 12.488145,21.8421053 Z M7.50906555,5.05263158 L17.4672245,5.05263158 C17.7280335,5.05263158 17.9414226,4.84421053 17.9414226,4.58947368 C17.9414226,4.33473684 17.7280335,4.12631579 17.4672245,4.12631579 L7.50906555,4.12631579 C7.24825662,4.12631579 7.0348675,4.33473684 7.0348675,4.58947368 C7.0348675,4.84421053 7.24825662,5.05263158 7.50906555,5.05263158 Z M7.50906555,7.50736842 L17.4672245,7.50736842 C17.7280335,7.50736842 17.9414226,7.29894737 17.9414226,7.04421053 C17.9414226,6.78947368 17.7280335,6.58105263 17.4672245,6.58105263 L7.50906555,6.58105263 C7.24825662,6.58105263 7.0348675,6.78947368 7.0348675,7.04421053 C7.0348675,7.29894737 7.24825662,7.50736842 7.50906555,7.50736842 Z M7.50906555,9.93894737 L17.4672245,9.93894737 C17.7280335,9.93894737 17.9414226,9.73052632 17.9414226,9.47578947 C17.9414226,9.22105263 17.7280335,9.01263158 17.4672245,9.01263158 L7.50906555,9.01263158 C7.24825662,9.01263158 7.0348675,9.22105263 7.0348675,9.47578947 C7.0348675,9.73052632 7.24825662,9.93894737 7.50906555,9.93894737 Z M7.50906555,12.3936842 L17.4672245,12.3936842 C17.7280335,12.3936842 17.9414226,12.1852632 17.9414226,11.9305263 C17.9414226,11.6757895 17.7280335,11.4673684 17.4672245,11.4673684 L7.50906555,11.4673684 C7.24825662,11.4673684 7.0348675,11.6757895 7.0348675,11.9305263 C7.0348675,12.1852632 7.24825662,12.3936842 7.50906555,12.3936842 Z M7.50906555,14.8252632 L17.4672245,14.8252632 C17.7280335,14.8252632 17.9414226,14.6168421 17.9414226,14.3621053 C17.9414226,14.1073684 17.7280335,13.8989474 17.4672245,13.8989474 L7.50906555,13.8989474 C7.24825662,13.8989474 7.0348675,14.1073684 7.0348675,14.3621053 C7.0348675,14.6168421 7.24825662,14.8252632 7.50906555,14.8252632 Z M7.50906555,17.28 L17.4672245,17.28 C17.7280335,17.28 17.9414226,17.0715789 17.9414226,16.8168421 C17.9414226,16.5621053 17.7280335,16.3536842 17.4672245,16.3536842 L7.50906555,16.3536842 C7.24825662,16.3536842 7.0348675,16.5621053 7.0348675,16.8168421 C7.0348675,17.0715789 7.24825662,17.28 7.50906555,17.28 Z" id="Combined-Shape"></path>
        </g>
    </g>
</svg>