<?xml version="1.0" encoding="UTF-8"?>
<svg width="24px" height="24px" viewBox="0 0 24 24" version="1.1" xmlns="http://www.w3.org/2000/svg" xmlns:xlink="http://www.w3.org/1999/xlink">
    <!-- Generator: Sketch 48.1 (47250) - http://www.bohemiancoding.com/sketch -->
    <title>category/external-hard-drives</title>
    <desc>Created with Sketch.</desc>
    <defs></defs>
    <g id="UI-Kit" stroke="none" stroke-width="1" fill="none" fill-rule="evenodd">
        <g id="category/external-hard-drives" fill="#FFFFFF" fill-rule="nonzero">
            <path d="M21.182377,19.6997164 L3.81762295,19.6997164 C3.50614754,19.6997164 3.23360656,19.6227933 3,19.4689471 L3,22.1923077 C3,22.6538462 3.35040984,23 3.81762295,23 L21.182377,23 C21.6495902,23 22,22.6538462 22,22.1923077 L22,19.4689471 C21.7663934,19.6227933 21.4938525,19.6997164 21.182377,19.6997164 Z M5.83519301,22.2480515 C5.3442133,22.2480515 4.90778689,21.8106572 4.90778689,21.3185886 C4.90778689,20.82652 5.3442133,20.3891258 5.83519301,20.3891258 C6.32617272,20.3891258 6.76259913,20.82652 6.76259913,21.3185886 C6.76259913,21.8106572 6.38072602,22.2480515 5.83519301,22.2480515 Z M9.272051,22.2480515 C8.78107129,22.2480515 8.34464487,21.8106572 8.34464487,21.3185886 C8.34464487,20.82652 8.78107129,20.3891258 9.272051,20.3891258 C9.76303071,20.3891258 10.1994571,20.82652 10.1994571,21.3185886 C10.1994571,21.8106572 9.76303071,22.2480515 9.272051,22.2480515 Z M3,3.80769231 L3,1.80769231 C3,1.34615385 3.35040984,1 3.81762295,1 L21.182377,1 C21.6495902,1 22,1.34615385 22,1.80769231 L22,3.80769231 L22,17.5535142 C22,18.0150527 21.6495902,18.3612065 21.182377,18.3612065 L3.81762295,18.3612065 C3.35040984,18.3612065 3,18.0150527 3,17.5535142 L3,3.80769231 Z" id="Combined-Shape"></path>
        </g>
    </g>
</svg>