<?xml version="1.0" encoding="UTF-8"?>
<svg width="24px" height="24px" viewBox="0 0 24 24" version="1.1" xmlns="http://www.w3.org/2000/svg" xmlns:xlink="http://www.w3.org/1999/xlink">
    <!-- Generator: Sketch 48.1 (47250) - http://www.bohemiancoding.com/sketch -->
    <title>category/gaming-consoles</title>
    <desc>Created with Sketch.</desc>
    <defs></defs>
    <g id="UI-Kit" stroke="none" stroke-width="1" fill="none" fill-rule="evenodd">
        <g id="category/gaming-consoles" fill="#FFFFFF" fill-rule="nonzero">
            <path d="M19.5,5 L4.5,5 C1.425,5 0,8.81111111 0,12 C0,15.1888889 1.425,19 4.5,19 L19.5,19 C22.575,19 24,15.1888889 24,12 C24,8.81111111 22.575,5 19.5,5 Z M20.25,9.66666667 C20.7,9.66666667 21,9.97777778 21,10.4444444 C21,10.9111111 20.7,11.2222222 20.25,11.2222222 C19.8,11.2222222 19.5,10.9111111 19.5,10.4444444 C19.5,9.97777778 19.8,9.66666667 20.25,9.66666667 Z M5.25,12.7777778 L4.5,12.7777778 L4.5,13.5555556 C4.5,14.0222222 4.2,14.3333333 3.75,14.3333333 C3.3,14.3333333 3,14.0222222 3,13.5555556 L3,12.7777778 L2.25,12.7777778 C1.8,12.7777778 1.5,12.4666667 1.5,12 C1.5,11.5333333 1.8,11.2222222 2.25,11.2222222 L3,11.2222222 L3,10.4444444 C3,9.97777778 3.3,9.66666667 3.75,9.66666667 C4.2,9.66666667 4.5,9.97777778 4.5,10.4444444 L4.5,11.2222222 L5.25,11.2222222 C5.7,11.2222222 6,11.5333333 6,12 C6,12.4666667 5.7,12.7777778 5.25,12.7777778 Z M16.5,15.1111111 C16.5,15.5777778 16.2,15.8888889 15.75,15.8888889 L8.25,15.8888889 C7.8,15.8888889 7.5,15.5777778 7.5,15.1111111 L7.5,8.88888889 C7.5,8.42222222 7.8,8.11111111 8.25,8.11111111 L15.75,8.11111111 C16.2,8.11111111 16.5,8.42222222 16.5,8.88888889 L16.5,15.1111111 Z M18.75,12.7777778 C18.3,12.7777778 18,12.4666667 18,12 C18,11.5333333 18.3,11.2222222 18.75,11.2222222 C19.2,11.2222222 19.5,11.5333333 19.5,12 C19.5,12.4666667 19.2,12.7777778 18.75,12.7777778 Z M20.25,14.3333333 C19.8,14.3333333 19.5,14.0222222 19.5,13.5555556 C19.5,13.0888889 19.8,12.7777778 20.25,12.7777778 C20.7,12.7777778 21,13.0888889 21,13.5555556 C21,14.0222222 20.7,14.3333333 20.25,14.3333333 Z M21.75,12.7777778 C21.3,12.7777778 21,12.4666667 21,12 C21,11.5333333 21.3,11.2222222 21.75,11.2222222 C22.2,11.2222222 22.5,11.5333333 22.5,12 C22.5,12.4666667 22.2,12.7777778 21.75,12.7777778 Z" id="Shape"></path>
        </g>
    </g>
</svg>