<?xml version="1.0" encoding="UTF-8"?>
<svg width="24px" height="24px" viewBox="0 0 24 24" version="1.1" xmlns="http://www.w3.org/2000/svg" xmlns:xlink="http://www.w3.org/1999/xlink">
    <!-- Generator: Sketch 48.1 (47250) - http://www.bohemiancoding.com/sketch -->
    <title>category/gaming-accessories</title>
    <desc>Created with Sketch.</desc>
    <defs></defs>
    <g id="UI-Kit" stroke="none" stroke-width="1" fill="none" fill-rule="evenodd">
        <g id="category/gaming-accessories" fill="#FFFFFF" fill-rule="nonzero">
            <path d="M1.71453622,16.2420537 C4.00011267,18.5848391 7.70245326,18.5858941 9.98854422,16.2431087 C10.5709038,15.6460381 10.991772,14.9246079 11.2954607,14.1908472 C11.4125758,13.9094228 11.683336,13.7122016 12.0006593,13.7106191 C12.316439,13.712795 12.5893216,13.9094888 12.7048288,14.1903197 C13.0090964,14.9219703 13.4299002,15.6455106 14.0133532,16.2437022 C16.2973861,18.5849051 20.0012702,18.5859601 22.2863321,16.2437022 C24.5719086,13.9019718 24.5703651,10.1034681 22.2868467,7.76173769 C21.1393635,6.58632276 19.6353259,5.99835154 18.1307737,6.00105501 L12.0006593,6 L5.87003038,6.00217596 C4.36393466,5.99894499 2.85938248,6.58480618 1.71344288,7.75910016 C-0.57213357,10.1023471 -0.57052573,13.9003234 1.71453622,16.2420537 Z M15.9367155,11.1619745 L17.429241,11.1619745 L17.4297555,9.63121845 C17.4297555,9.16707923 17.7962144,8.79076974 18.2489177,8.79136319 C18.7027145,8.79136319 19.06808,9.16707923 19.0675655,9.63016344 L19.0675655,11.161447 L20.5606055,11.1609195 C21.0122799,11.159337 21.3797677,11.536108 21.3787387,12.0002473 C21.3792532,12.464914 21.0127944,12.8401025 20.5595765,12.8401025 L19.067051,12.8411575 L19.06808,14.3719136 C19.06808,14.8371738 18.7026501,15.2117689 18.2489177,15.2117689 C17.7972434,15.2112414 17.43027,14.8355253 17.43027,14.3724411 L17.4307845,12.8400366 L15.9367155,12.8410916 C15.4855556,12.8410916 15.1190968,12.4659031 15.1180677,12.0017638 C15.1174889,11.5377565 15.4834333,11.1619745 15.9367155,11.1619745 Z M7.36541958,11.0421683 C7.58234932,10.8202861 7.87722715,10.6857062 8.20554804,10.6851787 C8.53335442,10.6857062 8.83029027,10.8213411 9.0456765,11.0426958 C9.26157723,11.2635229 9.3948993,11.5690148 9.39644283,11.9056294 C9.39541381,12.2417166 9.26260624,12.5429225 9.0456765,12.7653321 C8.83131929,12.9851042 8.53386893,13.1239042 8.20715588,13.1249592 C7.87626244,13.1244317 7.57932658,12.9872143 7.36445487,12.7669146 C7.14855414,12.5450325 7.01523206,12.2416507 7.01626108,11.9034535 C7.01619677,11.5684873 7.15106237,11.2629954 7.36541958,11.0421683 Z M5.06085429,8.86493627 C5.27778404,8.64305412 5.57266186,8.50847419 5.90098275,8.50794668 C6.22878913,8.50847419 6.52572499,8.64410913 6.74111121,8.86546377 C6.95701194,9.08629091 7.09033402,9.39178274 7.09187754,9.72839742 C7.09084852,10.0644846 6.95804096,10.3656904 6.74111121,10.5881001 C6.526754,10.8078722 6.22930364,10.9466722 5.90259059,10.9477272 C5.57169715,10.9471997 5.2747613,10.8099822 5.05988958,10.5896826 C4.84398885,10.3678005 4.71066678,10.0644187 4.71169579,9.72622146 C4.71163148,9.39125524 4.84649708,9.08576341 5.06085429,8.86493627 Z M2.72807954,11.1527563 C2.94500929,10.9308741 3.23988711,10.7962942 3.568208,10.7957667 C3.89601438,10.7962942 4.19295024,10.9319291 4.40833646,11.1532838 C4.62423719,11.3741109 4.75755927,11.6796028 4.75910279,12.0162174 C4.75807378,12.3523046 4.62526621,12.6535105 4.40833646,12.8759201 C4.19397926,13.0956922 3.89652889,13.2344922 3.56981584,13.2355472 C3.2389224,13.2350197 2.94198655,13.0978023 2.72711483,12.8775026 C2.5112141,12.6556205 2.37789203,12.3522387 2.37892104,12.0140415 C2.37885673,11.6790753 2.51372233,11.3735834 2.72807954,11.1527563 Z M5.09203026,13.368582 C5.30896001,13.1466998 5.60383783,13.0121199 5.93215872,13.0115924 C6.25996511,13.0121199 6.55690096,13.1477548 6.77228718,13.3691095 C6.98818792,13.5899366 7.12150999,13.8954284 7.12305352,14.2320431 C7.1220245,14.5681303 6.98921693,14.8693361 6.77228718,15.0917458 C6.55792998,15.3115179 6.26047961,15.4503179 5.93376656,15.4513729 C5.60287313,15.4508454 5.30593727,15.3136279 5.09106556,15.0933283 C4.87516483,14.8714462 4.74184275,14.5680643 4.74287177,14.2298672 C4.74280746,13.8949009 4.87767306,13.5894091 5.09203026,13.368582 Z" id="Shape"></path>
        </g>
    </g>
</svg>