<?xml version="1.0" encoding="UTF-8"?>
<svg width="24px" height="24px" viewBox="0 0 24 24" version="1.1" xmlns="http://www.w3.org/2000/svg" xmlns:xlink="http://www.w3.org/1999/xlink">
    <!-- Generator: Sketch 48.1 (47250) - http://www.bohemiancoding.com/sketch -->
    <title>category/headphones</title>
    <desc>Created with Sketch.</desc>
    <defs></defs>
    <g id="UI-Kit" stroke="none" stroke-width="1" fill="none" fill-rule="evenodd">
        <g id="category/headphones" fill="#FFFFFF" fill-rule="nonzero">
            <path d="M20.9788327,7.65225 L20.6109719,7.65225 C20.1459795,3.9198125 16.3481964,1 11.7478707,1 C7.14134519,1 3.34011774,3.927375 2.88339178,7.666 C1.83423096,7.7381875 1,8.6044375 1,9.669375 L1,14.99475 C1,16.107125 1.90656313,17.011875 3.02047846,17.011875 L5.33510772,17.011875 C6.44902305,17.011875 7.35558617,16.107125 7.35489729,14.99475 L7.35489729,9.669375 C7.35489729,8.557 6.44833417,7.65225 5.33441884,7.65225 L4.28319138,7.65225 C4.75782816,4.680875 7.92046593,2.375 11.7478707,2.375 C15.5759644,2.375 18.7386022,4.680875 19.213239,7.65225 L18.6655812,7.65225 C17.550977,7.65225 16.6444138,8.5576875 16.6444138,9.669375 L16.6444138,14.99475 C16.6444138,16.107125 17.5516658,17.011875 18.6655812,17.011875 L19.1243737,17.011875 C19.0134644,17.941375 18.683492,18.6914375 18.1151678,19.22975 C16.8965431,20.383375 14.9897295,20.2933125 14.9332415,20.2946875 L14.1982089,20.2946875 C14.186498,19.1919375 13.2868236,18.2981875 12.1791082,18.2981875 L10.5760897,18.2981875 C9.46217435,18.2981875 8.55561122,19.203625 8.55561122,20.3153125 L8.55561122,20.9835625 C8.55561122,22.09525 9.46217435,23 10.5760897,23 L12.1791082,23 C13.0512275,23 13.7890155,22.443125 14.0721443,21.669 L14.8932866,21.6683125 C14.907753,21.6696875 14.9766408,21.673125 15.0868612,21.673125 C15.7047846,21.673125 17.646731,21.560375 19.0534193,20.2355625 C19.9076278,19.43325 20.396731,18.34975 20.5200401,17.011875 L20.9788327,17.011875 C22.092748,17.011875 22.9993111,16.107125 23,14.99475 L23,9.669375 C23,8.557 22.092748,7.65225 20.9788327,7.65225 Z" id="Shape"></path>
        </g>
    </g>
</svg>