<?xml version="1.0" encoding="UTF-8"?>
<svg width="24px" height="24px" viewBox="0 0 24 24" version="1.1" xmlns="http://www.w3.org/2000/svg" xmlns:xlink="http://www.w3.org/1999/xlink">
    <!-- Generator: Sketch 48.1 (47250) - http://www.bohemiancoding.com/sketch -->
    <title>category/iwatch</title>
    <desc>Created with Sketch.</desc>
    <defs></defs>
    <g id="UI-Kit" stroke="none" stroke-width="1" fill="none" fill-rule="evenodd">
        <g id="category/iwatch" fill="#FFFFFF" fill-rule="nonzero">
            <path d="M18.3925246,16.6772196 L18.3925246,17.3643592 C18.3925246,18.8506002 17.2377389,20.0559587 15.813491,20.0559587 L7.57903364,20.0559587 C6.15478574,20.0559587 5,18.8506002 5,17.3639786 L5,6.63602136 C5,5.14939983 6.15478574,3.94404131 7.57903364,3.94404131 L15.813491,3.94404131 C17.2377389,3.94404131 18.3925246,5.14939983 18.3925246,6.63602136 L18.3925246,7.43536536 C18.4335907,7.42340522 18.4768825,7.41701147 18.5216039,7.41701147 C18.7859613,7.41701147 18.9999995,7.64080396 18.9999995,7.91635798 L18.9999995,10.0412448 C19.0003642,10.3171794 18.7859613,10.5409719 18.5216039,10.5409719 C18.4768825,10.5409719 18.4335907,10.5345673 18.3925246,10.522589 L18.3925246,12.1000649 C18.3981584,12.0994575 18.4038758,12.0991462 18.4096623,12.0991462 C18.50082,12.0991462 18.57484,12.1764079 18.57484,12.2715577 L18.57484,16.5057268 C18.57484,16.6008767 18.50082,16.6781384 18.4096623,16.6781384 C18.4038758,16.6781384 18.3981584,16.6778271 18.3925246,16.6772196 Z M16.4362804,3.17817097 L6.95587961,3.17817097 L7.44813119,1.47634535 C7.58486774,0.624183132 8.29152222,0 9.11923414,0 L14.2729259,0 C15.1006378,0 15.8069276,0.624183132 15.9436642,1.47596475 L16.4362804,3.17817097 Z M16.4362804,20.7945178 L15.9436642,22.5240353 C15.8069276,23.3758169 15.1006378,24 14.2729259,24 L9.11923414,24 C8.29152222,24 7.58486774,23.3758169 7.44813119,22.5236547 L6.95587961,20.7945178 L16.4362804,20.7945178 Z" id="Combined-Shape"></path>
        </g>
    </g>
</svg>