<?xml version="1.0" encoding="UTF-8"?>
<svg width="24px" height="24px" viewBox="0 0 24 24" version="1.1" xmlns="http://www.w3.org/2000/svg" xmlns:xlink="http://www.w3.org/1999/xlink">
    <!-- Generator: Sketch 48.1 (47250) - http://www.bohemiancoding.com/sketch -->
    <title>category/laptops</title>
    <desc>Created with Sketch.</desc>
    <defs></defs>
    <g id="UI-Kit" stroke="none" stroke-width="1" fill="none" fill-rule="evenodd">
        <g id="category/laptops" fill="#FFFFFF" fill-rule="nonzero">
            <path d="M0.034225377,17.1879574 C0.02261851,17.1649217 0.011309255,17.1418859 0,17.1194261 L24,17.1194261 C23.9788695,17.1836382 23.9571439,17.2510178 23.934823,17.3218527 C23.8398848,17.6175741 23.6511988,18.8134105 23.5098331,19 L0.750577398,19 C0.552665436,18.8306873 0.192554947,17.5052748 0.034225377,17.1879574 Z M21.2747238,16.0759242 L2.72727273,16.0759242 L2.72727273,5.42040233 C2.72727273,5.18918105 2.92458947,5 3.16595278,5 L20.8360437,5 C21.077407,5 21.2747238,5.18918105 21.2747238,5.42040233 L21.2747238,16.0759242 Z M12.0080454,6.96329455 C12.3417507,6.96329455 12.6122723,6.70155835 12.6122723,6.3786904 C12.6122723,6.05582244 12.3417507,5.79408625 12.0080454,5.79408625 C11.6743402,5.79408625 11.4038186,6.05582244 11.4038186,6.3786904 C11.4038186,6.70155835 11.6743402,6.96329455 12.0080454,6.96329455 Z" id="Combined-Shape"></path>
        </g>
    </g>
</svg>