<?xml version="1.0" encoding="UTF-8"?>
<svg width="24px" height="24px" viewBox="0 0 24 24" version="1.1" xmlns="http://www.w3.org/2000/svg" xmlns:xlink="http://www.w3.org/1999/xlink">
    <!-- Generator: Sketch 48.1 (47250) - http://www.bohemiancoding.com/sketch -->
    <title>category/lcd-televisions</title>
    <desc>Created with Sketch.</desc>
    <defs></defs>
    <g id="UI-Kit" stroke="none" stroke-width="1" fill="none" fill-rule="evenodd">
        <g id="category/lcd-televisions" fill="#FFFFFF" fill-rule="nonzero">
            <path d="M20.6341554,6.08037388 L15.7712067,6.08037388 C15.5232149,5.39422878 15.0937715,4.78839444 14.5287233,4.3275493 L16.5201008,2.32640791 C16.7094735,2.13680123 16.783432,1.86044347 16.7141168,1.60143592 C16.6448015,1.34242838 16.4427433,1.14012045 16.1840554,1.07071959 C15.9253674,1.00131873 15.6493507,1.07536857 15.459978,1.26497525 L13.1427829,3.58503334 C12.3989429,3.36143119 11.6059001,3.36143119 10.86206,3.58503334 L8.54486493,1.27714764 C8.36517742,1.0556169 8.07546878,0.95541994 7.79752871,1.01867827 C7.51958865,1.08193659 7.30161009,1.29768163 7.23522837,1.575217 C7.16884665,1.85275236 7.2655719,2.1439553 7.48474211,2.32640791 L9.47125666,4.31537691 C8.90620853,4.77622204 8.47676504,5.38205638 8.22877326,6.06820149 L3.36582455,6.06820149 C2.05921573,6.06820149 1,7.12872594 1,8.43694914 L1,20.609342 C1,21.237573 1.2492558,21.8400732 1.69293397,22.2842996 C2.13661214,22.7285259 2.73836887,22.9780897 3.36582455,22.9780897 L20.6341554,23 C21.9407643,23 22.99998,21.9394756 22.99998,20.6312523 L22.99998,8.45885945 C23.0025664,7.82894299 22.7544529,7.22393805 22.310494,6.77760333 C21.8665352,6.33126862 21.2632999,6.08036856 20.6341554,6.08037388 Z M19.4330071,17.8242985 C18.9898613,17.8242985 18.6306206,17.464614 18.6306206,17.0209206 C18.6306206,16.5772272 18.9898613,16.2175427 19.4330071,16.2175427 C19.8761529,16.2175427 20.2353936,16.5772272 20.2353936,17.0209206 C20.2353936,17.464614 19.8761529,17.8242985 19.4330071,17.8242985 Z M19.4330071,15.5431921 C18.9898613,15.5431921 18.6306206,15.1835076 18.6306206,14.7398142 C18.6306206,14.2961208 18.9898613,13.9364363 19.4330071,13.9364363 C19.8761529,13.9364363 20.2353936,14.2961208 20.2353936,14.7398142 C20.2360398,14.9533047 20.1517882,15.158273 20.0012414,15.3094626 C19.8506947,15.4606521 19.6462352,15.5456276 19.4330071,15.5456266 L19.4330071,15.5431921 Z M19.4330071,13.2620857 C18.9898613,13.2620857 18.6306206,12.9024011 18.6306206,12.4587078 C18.6306206,12.0150144 18.9898613,11.6553298 19.4330071,11.6553298 C19.8761529,11.6553298 20.2353936,12.0150144 20.2353936,12.4587078 C20.2360398,12.6721983 20.1517882,12.8771666 20.0012414,13.0283562 C19.8506947,13.1795457 19.6462352,13.2645211 19.4330071,13.2645202 L19.4330071,13.2620857 Z" id="Shape"></path>
        </g>
    </g>
</svg>