<?xml version="1.0" encoding="UTF-8"?>
<svg width="24px" height="24px" viewBox="0 0 24 24" version="1.1" xmlns="http://www.w3.org/2000/svg" xmlns:xlink="http://www.w3.org/1999/xlink">
    <!-- Generator: Sketch 48.1 (47250) - http://www.bohemiancoding.com/sketch -->
    <title>category/memory-cards</title>
    <desc>Created with Sketch.</desc>
    <defs></defs>
    <g id="UI-Kit" stroke="none" stroke-width="1" fill="none" fill-rule="evenodd">
        <g id="category/memory-cards" fill="#FFFFFF" fill-rule="nonzero">
            <path d="M18.3946931,1 L17.03395,1 L16.8247838,1 L16.8247838,5.25333333 C16.8247838,5.60948889 16.4310457,5.89793333 16.0589685,5.89793333 C15.6868913,5.89793333 15.2776233,5.60948889 15.2776233,5.25333333 L15.2776233,1 L14.2534632,1 L14.2534632,5.25333333 C14.2534632,5.60948889 13.8350712,5.89793333 13.462994,5.89793333 C13.0909168,5.89793333 12.683867,5.60948889 12.683867,5.25333333 L12.683867,1 L11.6692329,1 L11.6692329,5.25333333 C11.6692329,5.60948889 11.2666638,5.89793333 10.8945866,5.89793333 C10.5225094,5.89793333 10.1025748,5.60948889 10.1025748,5.25333333 L10.1025748,1 L9.08207,1 L9.08207,5.25333333 C9.08207,5.60948889 8.68180791,5.89793333 8.30973074,5.89793333 C7.93765356,5.89793333 7.5476519,5.60948889 7.5476519,5.25333333 L7.5476519,1 L6.60066442,1 L3,4.44422222 L3,20.5078889 C3.00127774,21.8843556 4.16785212,23 5.60658461,23 L18.3946931,23 C19.8336812,23 21,21.8843556 21,20.5078889 L21,3.49211111 C21,2.11564444 19.8334256,1 18.3946931,1 Z" id="Shape-Copy"></path>
        </g>
    </g>
</svg>