<?xml version="1.0" encoding="UTF-8"?>
<svg width="24px" height="24px" viewBox="0 0 24 24" version="1.1" xmlns="http://www.w3.org/2000/svg" xmlns:xlink="http://www.w3.org/1999/xlink">
    <!-- Generator: Sketch 48.1 (47250) - http://www.bohemiancoding.com/sketch -->
    <title>category/mice-keyboards</title>
    <desc>Created with Sketch.</desc>
    <defs></defs>
    <g id="UI-Kit" stroke="none" stroke-width="1" fill="none" fill-rule="evenodd">
        <g id="category/mice-keyboards" fill="#FFFFFF" fill-rule="nonzero">
            <path d="M19,6.19786667 L19,16.8293333 C19,20.7824 15.8601487,24 12,24 C8.1398513,24 5,20.7824 5,16.8293333 L5,6.19786667 C5,2.77946667 7.71230483,0 11.0481041,0 L11.7158364,0 L11.7158364,2.672 C11.0647584,2.80773333 10.5734572,3.39866667 10.5734572,4.10266667 L10.5734572,10.2893333 C10.5734572,11.0952 11.2136059,11.7512 12,11.7512 C12.7863941,11.7512 13.4265428,11.0952 13.4265428,10.2893333 L13.4265428,4.10266667 C13.4265428,3.39013333 12.9271747,2.7992 12.2677695,2.66906667 L12.2677695,0 L12.9521561,0 C16.2876952,0 19,2.77946667 19,6.19786667 Z M11.3101487,4.152 L11.3101487,7.1968 C11.3101487,7.5872 11.6190335,7.90373333 12,7.90373333 C12.3809665,7.90373333 12.6898513,7.5872 12.6898513,7.1968 L12.6898513,4.152 C12.6898513,3.7616 12.3809665,3.44506667 12,3.44506667 C11.6190335,3.44506667 11.3101487,3.7616 11.3101487,4.152 Z" id="Shape"></path>
        </g>
    </g>
</svg>