<?xml version="1.0" encoding="UTF-8"?>
<svg width="24px" height="24px" viewBox="0 0 24 24" version="1.1" xmlns="http://www.w3.org/2000/svg" xmlns:xlink="http://www.w3.org/1999/xlink">
    <!-- Generator: Sketch 48.1 (47250) - http://www.bohemiancoding.com/sketch -->
    <title>category/modems</title>
    <desc>Created with Sketch.</desc>
    <defs></defs>
    <g id="UI-Kit" stroke="none" stroke-width="1" fill="none" fill-rule="evenodd">
        <g id="category/modems" fill="#FFFFFF" fill-rule="nonzero">
            <path d="M22.9168259,5.76182308 C23.5190359,5.76694909 24.0034848,6.25039878 23.9999811,6.84274428 L24,17.6333196 L1.77635684e-15,17.6333196 L4.16028738e-05,6.84274428 C-0.00248192153,6.55853432 0.109888068,6.28497997 0.312429194,6.08226557 C0.51497032,5.87955117 0.791089779,5.76428373 1.08003888,5.76182308 L22.9168259,5.76182308 Z M3.15032048,9.18405998 L3.15032048,9.19862739 C3.42660365,9.19480123 3.68992543,9.08402468 3.88200009,8.89081789 C4.07407475,8.69761109 4.17906042,8.4379093 4.17371874,8.16919697 C4.17364112,7.75697184 3.91721792,7.38574652 3.52488132,7.22987135 C3.13254473,7.07399619 2.6822512,7.16444324 2.3854864,7.458733 C2.08872159,7.75302275 2.00445206,8.19268044 2.17225598,8.57121565 C2.34005991,8.94975087 2.72659499,9.19194945 3.15032048,9.18405998 Z M6.28075526,9.18405998 L6.28075526,9.19862739 C6.55703844,9.19480123 6.82036021,9.08402468 7.01243487,8.89081789 C7.20450954,8.69761109 7.3094952,8.4379093 7.30415353,8.16919697 C7.3040759,7.75697184 7.04765271,7.38574652 6.65531611,7.22987135 C6.26297951,7.07399619 5.81268598,7.16444324 5.51592118,7.458733 C5.21915637,7.75302275 5.13488684,8.19268044 5.30269077,8.57121565 C5.47049469,8.94975087 5.85702977,9.19194945 6.28075526,9.18405998 Z M9.41119004,9.18405998 L9.41119004,9.19862739 C9.68747322,9.19480123 9.95079499,9.08402468 10.1428697,8.89081789 C10.3349443,8.69761109 10.43993,8.4379093 10.4345883,8.16919697 C10.4345107,7.75697184 10.1780875,7.38574652 9.78575089,7.22987135 C9.39341429,7.07399619 8.94312077,7.16444324 8.64635596,7.458733 C8.34959115,7.75302275 8.26532163,8.19268044 8.43312555,8.57121565 C8.60092947,8.94975087 8.98746455,9.19194945 9.41119004,9.18405998 Z M20.8844596,9.18406055 L20.8844596,9.19862739 C21.1616134,9.19608533 21.4262199,9.0858768 21.6193729,8.89253619 C21.8125258,8.69919558 21.9181928,8.43877101 21.9128503,8.16923764 C21.9128067,7.7574636 21.6569474,7.38653413 21.265226,7.2303507 C20.8735046,7.07416727 20.4235833,7.16369464 20.1263971,7.45696002 C19.8292108,7.75022541 19.7436795,8.18908634 19.9099023,8.56779329 C20.0761251,8.94650024 20.461147,9.18997118 20.8844596,9.18406055 Z M4.16028738e-05,18.925291 L3.68057384e-05,18.3972548 L23.9999811,18.3972548 L23.9999811,18.9346093 C23.996551,19.5203961 23.5155256,19.9949158 22.9199838,20 L1.08003888,20 C0.480810477,19.9948771 -0.00171799062,19.5147114 4.16028738e-05,18.925291 Z M3.47371706,5.11034855 L3.80845306,0.231855742 C3.81015561,0.168769455 3.86883267,0.109084454 3.96950528,0.0680369755 C4.07649917,0.0240482262 4.21338194,1.88730953e-05 4.35476747,0.000405374633 C4.64036645,-0.00730905057 4.88562881,0.0960010951 4.90423977,0.231855742 L5.36844913,5.11034855 L3.47371706,5.11034855 Z" id="Combined-Shape"></path>
        </g>
    </g>
</svg>