<?xml version="1.0" encoding="UTF-8"?>
<svg width="24px" height="24px" viewBox="0 0 24 24" version="1.1" xmlns="http://www.w3.org/2000/svg" xmlns:xlink="http://www.w3.org/1999/xlink">
    <!-- Generator: Sketch 48.1 (47250) - http://www.bohemiancoding.com/sketch -->
    <title>category/motherboards</title>
    <desc>Created with Sketch.</desc>
    <defs></defs>
    <g id="UI-Kit" stroke="none" stroke-width="1" fill="none" fill-rule="evenodd">
        <g id="category/motherboards" fill="#FFFFFF" fill-rule="nonzero">
            <path d="M23.4,1 L2.296,1 C1.96462915,1 1.696,1.27441685 1.696,1.61292719 L1.696,2.7243685 L0.6,2.7243685 C0.26862915,2.7243685 0,2.99878535 0,3.33729569 L0,11.8079495 C0.00653480496,12.141663 0.273259432,12.4086849 0.6,12.4086181 L1.696,12.4086181 L1.696,22.3870728 C1.696,22.7255831 1.96462915,23 2.296,23 L23.4,23 C23.7313708,23 24,22.7255831 24,22.3870728 L24,1.61292719 C24,1.27441685 23.7313708,1 23.4,1 Z M2.26,11.1827637 L1.2,11.1827637 L1.2,8.18759287 L2.26,8.18759287 L2.26,11.1827637 Z M2.26,6.94947994 L1.2,6.94947994 L1.2,3.95022288 L2.26,3.95022288 L2.26,6.94947994 Z M16.58,4.86552749 L17.78,4.86552749 L17.78,13.3484398 L16.58,13.3484398 L16.58,4.86552749 Z M5.112,9.46248143 L6.428,9.46248143 L6.428,8.37964339 L5.112,8.37964339 L5.112,7.153789 L6.428,7.153789 L6.428,6.03417533 C6.428,5.69566499 6.69662915,5.42124814 7.028,5.42124814 L7.936,5.42124814 L7.936,4.26485884 L9.136,4.26485884 L9.136,5.42124814 L10.2,5.42124814 L10.2,4.26485884 L11.4,4.26485884 L11.4,5.42124814 L12.304,5.42124814 C12.6353708,5.42124814 12.904,5.69566499 12.904,6.03417533 L12.904,7.153789 L14.224,7.153789 L14.224,8.37964339 L12.904,8.37964339 L12.904,9.46248143 L14.224,9.46248143 L14.224,10.6883358 L12.904,10.6883358 L12.904,11.4238484 C12.904,11.7623588 12.6353708,12.0367756 12.304,12.0367756 L11.4,12.0367756 L11.4,13.577266 L10.2,13.577266 L10.2,12.0367756 L9.136,12.0367756 L9.136,13.577266 L7.936,13.577266 L7.936,12.0367756 L7.028,12.0367756 C6.69662915,12.0367756 6.428,11.7623588 6.428,11.4238484 L6.428,10.6883358 L5.112,10.6883358 L5.112,9.46248143 Z M19.668,19.506315 C19.668,19.8448253 19.3993708,20.1192422 19.068,20.1192422 L5.124,20.1192422 C4.79262915,20.1192422 4.524,19.8448253 4.524,19.506315 L4.524,17.9249629 C4.524,17.5864525 4.79262915,17.3120357 5.124,17.3120357 L19.068,17.3120357 C19.3993708,17.3120357 19.668,17.5864525 19.668,17.9249629 L19.668,19.506315 Z M20.8,13.3484398 L19.6,13.3484398 L19.6,4.87778603 L20.8,4.87778603 L20.8,13.3484398 Z M11.704,10.8109212 L7.628,10.8109212 L7.628,6.64710253 L11.704,6.64710253 L11.704,10.8109212 Z" id="Shape"></path>
        </g>
    </g>
</svg>