<?xml version="1.0" encoding="UTF-8"?>
<svg width="24px" height="24px" viewBox="0 0 24 24" version="1.1" xmlns="http://www.w3.org/2000/svg" xmlns:xlink="http://www.w3.org/1999/xlink">
    <!-- Generator: Sketch 48.1 (47250) - http://www.bohemiancoding.com/sketch -->
    <title>category/networking</title>
    <desc>Created with Sketch.</desc>
    <defs></defs>
    <g id="UI-Kit" stroke="none" stroke-width="1" fill="none" fill-rule="evenodd">
        <g id="category/networking" fill="#FFFFFF" fill-rule="nonzero">
            <path d="M18.7222222,2 C21.0688889,2 23,3.88737201 23,6.18088737 L23,18.8191126 C23,21.112628 21.0688889,23 18.7222222,23 L5.27777778,23 C2.93111111,23 1,21.112628 1,18.8191126 L1,6.18088737 C1,3.88737201 2.93111111,2 5.27777778,2 L18.7222222,2 Z M19.3333333,14.9726962 C19.7,14.9726962 19.9933333,14.6860068 19.9688889,14.3276451 L19.9688889,6.3003413 C19.9688889,5.98976109 19.7244444,5.75085324 19.4066667,5.75085324 L4.59333333,5.75085324 C4.27555556,5.75085324 4.03111111,5.98976109 4.03111111,6.3003413 L4.03111111,14.3515358 C4.03111111,14.6860068 4.3,14.9726962 4.66666667,14.9726962 L6.20666667,14.9726962 L6.20666667,18.0546075 L7.01333333,18.0546075 L7.01333333,19.8225256 C7.01333333,20.1331058 7.25777778,20.3720137 7.57555556,20.3720137 L16.4244444,20.3720137 C16.7422222,20.3720137 16.9866667,20.1331058 16.9866667,19.8225256 L16.9866667,18.0546075 L17.7933333,18.0546075 L17.7933333,14.9726962 L19.3333333,14.9726962 Z M5.00888889,6.73037543 L6.01111111,6.73037543 L6.01111111,9.33447099 L5.00888889,9.33447099 L5.00888889,6.73037543 Z M6.86666667,6.73037543 L7.86888889,6.73037543 L7.86888889,9.33447099 L6.86666667,9.33447099 L6.86666667,6.73037543 Z M8.72444444,6.73037543 L9.72666667,6.73037543 L9.72666667,9.33447099 L8.72444444,9.33447099 L8.72444444,6.73037543 Z M10.5822222,6.73037543 L11.5844444,6.73037543 L11.5844444,9.33447099 L10.5822222,9.33447099 L10.5822222,6.73037543 Z M12.44,6.73037543 L13.4422222,6.73037543 L13.4422222,9.33447099 L12.44,9.33447099 L12.44,6.73037543 Z M14.2977778,6.73037543 L15.3,6.73037543 L15.3,9.33447099 L14.2977778,9.33447099 L14.2977778,6.73037543 Z M16.1555556,6.73037543 L17.1577778,6.73037543 L17.1577778,9.33447099 L16.1555556,9.33447099 L16.1555556,6.73037543 Z M18.0133333,6.73037543 L19.0155556,6.73037543 L19.0155556,9.33447099 L18.0133333,9.33447099 L18.0133333,6.73037543 Z" id="Combined-Shape"></path>
        </g>
    </g>
</svg>