<?xml version="1.0" encoding="UTF-8"?>
<svg width="24px" height="24px" viewBox="0 0 24 24" version="1.1" xmlns="http://www.w3.org/2000/svg" xmlns:xlink="http://www.w3.org/1999/xlink">
    <!-- Generator: Sketch 48.1 (47250) - http://www.bohemiancoding.com/sketch -->
    <title>category/printers</title>
    <desc>Created with Sketch.</desc>
    <defs></defs>
    <g id="UI-Kit" stroke="none" stroke-width="1" fill="none" fill-rule="evenodd">
        <g id="category/printers" fill="#FFFFFF" fill-rule="nonzero">
            <path d="M21.49425,11.82275 L18.96675,11.82275 C18.96675,9.58025 18.96675,2.2475 18.96675,2.2475 L5.0325,2.2475 L5.0325,11.82275 L2.50575,11.82275 C1.12425,11.82275 0,12.947 0,14.3285 L0,19.349 C0,20.73125 1.12425,21.8555 2.50575,21.8555 L2.613,21.8555 L2.613,22.7525 L7.119,22.7525 L7.119,21.8555 L17.1585,21.8555 L17.1585,22.7525 L21.6645,22.7525 L21.6645,21.83825 C22.96575,21.749 24,20.67275 24,19.349 L24,14.3285 C24,12.947 22.87575,11.82275 21.49425,11.82275 Z M6.5325,3.7475 L17.46675,3.7475 L17.46675,11.82275 L6.5325,11.82275 L6.5325,3.7475 Z M15.30825,17.54 C15.30825,17.89025 15.02175,18.1775 14.67075,18.1775 L9.38925,18.1775 C9.039,18.1775 8.75175,17.891 8.75175,17.54 L8.75175,15.4025 C8.75175,15.05225 9.03825,14.765 9.38925,14.765 L14.67075,14.765 C15.021,14.765 15.30825,15.0515 15.30825,15.4025 L15.30825,17.54 Z M7.63425,4.8665 L16.3665,4.8665 L16.3665,6.3665 L7.63425,6.3665 L7.63425,4.8665 Z M7.63425,7.1705 L16.3665,7.1705 L16.3665,8.6705 L7.63425,8.6705 L7.63425,7.1705 Z" id="Combined-Shape"></path>
        </g>
    </g>
</svg>