<?xml version="1.0" encoding="UTF-8"?>
<svg width="24px" height="24px" viewBox="0 0 24 24" version="1.1" xmlns="http://www.w3.org/2000/svg" xmlns:xlink="http://www.w3.org/1999/xlink">
    <!-- Generator: Sketch 48.1 (47250) - http://www.bohemiancoding.com/sketch -->
    <title>category/projectors</title>
    <desc>Created with Sketch.</desc>
    <defs></defs>
    <g id="UI-Kit" stroke="none" stroke-width="1" fill="none" fill-rule="evenodd">
        <g id="category/projectors" fill="#FFFFFF" fill-rule="nonzero">
            <path d="M16.75,11.5 C16.75,8.88085 14.6189125,6.75 12,6.75 C9.38085,6.75 7.25,8.88085 7.25,11.5 C7.25,14.1189125 9.38085,16.25 12,16.25 C14.6189125,16.25 16.75,14.1189125 16.75,11.5 Z M12,14.35 C10.4287,14.35 9.15,13.0713 9.15,11.5 C9.15,9.9287 10.4287,8.65 12,8.65 C13.5713,8.65 14.85,9.92775 14.85,11.5 C14.85,13.07225 13.5713,14.35 12,14.35 Z M24,13 L24,14 L24,14.906 C24,16.061 23.061,17 21.906,17 L21,17 C21.275,17 21.5,17.225 21.5,17.5 C21.5,17.775 21.275,18 21,18 L19,18 C18.725,18 18.5,17.775 18.5,17.5 C18.5,17.225 18.725,17 19,17 L14.391,17 C16.512,16.074 18,13.959 18,11.5 C18,9.041 16.51425,6.926 14.391,6 L21.906,6 C23.061,6 24,6.94 24,8.094 L24,9 L24,10 L24,11 L24,12 L24,13 Z M9.609,17 L5,17 C5.276,17 5.5,17.225 5.5,17.5 C5.5,17.775 5.276,18 5,18 L3,18 C2.724,18 2.5,17.775 2.5,17.5 C2.5,17.225 2.724,17 3,17 L2.094,17 C0.939,17 0,16.061 0,14.906 L0,14 L0,13 L0,12 L0,11 L0,10 L0,9 L0,8.094 C0,6.939 0.94,6 2.094,6 L9.609,6 C7.488,6.926 6,9.041 6,11.5 C6,13.959 7.487,16.074 9.609,17 Z" id="Combined-Shape"></path>
        </g>
    </g>
</svg>