<?xml version="1.0" encoding="UTF-8"?>
<svg width="24px" height="24px" viewBox="0 0 24 24" version="1.1" xmlns="http://www.w3.org/2000/svg" xmlns:xlink="http://www.w3.org/1999/xlink">
    <!-- Generator: Sketch 48.1 (47250) - http://www.bohemiancoding.com/sketch -->
    <title>category/server-options</title>
    <desc>Created with Sketch.</desc>
    <defs></defs>
    <g id="UI-Kit" stroke="none" stroke-width="1" fill="none" fill-rule="evenodd">
        <g id="category/server-options" fill="#FFFFFF">
            <path d="M2.83333333,1 L21.1666667,1 C22.1791887,1 23,1.82081129 23,2.83333333 L23,21.1666667 C23,22.1791887 22.1791887,23 21.1666667,23 L2.83333333,23 C1.82081129,23 1,22.1791887 1,21.1666667 L1,2.83333333 C1,1.82081129 1.82081129,1 2.83333333,1 Z M2.83333333,2.22222222 C2.49582599,2.22222222 2.22222222,2.49582599 2.22222222,2.83333333 L2.22222222,21.1666667 C2.22222222,21.504174 2.49582599,21.7777778 2.83333333,21.7777778 L21.1666667,21.7777778 C21.504174,21.7777778 21.7777778,21.504174 21.7777778,21.1666667 L21.7777778,2.83333333 C21.7777778,2.49582599 21.504174,2.22222222 21.1666667,2.22222222 L2.83333333,2.22222222 Z M7.11111111,5.27777778 L16.8888889,5.27777778 C17.9014109,5.27777778 18.7222222,6.09858907 18.7222222,7.11111111 L18.7222222,16.8888889 C18.7222222,17.9014109 17.9014109,18.7222222 16.8888889,18.7222222 L7.11111111,18.7222222 C6.09858907,18.7222222 5.27777778,17.9014109 5.27777778,16.8888889 L5.27777778,7.11111111 C5.27777778,6.09858907 6.09858907,5.27777778 7.11111111,5.27777778 Z M11.6944444,4.66666667 C11.1881834,4.66666667 10.7777778,4.25626102 10.7777778,3.75 C10.7777778,3.24373898 11.1881834,2.83333333 11.6944444,2.83333333 C12.2007055,2.83333333 12.6111111,3.24373898 12.6111111,3.75 C12.6111111,4.25626102 12.2007055,4.66666667 11.6944444,4.66666667 Z M6.19444444,21.1666667 C5.68818342,21.1666667 5.27777778,20.756261 5.27777778,20.25 C5.27777778,19.743739 5.68818342,19.3333333 6.19444444,19.3333333 C6.70070547,19.3333333 7.11111111,19.743739 7.11111111,20.25 C7.11111111,20.756261 6.70070547,21.1666667 6.19444444,21.1666667 Z M14.75,4.66666667 C14.243739,4.66666667 13.8333333,4.25626102 13.8333333,3.75 C13.8333333,3.24373898 14.243739,2.83333333 14.75,2.83333333 C15.256261,2.83333333 15.6666667,3.24373898 15.6666667,3.75 C15.6666667,4.25626102 15.256261,4.66666667 14.75,4.66666667 Z M9.25,21.1666667 C8.74373898,21.1666667 8.33333333,20.756261 8.33333333,20.25 C8.33333333,19.743739 8.74373898,19.3333333 9.25,19.3333333 C9.75626102,19.3333333 10.1666667,19.743739 10.1666667,20.25 C10.1666667,20.756261 9.75626102,21.1666667 9.25,21.1666667 Z M17.8055556,4.66666667 C17.2992945,4.66666667 16.8888889,4.25626102 16.8888889,3.75 C16.8888889,3.24373898 17.2992945,2.83333333 17.8055556,2.83333333 C18.3118166,2.83333333 18.7222222,3.24373898 18.7222222,3.75 C18.7222222,4.25626102 18.3118166,4.66666667 17.8055556,4.66666667 Z M12.3055556,21.1666667 C11.7992945,21.1666667 11.3888889,20.756261 11.3888889,20.25 C11.3888889,19.743739 11.7992945,19.3333333 12.3055556,19.3333333 C12.8118166,19.3333333 13.2222222,19.743739 13.2222222,20.25 C13.2222222,20.756261 12.8118166,21.1666667 12.3055556,21.1666667 Z" id="Combined-Shape"></path>
        </g>
    </g>
</svg>