<?xml version="1.0" encoding="UTF-8"?>
<svg width="24px" height="24px" viewBox="0 0 24 24" version="1.1" xmlns="http://www.w3.org/2000/svg" xmlns:xlink="http://www.w3.org/1999/xlink">
    <!-- Generator: Sketch 48.1 (47250) - http://www.bohemiancoding.com/sketch -->
    <title>category/servers</title>
    <desc>Created with Sketch.</desc>
    <defs></defs>
    <g id="UI-Kit" stroke="none" stroke-width="1" fill="none" fill-rule="evenodd">
        <g id="category/servers" fill="#FFFFFF">
            <path d="M2.04984076,1 L21.9501591,1 C22.5215737,1 23,1.46596389 23,2.04984093 L23,6.93354542 C23,7.51742247 22.5215712,7.98338636 21.9501591,7.98338636 L2.04984076,7.98338636 C1.47745581,7.98338636 1,7.50668454 1,6.93354542 L1,2.04984093 C1,1.47669933 1.47745581,1 2.04984076,1 Z M19.3372208,3.21633086 C18.640283,3.21633086 18.0618586,3.794447 18.0618586,4.49169318 C18.0618586,5.18893936 18.6327677,5.7748321 19.3372208,5.7748321 C20.0416734,5.7748321 20.6125831,5.18893936 20.6125831,4.49169318 C20.6125831,3.794447 20.0341559,3.21633086 19.3372208,3.21633086 Z M1.94096849,16.0088495 L22.0590315,16.0088495 C22.5833487,16.0088495 23,16.4365251 23,16.9498056 L23,22.0590439 C23,22.5710552 22.5701198,23 22.0590315,23 L1.94096849,23 C1.42988044,23 1,22.5710552 1,22.0590439 L1,16.9498056 C1,16.4365251 1.41665152,16.0088495 1.94096849,16.0088495 Z M19.3372208,18.2329569 C18.640283,18.2329569 18.0618586,18.8110631 18.0618586,19.5083193 C18.0618586,20.2055505 18.6327677,20.7914457 19.3372208,20.7914457 C20.0416734,20.7914457 20.6125831,20.2055505 20.6125831,19.5083193 C20.6125831,18.8110631 20.0341559,18.2329569 19.3372208,18.2329569 Z M1.95652169,8.54330152 L22.0357017,8.54330152 C22.5591927,8.54330152 23,8.96671186 23,9.49203671 L23,14.5701661 C23,15.0955159 22.5591952,15.5189113 22.0357017,15.5189113 L1.95652169,15.5189113 C1.43220471,15.5189113 1,15.0955159 1,14.5701661 L1,9.49203671 C1,8.96671186 1.4322072,8.54330152 1.95652169,8.54330152 Z M19.3372208,10.7518458 C18.6327677,10.7518458 18.0618586,11.3377411 18.0618586,12.0349947 C18.0618586,12.7285678 18.6327677,13.310357 19.3372208,13.310357 C20.0416734,13.310357 20.6125831,12.7285678 20.6125831,12.0349947 C20.6125831,11.3377411 20.0416734,10.7518458 19.3372208,10.7518458 Z" id="Combined-Shape"></path>
        </g>
    </g>
</svg>