<?xml version="1.0" encoding="UTF-8"?>
<svg width="24px" height="24px" viewBox="0 0 24 24" version="1.1" xmlns="http://www.w3.org/2000/svg" xmlns:xlink="http://www.w3.org/1999/xlink">
    <!-- Generator: Sketch 48.1 (47250) - http://www.bohemiancoding.com/sketch -->
    <title>category/smart-home</title>
    <desc>Created with Sketch.</desc>
    <defs></defs>
    <g id="UI-Kit" stroke="none" stroke-width="1" fill="none" fill-rule="evenodd">
        <g id="category/smart-home" fill="#FFFFFF" fill-rule="nonzero">
            <path d="M22.6449762,9.00154431 L12.556224,1.18573988 C12.2109815,0.913547688 11.7890185,0.952432287 11.443776,1.22462448 L1.35502383,9.00154431 C0.664538889,9.5459287 1.04814163,10.5569283 1.93042795,10.5569283 L3.31139783,10.5569283 L3.31139783,21.5612698 C3.31139783,22.222308 3.6566403,23 4.30876497,23 L10.8289256,23 C10.8289256,21.05577 10.8289256,19.5003861 10.8289256,18.3338481 C10.8289256,17.1673101 13.1605306,17.1673101 13.1605306,18.3338481 C13.1605306,19.5003861 13.1605306,21.05577 13.1605306,23 L19.691235,23 C20.3433597,23 20.9571241,22.1834234 20.9571241,21.5612698 L20.9571241,10.5569283 L22.0695721,10.5569283 C22.9518584,10.5569283 23.3354611,9.5459287 22.6449762,9.00154431 Z M16.0068052,16.5402667 C15.6104071,17.1068077 14.8395008,17.053733 14.5709789,16.8204254 C13.9188542,16.1205027 13.0932678,15.7509008 12.134261,15.7509008 C11.2136144,15.7509008 10.3229846,16.1771553 9.67920339,16.8396696 C9.40264667,17.1242737 8.72438337,17.1037789 8.31543787,16.4273399 C7.90649238,15.7509008 8.49003488,15.145311 8.75855681,14.8731188 C9.67920339,13.9398884 10.9148674,13.5367156 12.1807565,13.5367156 C13.4850058,13.5367156 14.7043994,13.9398884 15.5866857,14.8731188 C16.0320757,15.2600998 16.4032033,15.9737256 16.0068052,16.5402667 Z M18.3669208,13.4430617 C17.8283453,13.8507499 17.21141,13.5268433 17.0162993,13.3637069 C15.643881,12.2161974 13.9478813,11.5902487 12.134261,11.5902487 C10.3978215,11.5902487 8.82371955,12.2165246 7.48369454,13.2725171 C7.22516034,13.4762523 6.45831943,13.8844401 5.92480316,13.4430617 C5.39128688,13.0016832 5.49793347,12.2678506 5.7664554,11.9956584 C7.45430747,10.2847361 9.76484734,9.47616993 12.1431844,9.47616993 C14.5598817,9.47616993 16.8142144,10.2458515 18.5404268,11.9956584 C18.8089487,12.2678506 18.9054964,13.0353734 18.3669208,13.4430617 Z" id="Shape"></path>
        </g>
    </g>
</svg>