<?xml version="1.0" encoding="UTF-8"?>
<svg width="24px" height="24px" viewBox="0 0 24 24" version="1.1" xmlns="http://www.w3.org/2000/svg" xmlns:xlink="http://www.w3.org/1999/xlink">
    <!-- Generator: Sketch 48.1 (47250) - http://www.bohemiancoding.com/sketch -->
    <title>category/ssd</title>
    <desc>Created with Sketch.</desc>
    <defs></defs>
    <g id="UI-Kit" stroke="none" stroke-width="1" fill="none" fill-rule="evenodd">
        <g id="category/ssd" fill="#FFFFFF" fill-rule="nonzero">
            <path d="M20.5280667,1 L4.47193333,1 C3.16176667,1 2,1.99595833 2,3.22429167 L2,20.7763958 C2,22.0040417 3.16176667,23 4.47193333,23 L20.5280667,23 C21.8375333,23 23,22.0040417 23,20.7763958 L23,3.22429167 C23,1.99595833 21.8375333,1 20.5280667,1 Z M4.49993333,12 C4.49993333,7.66072917 8.08206667,4.14279167 12.5,4.14279167 C14.8046333,4.14279167 16.8766333,5.10575 18.3359,6.6381875 L14.1991333,10.2296875 C13.7546333,9.8185625 13.1594,9.5614375 12.5,9.5614375 C11.1289333,9.5614375 10.0171,10.6534167 10.0171,12 C10.0171,12.5555 10.2140333,13.0619583 10.5318333,13.4717083 L5.77813333,16.2508125 C4.97266667,15.0245417 4.49993333,13.5677292 4.49993333,12 Z M12.5,19.8572083 C10.0843,19.8572083 7.9234,18.8005208 6.45643333,17.1379167 L10.5946,13.5452708 C11.0500667,14.0861042 11.7295333,14.4383333 12.5,14.4383333 C13.8710667,14.4383333 14.9829,13.3463542 14.9829,11.9997708 C14.9829,11.3498542 14.7197,10.7622708 14.2971333,10.3254792 L19.0767333,7.53170833 C19.9720333,8.80083333 20.5003,10.3385417 20.5003,11.9997708 C20.5000667,16.3392708 16.9181667,19.8572083 12.5,19.8572083 Z" id="Shape"></path>
        </g>
    </g>
</svg>