<?xml version="1.0" encoding="UTF-8"?>
<svg width="24px" height="24px" viewBox="0 0 24 24" version="1.1" xmlns="http://www.w3.org/2000/svg" xmlns:xlink="http://www.w3.org/1999/xlink">
    <!-- Generator: Sketch 48.1 (47250) - http://www.bohemiancoding.com/sketch -->
    <title>category/tablets</title>
    <desc>Created with Sketch.</desc>
    <defs></defs>
    <g id="UI-Kit" stroke="none" stroke-width="1" fill="none" fill-rule="evenodd">
        <g id="category/tablets" fill="#FFFFFF" fill-rule="nonzero">
            <path d="M21,2.375 L21,3.2055 L4,3.2055 L4,2.375 C4,1.61875 4.6375,1 5.41666667,1 L19.5833333,1 C20.3625,1 21,1.61875 21,2.375 Z M4,4.5805 L21,4.5805 L21,18.0445 L4,18.0445 L4,4.5805 Z M4,21.625 L4,19.4195 L21,19.4195 L21,21.625 C21,22.38125 20.3625,23 19.5833333,23 L5.41666667,23 C4.6375,23 4,22.38125 4,21.625 Z M12.5,20.547 C12.115375,20.547 11.803,20.844 11.803,21.20975 C11.803,21.5755 12.115375,21.8725 12.5,21.8725 C12.884625,21.8725 13.197,21.5755 13.197,21.20975 C13.197,20.844 12.884625,20.547 12.5,20.547 Z" id="Combined-Shape"></path>
        </g>
    </g>
</svg>