<?xml version="1.0" encoding="UTF-8"?>
<svg width="24px" height="24px" viewBox="0 0 24 24" version="1.1" xmlns="http://www.w3.org/2000/svg" xmlns:xlink="http://www.w3.org/1999/xlink">
    <!-- Generator: Sketch 48.1 (47250) - http://www.bohemiancoding.com/sketch -->
    <title>category/tv-streaming-devices</title>
    <desc>Created with Sketch.</desc>
    <defs></defs>
    <g id="UI-Kit" stroke="none" stroke-width="1" fill="none" fill-rule="evenodd">
        <g id="category/tv-streaming-devices" fill="#FFFFFF">
            <path d="M6.90243902,1 L17.097561,1 C20.357388,1 23,3.64261196 23,6.90243902 L23,17.097561 C23,20.357388 20.357388,23 17.097561,23 L6.90243902,23 C3.64261196,23 1,20.357388 1,17.097561 L1,6.90243902 C1,3.64261196 3.64261196,1 6.90243902,1 Z M9.99668565,9.69553626 L9.99668565,7.97560976 L8.40375627,7.97560976 L8.40375627,9.69553626 L7.43902439,9.69553626 L7.43902439,10.7496848 L8.40375627,10.7496848 L8.40375627,14.1340563 C8.40375627,14.4225615 8.4523663,14.6555815 8.54958783,14.8331232 C8.64680936,15.0106649 8.77955215,15.1475179 8.94782018,15.2436863 C9.1160882,15.3398547 9.31052834,15.4045825 9.53114643,15.4378715 C9.75176451,15.4711606 9.9854666,15.4878049 10.2322597,15.4878049 C10.3893099,15.4878049 10.5500969,15.4841061 10.7146256,15.4767086 C10.8791544,15.469311 11.0287237,15.4545161 11.1633381,15.4323234 L11.1633381,14.2117304 C11.0885524,14.2265255 11.0100285,14.2376217 10.9277641,14.2450193 C10.8454997,14.2524168 10.7594973,14.2561156 10.6697544,14.2561156 C10.4005256,14.2561156 10.2210423,14.2117308 10.1312994,14.12296 C10.0415564,14.0341891 9.99668565,13.8566501 9.99668565,13.5903376 L9.99668565,10.7496848 L11.1633381,10.7496848 L11.1633381,9.69553626 L9.99668565,9.69553626 Z M15.1344438,15.4323234 L17.097561,9.69553626 L15.5158494,9.69553626 L14.2931078,13.6125302 L14.2706722,13.6125302 L13.0479307,9.69553626 L11.3764766,9.69553626 L13.3620294,15.4323234 L15.1344438,15.4323234 Z" id="Combined-Shape"></path>
        </g>
    </g>
</svg>