<?xml version="1.0" encoding="UTF-8"?>
<svg width="24px" height="24px" viewBox="0 0 24 24" version="1.1" xmlns="http://www.w3.org/2000/svg" xmlns:xlink="http://www.w3.org/1999/xlink">
    <!-- Generator: Sketch 48.1 (47250) - http://www.bohemiancoding.com/sketch -->
    <title>category/video-cards</title>
    <desc>Created with Sketch.</desc>
    <defs></defs>
    <g id="UI-Kit" stroke="none" stroke-width="1" fill="none" fill-rule="evenodd">
        <g id="category/video-cards" fill="#FFFFFF" fill-rule="nonzero">
            <path d="M22.0408163,6 C23.090379,6 24,6.96022727 24,8.14204545 L24,16.9318182 C24,18.0397727 23.1603499,19 22.0408163,19 L2.00372132,19 L2.00372132,20.0097705 L0.419825073,20.0097705 L0.419825073,19 L0.419825073,17.5294973 L0.419825073,16.0454545 L0,16.0454545 L0,13.6818182 L0.419825073,13.6818182 L0.419825073,11.3920455 L0,11.3920455 L0,9.02840909 L0.349854227,9.02840909 L0.349854227,6 L0.349854227,5 L2.00372132,5 L2.00372132,6 L22.0408163,6 Z M10.8962551,15.6245571 C11.8301014,15.6245571 9.13506814,15.1266523 9.13506814,12.5 C9.13506814,9.87334772 11.7628299,9.37544287 10.8962551,9.37544287 C9.51042002,9.37544287 7.94414845,10.753924 7.94414845,12.5 C7.94414845,14.246076 9.44628014,15.6245571 10.8962551,15.6245571 Z M8.53960829,15.6245571 C9.47345453,15.6245571 6.77842129,15.1266523 6.77842129,12.5 C6.77842129,9.87334772 9.4061831,9.37544287 8.53960829,9.37544287 C7.15377317,9.37544287 5.5875016,10.753924 5.5875016,12.5 C5.5875016,14.246076 7.08963329,15.6245571 8.53960829,15.6245571 Z M6.18296145,15.6245571 C7.11680769,15.6245571 4.42177444,15.1266523 4.42177444,12.5 C4.42177444,9.87334772 7.04953625,9.37544287 6.18296145,9.37544287 C4.79712633,9.37544287 3.23085475,10.753924 3.23085475,12.5 C3.23085475,14.246076 4.73298644,15.6245571 6.18296145,15.6245571 Z M16.8425656,18.1104351 C19.7344158,18.1104351 22.1573173,15.6352431 22.1573173,12.5 C22.1573173,9.36475687 19.8125739,6.88956492 16.8425656,6.88956492 C13.8725573,6.88956492 11.5278139,9.36475687 11.5278139,12.5 C11.5278139,15.6352431 13.8725573,18.1104351 16.8425656,18.1104351 Z M17.5874177,12.5 C17.5874177,12.9233878 17.2436398,13.2862916 16.8425656,13.2862916 C16.3841951,13.2862916 16.0977135,12.9233878 16.0977135,12.5 C16.0977135,12.0161283 16.4414914,11.7137084 16.8425656,11.7137084 C17.2436398,11.7137084 17.5874177,12.0766122 17.5874177,12.5 Z M16.5523955,13.8047968 C16.3347679,15.6426783 16.8425656,17.1742463 16.8425656,17.2508247 C15.4642575,17.2508247 14.2310344,16.5616191 13.4330665,15.5660999 C14.0134068,14.800316 14.7388321,13.9579536 15.7544276,13.1921696 C15.9720552,13.4984832 16.1896828,13.7282184 16.5523955,13.8047968 Z M18.0032461,12.8092776 C19.7442669,13.0390128 21.2676601,12.502964 21.2676601,12.502964 C21.2676601,13.9579536 20.6147773,15.2597863 19.6717244,16.1021487 C18.9462991,15.4895215 18.1483312,14.7237376 17.4229059,13.65164 C17.713076,13.4219048 17.9307036,13.1921696 18.0032461,12.8092776 Z M17.1327357,11.2777096 C17.2778208,9.43982806 16.8425656,7.8316817 16.8425656,7.8316817 C18.2208737,7.8316817 19.4540968,8.52088728 20.2520647,9.51640646 C19.6717244,10.2821904 18.9462991,11.1245528 17.9307036,11.8903368 C17.713076,11.5840232 17.4954484,11.354288 17.1327357,11.2777096 Z M15.6818851,12.2732288 C13.9408643,12.0434936 12.4174711,12.502964 12.4174711,12.5795424 C12.4174711,11.1245528 13.0703539,9.82272006 14.0134068,8.98035767 C14.7388321,9.59298486 15.5368,10.3587688 16.2622253,11.4308664 C15.9720552,11.6606016 15.7544276,11.8903368 15.6818851,12.2732288 Z" id="Combined-Shape"></path>
        </g>
    </g>
</svg>