<?xml version="1.0" encoding="UTF-8"?>
<svg width="24px" height="24px" viewBox="0 0 24 24" version="1.1" xmlns="http://www.w3.org/2000/svg" xmlns:xlink="http://www.w3.org/1999/xlink">
    <!-- Generator: Sketch 48.1 (47250) - http://www.bohemiancoding.com/sketch -->
    <title>category/virtual-reality</title>
    <desc>Created with Sketch.</desc>
    <defs></defs>
    <g id="UI-Kit" stroke="none" stroke-width="1" fill="none" fill-rule="evenodd">
        <g id="category/virtual-reality" fill="#FFFFFF" fill-rule="nonzero">
            <path d="M23.6411201,7.21537305 C23.4007019,5.78331614 22.2787505,4.72953842 20.8629546,4.54039883 C17.9245103,4.16211965 14.9593528,4 12.0209085,4 C9.08246422,4 6.11730678,4.18913959 3.17886248,4.54039883 C1.76306658,4.72953842 0.641115121,5.78331614 0.400696951,7.21537305 C0.13356565,8.83656954 0,10.484786 0,12.1059825 C0,13.727179 0.13356565,15.3483755 0.400696951,16.942552 C0.641115121,18.347589 1.78977971,19.4554066 3.17886248,19.6175262 C4.8885028,19.8336858 6.03716739,19.9417655 6.59814312,19.9958054 C6.65156938,19.9958054 6.67828251,19.9958054 6.73170877,19.9958054 C7.85366023,19.9958054 8.81533292,18.9420277 9.75029247,17.88825 C10.4982601,17.0776517 11.3530803,16.1319538 11.9941954,16.1319538 C12.6353105,16.1319538 13.4901307,17.0506318 14.2380983,17.88825 C15.2264841,18.9690476 16.2415831,20.0768652 17.3902477,19.9958054 C17.9779365,19.9417655 19.1266011,19.8336858 20.8095283,19.6175262 C22.2253242,19.4554066 23.3472757,18.347589 23.5876938,16.942552 C23.8548251,15.3213555 23.9883908,13.700159 23.9883908,12.1059825 C24.041817,10.484786 23.9082514,8.83656954 23.6411201,7.21537305 Z M6.81184816,14.8079766 C4.96864219,14.8079766 3.47270691,13.2948599 3.47270691,11.4304839 C3.47270691,9.56610797 4.96864219,8.05299124 6.81184816,8.05299124 C8.65505413,8.05299124 10.1509894,9.56610797 10.1509894,11.4304839 C10.1509894,13.2948599 8.65505413,14.8079766 6.81184816,14.8079766 Z M17.2299689,14.8079766 C15.3867629,14.8079766 13.8908276,13.2948599 13.8908276,11.4304839 C13.8908276,9.56610797 15.3867629,8.05299124 17.2299689,8.05299124 C19.0731749,8.05299124 20.5691101,9.56610797 20.5691101,11.4304839 C20.5691101,13.2948599 19.0731749,14.8079766 17.2299689,14.8079766 Z" id="Shape"></path>
        </g>
    </g>
</svg>