<?xml version="1.0" encoding="UTF-8"?>
<svg width="24px" height="24px" viewBox="0 0 24 24" version="1.1" xmlns="http://www.w3.org/2000/svg" xmlns:xlink="http://www.w3.org/1999/xlink">
    <!-- Generator: Sketch 48.1 (47250) - http://www.bohemiancoding.com/sketch -->
    <title>category/wireless-routers</title>
    <desc>Created with Sketch.</desc>
    <defs></defs>
    <g id="UI-Kit" stroke="none" stroke-width="1" fill="none" fill-rule="evenodd">
        <g id="category/wireless-routers" fill="#FFFFFF" fill-rule="nonzero">
            <path d="M24,8.97057742 L21.7071651,11.2714233 C16.3489097,5.89444649 7.65109034,5.89444649 2.29283489,11.2714233 L0,8.97057742 C6.62928349,2.34314086 17.3956386,2.34314086 24,8.97057742 Z M12.0124611,13.2971681 C14.0560748,13.2971681 15.9750779,14.0974623 17.4454829,15.5479956 L19.7383178,13.2471497 C15.4766355,8.99558661 8.5482866,8.99558661 4.31152648,13.2721589 L6.60436137,15.5730048 C8.04984424,14.0974623 9.96884735,13.2971681 12.0124611,13.2971681 Z M15.3021807,17.6987863 C14.5046729,16.7484369 13.3333333,16.1482163 12.0124611,16.1482163 C10.6915888,16.1482163 9.52024922,16.7484369 8.72274143,17.6987863 L12.0124611,21 L15.3021807,17.6987863 Z" id="Shape"></path>
        </g>
    </g>
</svg>