<?xml version="1.0" encoding="UTF-8"?>
<svg width="80px" height="80px" viewBox="0 0 80 80" version="1.1" xmlns="http://www.w3.org/2000/svg" xmlns:xlink="http://www.w3.org/1999/xlink">
    <!-- Generator: Sketch 47 (45396) - http://www.bohemiancoding.com/sketch -->
    <title>bluetooth</title>
    <desc>Created with Sketch.</desc>
    <defs></defs>
    <g id="Page-1" stroke="none" stroke-width="1" fill="none" fill-rule="evenodd">
        <g id="bluetooth" fill-rule="nonzero" fill="#333333">
            <path d="M17.5755068,28.5137901 L58.6227427,52.8440661 L36.6175582,67.6195385 L36.6175582,12.4862279 L58.6960234,28.5672335 L17.5704411,53.2225395 C17.0129087,53.5567871 16.8333317,54.2773434 17.1693445,54.831947 C17.5053573,55.3865505 18.2297187,55.5651843 18.787251,55.2309366 L61.4297216,29.6662369 C62.1507749,29.2339564 62.1968997,28.2107867 61.517637,27.7160409 L36.1352141,9.22857447 C35.3565761,8.66144805 34.2602291,9.21459463 34.2602291,10.1745719 L34.2602291,69.8255378 C34.2602291,70.7650412 35.3155061,71.322967 36.0983245,70.7973404 L61.4807474,53.7542073 C62.1967818,53.273423 62.166785,52.2150748 61.4246559,51.7751864 L18.7821853,26.4993534 C18.2229764,26.1678887 17.4995238,26.3501305 17.1663087,26.9064019 C16.8330937,27.4626732 17.0162979,28.1823254 17.5755068,28.5137901 Z" id="Shape"></path>
        </g>
    </g>
</svg>