<?xml version="1.0" encoding="UTF-8"?>
<svg width="80px" height="80px" viewBox="0 0 80 80" version="1.1" xmlns="http://www.w3.org/2000/svg" xmlns:xlink="http://www.w3.org/1999/xlink">
    <!-- Generator: Sketch 47 (45396) - http://www.bohemiancoding.com/sketch -->
    <title>conventional-cell-phone</title>
    <desc>Created with Sketch.</desc>
    <defs></defs>
    <g id="Page-1" stroke="none" stroke-width="1" fill="none" fill-rule="evenodd">
        <g id="conventional-cell-phone" fill-rule="nonzero">
            <path d="M26.7034621,19 L51.2965828,19 C52.0203253,19 52.7014835,19.2835904 53.205549,19.7782114 C53.7102489,20.2734622 54,20.9436022 54,21.6561004 L54,65.3438555 C54,66.0563231 53.7102707,66.7264125 53.205549,67.2217886 C52.7014915,67.716409 52.0203315,68 51.2965828,68 L26.7034621,68 C25.9797446,68 25.298636,67.7164302 24.7944395,67.2217773 C24.2897303,66.7264219 24,66.0563296 24,65.3438555 L24,21.6561004 C24,20.9436083 24.2897504,20.2734701 24.7944624,19.7782002 C25.2986263,19.2835708 25.979738,19 26.7034621,19 Z M51.2965828,21.0928974 L26.7034621,21.0928974 C26.5494425,21.0928974 26.40387,21.1538499 26.2953539,21.2603345 C26.1874691,21.3661994 26.1261138,21.5072805 26.1261138,21.656096 L26.1261138,65.3438511 C26.1261138,65.4926785 26.1874793,65.6338008 26.2953539,65.7396556 C26.40387,65.8461401 26.5494426,65.9070927 26.7034621,65.9070927 L51.2965828,65.9070927 C51.4505899,65.9070927 51.5961212,65.8461499 51.7046473,65.7396556 C51.8125218,65.6338008 51.8738873,65.4926784 51.8738873,65.3438511 L51.8738873,21.656096 C51.8738873,21.5072811 51.8125318,21.366199 51.7046473,21.2603345 C51.5961208,21.1538399 51.4505905,21.0928974 51.2965828,21.0928974 Z" id="Shape" fill="#333333"></path>
            <path d="M30.8926413,24 L48.1073587,24 C48.6141104,24 49.0910232,24.1997949 49.4437195,24.5482393 C49.7979317,24.9029933 50,25.3736201 50,25.8732172 L50,42.1267819 C50,42.629774 49.7970517,43.1027253 49.4437206,43.4518031 C49.0852449,43.8011272 48.6106695,44 48.1073584,44 L30.8926416,44 C30.3893329,44 29.914758,43.8011274 29.5622946,43.4542793 C29.2029489,43.1027296 29,42.6297767 29,42.1267819 L29,25.8732172 C29,25.3736225 29.2020682,24.902996 29.5538241,24.5541323 C29.9089741,24.199795 30.3858872,24 30.8926413,24 Z M31.1362186,26.1171846 L31.1362186,41.8827939 L47.8636693,41.8827939 L47.8636693,26.1171846 L31.1362186,26.1171846 Z" id="Shape" fill="#333333"></path>
            <path d="M32.2653467,11.7967138 C32.7320655,12.3038321 33,12.9898625 33,13.7192567 L33,21 L28,21 L28,13.7192567 C28,12.9898581 28.2679353,12.303825 28.7346639,11.7967022 C29.2007746,11.2903425 29.8306824,11 30.4999148,11 C31.1693165,11 31.799229,11.290339 32.2653467,11.7967138 Z M31.0303928,13.7192613 C31.0303928,13.5679292 30.9740153,13.4244028 30.8749189,13.3167489 C30.7752184,13.2084392 30.6415116,13.1464491 30.5000404,13.1464491 C30.3584863,13.1464491 30.2247807,13.2084425 30.125083,13.3167489 C30.025986,13.4244029 29.9696091,13.5679281 29.9696091,13.7192613 L29.9696091,18.8535554 L31.0303928,18.8535554 L31.0303928,13.7192613 Z" id="Shape" fill="#333333"></path>
            <path d="M30.897802,47 L33.1021533,47 C33.5956364,47 34,47.4036713 34,47.8997355 L34,50.1002645 C34,50.5963292 33.5956359,51 33.1021533,51 L30.897802,51 C30.4043243,51 30,50.5963338 30,50.1002645 L30,47.8997355 C30,47.4036654 30.4043239,47 30.897802,47 Z" id="Shape" fill="#333333"></path>
            <path d="M37.897802,47 L40.1021533,47 C40.5956364,47 41,47.4036713 41,47.8997355 L41,50.1002645 C41,50.5963292 40.5956359,51 40.1021533,51 L37.897802,51 C37.4043243,51 37,50.5963338 37,50.1002645 L37,47.8997355 C37,47.4036654 37.4043239,47 37.897802,47 Z" id="Shape" fill="#FC595A"></path>
            <path d="M44.897802,47 L47.1021533,47 C47.5956364,47 48,47.4036713 48,47.8997355 L48,50.1002645 C48,50.5963292 47.5956359,51 47.1021533,51 L44.897802,51 C44.4043243,51 44,50.5963338 44,50.1002645 L44,47.8997355 C44,47.4036654 44.4043239,47 44.897802,47 Z" id="Shape" fill="#333333"></path>
            <path d="M30.897802,53 L33.1021533,53 C33.5956421,53 34,53.4036354 34,53.8997007 L34,56.1002993 C34,56.5963643 33.5956413,57 33.1021533,57 L30.897802,57 C30.4043186,57 30,56.5963697 30,56.1002993 L30,53.8997007 C30,53.4036303 30.4043186,53 30.897802,53 Z" id="Shape" fill="#333333"></path>
            <path d="M37.897802,53 L40.1021533,53 C40.5956421,53 41,53.4036354 41,53.8997007 L41,56.1002993 C41,56.5963643 40.5956413,57 40.1021533,57 L37.897802,57 C37.4043186,57 37,56.5963697 37,56.1002993 L37,53.8997007 C37,53.4036303 37.4043186,53 37.897802,53 Z" id="Shape" fill="#333333"></path>
            <path d="M44.897802,53 L47.1021533,53 C47.5956421,53 48,53.4036354 48,53.8997007 L48,56.1002993 C48,56.5963643 47.5956413,57 47.1021533,57 L44.897802,57 C44.4043186,57 44,56.5963697 44,56.1002993 L44,53.8997007 C44,53.4036303 44.4043186,53 44.897802,53 Z" id="Shape" fill="#333333"></path>
            <path d="M30.897802,59 L33.1021533,59 C33.5956421,59 34,59.4036354 34,59.8997007 L34,62.1002993 C34,62.5963643 33.5956413,63 33.1021533,63 L30.897802,63 C30.4043186,63 30,62.5963697 30,62.1002993 L30,59.8997007 C30,59.4036303 30.4043186,59 30.897802,59 Z" id="Shape" fill="#333333"></path>
            <path d="M37.897802,59 L40.1021533,59 C40.5956421,59 41,59.4036354 41,59.8997007 L41,62.1002993 C41,62.5963643 40.5956413,63 40.1021533,63 L37.897802,63 C37.4043186,63 37,62.5963697 37,62.1002993 L37,59.8997007 C37,59.4036303 37.4043186,59 37.897802,59 Z" id="Shape" fill="#333333"></path>
            <path d="M44.897802,59 L47.1021533,59 C47.5956421,59 48,59.4036354 48,59.8997007 L48,62.1002993 C48,62.5963643 47.5956413,63 47.1021533,63 L44.897802,63 C44.4043186,63 44,62.5963697 44,62.1002993 L44,59.8997007 C44,59.4036303 44.4043186,59 44.897802,59 Z" id="Shape" fill="#333333"></path>
        </g>
    </g>
</svg>