<?xml version="1.0" encoding="UTF-8"?>
<svg width="80px" height="80px" viewBox="0 0 80 80" version="1.1" xmlns="http://www.w3.org/2000/svg" xmlns:xlink="http://www.w3.org/1999/xlink">
    <!-- Generator: Sketch 47 (45396) - http://www.bohemiancoding.com/sketch -->
    <title>desktop</title>
    <desc>Created with Sketch.</desc>
    <defs></defs>
    <g id="Page-1" stroke="none" stroke-width="1" fill="none" fill-rule="evenodd">
        <g id="desktop">
            <path d="M69.1164038,18 L55.8835962,18 C54.2935698,18 53,19.3292261 53,20.9630804 L53,59.0375905 C53,60.6714449 54.2935698,62 55.8835962,62 L69.1164038,62 C70.7064302,62 72,60.6714449 72,59.0375905 L72,20.9624095 C72,19.3292261 70.7064302,18 69.1164038,18 Z M54.7957178,20.9624095 C54.7957178,20.346443 55.2835,19.8452154 55.8835962,19.8452154 L69.1164038,19.8452154 C69.715847,19.8452154 70.2036292,20.346443 70.2036292,20.9624095 L70.2036292,59.0369196 C70.2036292,59.653557 69.715847,60.1547846 69.1164038,60.1547846 L55.8835962,60.1547846 C55.2835,60.1547846 54.7957178,59.653557 54.7957178,59.0369196 L54.7957178,20.9624095 Z M57.8680276,53.841464 L67.1319724,53.841464 C67.6602399,53.841464 68.0298313,53.4623561 68.0298313,52.9181853 C68.0298313,52.3746855 67.6602399,51.9955776 67.1319724,51.9955776 L57.8680276,51.9955776 C57.3391071,51.9955776 56.9701687,52.3746855 56.9701687,52.9181853 C56.9701687,53.4616851 57.3397601,53.841464 57.8680276,53.841464 Z M57.8680276,56.560976 L67.1319724,56.560976 C67.6602399,56.560976 68.0298313,56.1818681 68.0298313,55.6376973 C68.0298313,55.0941975 67.6602399,54.7150896 67.1319724,54.7150896 L57.8680276,54.7150896 C57.3391071,54.7150896 56.9701687,55.0941975 56.9701687,55.6376973 C56.9701687,56.1811971 57.3397601,56.560976 57.8680276,56.560976 Z M57.8680276,23.9248189 L67.1319724,23.9248189 C67.6602399,23.9248189 68.0298313,23.545711 68.0298313,23.0022112 C68.0298313,22.4587114 67.6602399,22.0796035 67.1319724,22.0796035 L57.8680276,22.0796035 C57.3391071,22.0796035 56.9701687,22.4587114 56.9701687,23.0022112 C56.9701687,23.545711 57.3397601,23.9248189 57.8680276,23.9248189 Z" id="Combined-Shape" fill="#333333" fill-rule="nonzero"></path>
            <path d="M67.1319724,49.2760656 C66.6023989,49.2760656 66.2334605,49.6551735 66.2334605,50.1986733 C66.2334605,50.7421731 66.6023989,51.121281 67.1319724,51.121281 C67.6602399,51.121281 68.0298313,50.7421731 68.0298313,50.1986733 C68.0298313,49.6551735 67.6602399,49.2760656 67.1319724,49.2760656 Z" id="Shape" fill="#FC595A"></path>
            <path d="M48.0375454,18 L9.96178363,18 C8.32857535,18 7,19.3292463 7,20.9624546 L7,54.9578796 C7,56.5924299 8.32857535,57.9210053 9.96178363,57.9210053 L28.0767072,57.9210053 L28.0767072,60.1554275 L16.0812822,60.1554275 C15.5377741,60.1554275 15.1586604,60.5345411 15.1586604,61.0780492 C15.1586604,61.6208863 15.5377741,62 16.0812822,62 L41.9180468,62 C42.4622259,62 42.8413396,61.6208863 42.8413396,61.0780492 C42.8413396,60.5345411 42.4622259,60.1554275 41.9180468,60.1554275 L29.9226218,60.1554275 L29.9226218,57.9210053 L48.0375454,57.9210053 C49.6714247,57.9210053 51,56.5924299 51,54.9578796 L51,20.9624546 C51,19.3292463 49.6714247,18 48.0375454,18 Z M8.84524354,53.8420106 L49.1547565,53.8420106 L49.1547565,54.9578796 C49.1547565,55.5745265 48.6535212,56.0757617 48.0375454,56.0757617 L9.96178363,56.0757617 C9.34647879,56.0757617 8.84524354,55.5745265 8.84524354,54.9578796 L8.84524354,53.8420106 Z M49.1547565,23.9249093 L49.1547565,51.996096 L8.84524354,51.996096 L8.84524354,23.9249093 L49.1547565,23.9249093 Z M9.96178363,19.8452435 L48.0375454,19.8452435 C48.6535212,19.8452435 49.1547565,20.3464788 49.1547565,20.9624546 L49.1547565,22.0796657 L8.84524354,22.0796657 L8.84524354,20.9624546 C8.84524354,20.3464788 9.34647879,19.8452435 9.96178363,19.8452435 Z" id="Shape" fill="#333333" fill-rule="nonzero"></path>
        </g>
    </g>
</svg>