<?xml version="1.0" encoding="UTF-8"?>
<svg width="80px" height="80px" viewBox="0 0 80 80" version="1.1" xmlns="http://www.w3.org/2000/svg" xmlns:xlink="http://www.w3.org/1999/xlink">
    <!-- Generator: Sketch 47 (45396) - http://www.bohemiancoding.com/sketch -->
    <title>drone</title>
    <desc>Created with Sketch.</desc>
    <defs></defs>
    <g id="Page-1" stroke="none" stroke-width="1" fill="none" fill-rule="evenodd">
        <g id="drone" fill-rule="nonzero">
            <g id="Group" transform="translate(9.000000, 8.000000)">
                <path d="M42,47 L20,47 L20,18 L42,18 L42,47 Z M22.3699249,44.6416763 L39.6308398,44.6416763 L39.6308398,20.3583237 L22.3699249,20.3583237 L22.3699249,44.6416763 Z" id="Shape" fill="#333333"></path>
                <path d="M53.9307629,59 C52.7122865,59 51.5641803,58.4280597 50.7962265,57.4715257 C49.5326213,57.3725214 48.3608034,56.8378981 47.4681719,55.9460977 L38.1043372,46.6229374 L24.0402278,46.6229374 L14.6763931,55.9460977 C13.7462818,56.8729304 12.5193915,57.4098384 11.199949,57.4768567 C10.4342899,58.431106 9.28771353,59 8.06847219,59 C5.82580243,59 4,57.1813669 4,54.9461541 C4,53.6834683 4.60197173,52.5182636 5.6062778,51.7589767 C5.70800873,50.5069529 6.24496445,49.3280399 7.13377149,48.4385242 L20.0719567,35.5595859 L20.0719567,28.6643161 L7.13530128,15.7846163 C6.18224312,14.8349364 5.63763846,13.5699659 5.59403949,12.2356923 C4.59432279,11.4748822 4,10.3112007 4,9.04851494 C4,6.81558683 5.82580243,5 8.06847219,5 C9.42462959,5 10.6698773,5.67094463 11.4194736,6.75846896 C12.6563075,6.87422785 13.7967648,7.40199701 14.6763931,8.27704285 L24.0409927,17.6009647 L38.1051021,17.6009647 L47.4689368,8.27704285 C48.3156747,7.43398302 49.4033542,6.90849858 50.5789966,6.7653231 C51.3285929,5.67322935 52.5730757,5 53.9307629,5 C56.1757274,5 57.9992351,6.81558683 57.9992351,9.04851494 C57.9992351,10.2350436 57.4714581,11.3301836 56.5551149,12.0948016 C56.5451713,13.4823851 56.0036262,14.7960962 55.0092637,15.7846163 L42.0756679,28.6643161 L42.0756679,35.5595859 L55.0100286,48.4385242 C55.9355506,49.3607875 56.4770957,50.5930105 56.546701,51.8998674 C57.4676336,52.6622007 58,53.7596254 58,54.9461541 C58,57.1813669 56.1757274,59 53.9307629,59 Z M23.0596334,44.2628268 L39.0849316,44.2628268 L49.1440551,54.2774941 C49.6947789,54.8265873 50.4351965,55.1281697 51.2322162,55.1281697 L51.9297997,55.1281697 L52.4721097,55.737427 C52.7864812,56.30099 53.3280263,56.640651 53.929998,56.640651 C54.870053,56.640651 55.6280631,55.8798409 55.6280631,54.9461541 C55.6280631,54.371929 55.3045129,53.8426367 54.7583784,53.5250613 L54.1196918,53.154176 L54.1747642,52.416213 C54.2397802,51.5335515 53.9430012,50.7141004 53.3318508,50.1071277 L39.7060257,36.5366824 L39.7060257,27.6872197 L53.3333805,14.1167743 C53.9766566,13.4762926 54.2780249,12.5791611 54.1625259,11.6576594 L54.06003,10.8762869 L54.7453752,10.4848391 C55.3014533,10.1687868 55.6280631,9.6326404 55.6280631,9.04927651 C55.6280631,8.11863594 54.870053,7.36011057 53.929998,7.36011057 C53.2584209,7.36011057 52.6472705,7.75841255 52.3795575,8.37833188 L52.065186,9.09497081 L51.2781099,9.08583195 L51.2781099,9.08583195 C50.4443752,9.08583195 49.7039576,9.39046061 49.1440551,9.94564635 L39.0849316,19.9603137 L23.0596334,19.9603137 L13.0005099,9.94564635 C12.4497861,9.39655318 11.7070739,9.09497081 10.910819,9.09497081 L10.1306269,9.09497081 L9.62809145,8.38747074 C9.3573189,7.76298198 8.74693334,7.359349 8.06847219,7.359349 C7.13071192,7.359349 6.3696422,8.11787437 6.3696422,9.04851494 C6.3696422,9.67528841 6.7375563,10.2495134 7.3303493,10.5442417 L8.06617751,10.9105576 L7.97821468,11.7239162 C7.88260291,12.6225707 8.1862659,13.4938087 8.81118445,14.1167743 L22.440834,27.6872197 L22.440834,36.5366824 L8.81118445,50.1063662 C8.21839146,50.6988689 7.91778804,51.4962345 7.9621519,52.3507179 L8.00345619,53.1168589 L7.31811099,53.4641356 C6.73296694,53.7611486 6.3696422,54.3285194 6.3696422,54.9453925 C6.3696422,55.8790793 7.13147681,56.6398894 8.06847219,56.6398894 C8.67503329,56.6398894 9.22040284,56.2987053 9.53094989,55.7275266 L9.89886399,55.0527741 L10.9199977,55.1236003 C11.7139579,55.1236003 12.4520808,54.823541 13.0005099,54.2774941 L23.0596334,44.2628268 Z" id="Shape" fill="#333333"></path>
                <path d="M11.1992703,6.60051482 C11.7018317,7.26871248 12,8.09881727 12,8.99736817 C12,11.2043425 10.2049257,13 8,13 C7.42206754,13 6.87229249,12.8766873 6.37561902,12.6549495 C5.84712327,13.7000657 5.13709672,14.5628786 4.37033254,15.3689409 C3.17784587,16.5116358 1.85506753,17.5232149 0,18 C0.47588242,16.1437167 1.48802633,14.8214326 2.63046192,13.6310591 C3.37385627,12.9245261 4.16478933,12.266156 5.10178185,11.7533485 C4.4194076,11.035199 4,10.0645101 4,8.99736817 C4,6.79264969 5.79507426,5 8,5 C8.89920609,5 9.73024787,5.29814393 10.3991713,5.80079261 C10.9336717,4.53397804 11.7356163,3.53562465 12.6173352,2.61612085 C13.8138543,1.48039668 15.1370447,0.468173432 17,0 C16.5312356,1.86381458 15.5210927,3.18761531 14.3826648,4.38387915 C13.463109,5.26461824 12.4652456,6.06605227 11.1992703,6.60051482 Z M8,7.32954225 C7.07802218,7.32954225 6.32976123,8.07848482 6.32976123,8.99736817 C6.32976123,9.91925933 7.07877421,10.6697058 8,10.6697058 C8.92122579,10.6697058 9.67023877,9.91850738 9.67023877,8.99736817 C9.67023877,8.07848482 8.92197782,7.32954225 8,7.32954225 Z" id="Combined-Shape" fill="#FC595A"></path>
                <path d="M51.6008459,5.80199622 C52.2702925,5.29861991 53.1017645,5 54.0003759,5 C56.2073501,5 57.9999998,6.79264969 57.9999998,8.99736817 C58.0003079,9.90164284 57.6994085,10.7368645 57.1922682,11.4078079 C58.4510706,11.9497927 59.4461593,12.7530523 60.3698366,13.6310591 C61.5145256,14.8214326 62.5233772,16.1437167 63,18 C61.1443486,17.5240095 59.8225148,16.5116358 58.6301634,15.3689409 C57.7543949,14.4475074 56.9504941,13.4508709 56.4081438,12.1922032 C55.7380043,12.6990775 54.903844,13 54.0003759,13 C51.7979133,13 50,11.2050945 50,8.99736817 C50,8.0989769 50.2986587,7.26900743 50.8015472,6.60087097 C49.5347962,6.06622133 48.5365199,5.2642443 47.6175386,4.38387915 C46.4793731,3.18761531 45.4686564,1.86381458 45,0 C46.8649458,0.468980627 48.1886379,1.48039668 49.3848813,2.61612085 C50.2660309,3.53651548 51.0664166,4.53484348 51.6008459,5.80199622 Z M54.0003759,7.32954225 C53.0807406,7.32954225 52.3295422,8.07848482 52.3295422,8.99736817 C52.3295422,9.91925933 53.0807406,10.6697058 54.0003759,10.6697058 C54.9245228,10.6697058 55.6697056,9.91850738 55.6697056,8.99736817 C55.6697056,8.07848482 54.9245228,7.32954225 54.0003759,7.32954225 Z" id="Combined-Shape" fill="#FC595A"></path>
                <path d="M10.3986453,58.1982821 C9.7298122,58.7014843 8.89897039,59 8,59 C5.79507426,59 4,57.2041737 4,54.9969919 C4,53.9317087 4.41872459,52.9630812 5.10011481,52.2462365 C4.16370759,51.7336186 3.37304319,51.07534 2.63016341,50.3686421 C1.48785747,49.1781335 0.476622787,47.8556994 0,46 C1.85565138,46.4760445 3.17748525,47.4885332 4.36983659,48.6305631 C5.13705836,49.4361902 5.84718628,50.2989371 6.37568074,51.3443752 C6.87233803,51.1230558 7.42209148,51 8,51 C10.2049257,51 12,52.7920662 12,54.9969919 C12,55.897516 11.7011888,56.7295651 11.1976451,57.3991117 C12.4646032,57.9338193 13.4630813,58.7352119 14.38317,59.6150121 C15.5201153,60.8119451 16.5311816,62.1355932 17,64 C15.13683,63.5310734 13.813487,62.519774 12.6176369,61.3841808 C11.7349322,60.4638876 10.9330202,59.4656693 10.3986453,58.1982821 Z M8,53.3290092 C7.07802218,53.3290092 6.32976123,54.0772702 6.32976123,54.9969919 C6.32976123,55.9189697 7.07877421,56.6702388 8,56.6702388 C8.92122579,56.6702388 9.67023877,55.9189697 9.67023877,54.9969919 C9.67023877,54.0772702 8.92197782,53.3290092 8,53.3290092 Z" id="Combined-Shape" fill="#FC595A"></path>
                <path d="M50.8029035,57.3986915 C50.2991586,56.729217 50,55.8973276 50,54.9969919 C50,52.7913142 51.7986652,51 54.0003759,51 C54.904079,51 55.7383121,51.3004769 56.4084432,51.8067383 C56.95079,50.5482915 57.754556,49.5525446 58.6301634,48.6305631 C59.8225148,47.4885332 61.1443486,46.4760445 63,46 C62.5233772,47.8556994 61.51532,49.1781335 60.3698366,50.3686421 C59.4464247,51.2464964 58.4516424,52.0491649 57.1933532,52.5913542 C57.6996014,53.260977 57.9999998,54.0943925 57.9999998,54.9969919 C58.0007517,57.2041737 56.2073501,59 54.0003759,59 C53.1017522,59 52.2704742,58.701047 51.6011815,58.1971764 C51.0667518,59.4647802 50.2662154,60.4636996 49.3848813,61.3841808 C48.1886379,62.519774 46.8641392,63.5310734 45,64 C45.4686564,62.1355932 46.4793731,60.8127522 47.6175386,59.6150121 C48.5369273,58.7349814 49.5352004,57.9333994 50.8029035,57.3986915 Z M54.0003759,53.3290092 C53.0807406,53.3290092 52.3295422,54.0772702 52.3295422,54.9969919 C52.3295422,55.9189697 53.0807406,56.6702388 54.0003759,56.6702388 C54.9245228,56.6702388 55.6697056,55.9189697 55.6697056,54.9969919 C55.6697056,54.0772702 54.9245228,53.3290092 54.0003759,53.3290092 Z" id="Combined-Shape" fill="#FC595A"></path>
                <path d="M39,46 L23,46 L23,36 L39,36 L39,46 Z M25.4151973,43.6728993 L36.5840234,43.6728993 L36.5840234,38.3271007 L25.4151973,38.3271007 L25.4151973,43.6728993 Z" id="Shape" fill="#333333"></path>
                <rect id="Rectangle-path" fill="#333333" x="24" y="22" width="13" height="2"></rect>
            </g>
        </g>
    </g>
</svg>