<?xml version="1.0" encoding="UTF-8"?>
<svg width="80px" height="80px" viewBox="0 0 80 80" version="1.1" xmlns="http://www.w3.org/2000/svg" xmlns:xlink="http://www.w3.org/1999/xlink">
    <!-- Generator: Sketch 47 (45396) - http://www.bohemiancoding.com/sketch -->
    <title>headphones</title>
    <desc>Created with Sketch.</desc>
    <defs></defs>
    <g id="Page-1" stroke="none" stroke-width="1" fill="none" fill-rule="evenodd">
        <g id="headphones">
            <path d="M41.6877594,11 L39.31746,11 C25.1134377,11 14,21.8204519 14,35.6359909 L14,62.4418105 C14,66.6093462 17.3942226,70 21.5666383,70 C25.7397495,70 29.1345814,66.6093031 29.1345814,62.4418105 L29.1345814,50.3831347 C29.1345814,46.2156422 25.7397495,42.8249452 21.5666383,42.8249452 C19.9211898,42.8249452 18.3525155,43.3607394 17.0478591,44.3356868 L16.1941691,44.9736348 L16.1941691,35.6359909 C16.1941691,23.0506296 26.3590621,13.190876 39.31746,13.190876 L41.6877594,13.190876 C54.6428062,13.190876 64.8058309,23.0511978 64.8058309,35.6359909 L64.8058309,44.9751099 L63.9518764,44.3361408 C62.6483045,43.3607467 61.0791369,42.8249452 59.4320568,42.8249452 C55.2596411,42.8249452 51.8654186,46.2155991 51.8654186,50.3831347 L51.8654186,62.4418105 C51.8654186,66.6093462 55.2596411,70 59.4320568,70 C63.6051681,70 67,66.6093031 67,62.4418105 L67,35.6359662 C67.0006387,21.8205323 55.889262,11 41.6877594,11 Z M21.5666383,45.0158212 C24.5299031,45.0158212 26.9404123,47.4231237 26.9404123,50.3831347 L26.9404123,62.4418105 C26.9404123,65.4018215 24.5299031,67.809124 21.5666383,67.809124 C18.6040157,67.809124 16.1941691,65.4018112 16.1941691,62.4418105 L16.1941691,50.3831347 C16.1941691,47.4233478 18.6044541,45.0158212 21.5666383,45.0158212 Z M64.8064833,62.4418105 C64.8064833,65.4018215 62.3959741,67.809124 59.4327093,67.809124 C56.4700867,67.809124 54.0602401,65.4018112 54.0602401,62.4418105 L54.0602401,50.3831347 C54.0602401,47.423134 56.4700867,45.0158212 59.4327093,45.0158212 C62.3959741,45.0158212 64.8064833,47.4231237 64.8064833,50.3831347 L64.8064833,62.4418105 Z" id="Shape" fill="#333333" fill-rule="nonzero"></path>
            <path d="M68.2679134,53.3986698 C68.2600068,52.8929147 68.6852569,52.4546421 69.1914088,52.4502065 C74.0986733,52.4502065 78.0868469,56.484229 78.0868125,61.4389729 C78.0936304,61.9247459 77.6757289,62.3534617 77.1913924,62.3534617 C76.7070956,62.3534617 76.289305,61.9248113 76.2959378,61.4438847 C76.2959378,57.4654032 73.1206967,54.2536548 69.2098846,54.2531668 C68.7301441,54.2785267 68.2926884,53.8799211 68.2679134,53.3986698 Z" id="Shape" fill="#FC595A" fill-rule="nonzero" transform="translate(73.177350, 57.401834) rotate(45.000000) translate(-73.177350, -57.401834) "></path>
            <path d="M66.5392608,54.3647003 C66.5312104,53.8594071 66.9544435,53.41333 67.4627561,53.416237 C71.1650352,53.416237 74.1763761,56.462197 74.1763416,60.1981068 C74.1831595,60.6838799 73.765258,61.1125957 73.2809215,61.1125957 C72.7966248,61.1125957 72.3788342,60.6839453 72.385467,60.2030187 C72.385467,57.4433712 70.1870586,55.2196853 67.4812319,55.2191973 C67.0014915,55.2445572 66.5640357,54.8459516 66.5392608,54.3647003 Z" id="Path" fill="#FC595A" transform="translate(70.357786, 57.264409) rotate(45.000000) translate(-70.357786, -57.264409) "></path>
            <path d="M1.91321378,53.3986698 C1.90530717,52.8929147 2.33055725,52.4546421 2.83670909,52.4502065 C7.74397362,52.4502065 11.7321473,56.484229 11.7321128,61.4389729 C11.7389307,61.9247459 11.3210292,62.3534617 10.8366927,62.3534617 C10.3523959,62.3534617 9.93460534,61.9248113 9.94123818,61.4438847 C9.94123818,57.4654032 6.76599709,54.2536548 2.8551849,54.2531668 C2.37544448,54.2785267 1.93798875,53.8799211 1.91321378,53.3986698 Z" id="Shape" fill="#FC595A" fill-rule="nonzero" transform="translate(6.822650, 57.401834) scale(-1, 1) rotate(45.000000) translate(-6.822650, -57.401834) "></path>
            <path d="M5.8236891,54.3647003 C5.81563876,53.8594071 6.23887187,53.41333 6.74718441,53.416237 C10.4494636,53.416237 13.4608044,56.462197 13.4607699,60.1981068 C13.4675878,60.6838799 13.0496864,61.1125957 12.5653499,61.1125957 C12.0810531,61.1125957 11.6632625,60.6839453 11.6698953,60.2030187 C11.6698953,57.4433712 9.47148697,55.2196853 6.76566022,55.2191973 C6.28591981,55.2445572 5.84846408,54.8459516 5.8236891,54.3647003 Z" id="Path" fill="#FC595A" transform="translate(9.642214, 57.264409) scale(-1, 1) rotate(45.000000) translate(-9.642214, -57.264409) "></path>
        </g>
    </g>
</svg>