<?xml version="1.0" encoding="UTF-8"?>
<svg width="80px" height="80px" viewBox="0 0 80 80" version="1.1" xmlns="http://www.w3.org/2000/svg" xmlns:xlink="http://www.w3.org/1999/xlink">
    <!-- Generator: Sketch 47 (45396) - http://www.bohemiancoding.com/sketch -->
    <title>laptop</title>
    <desc>Created with Sketch.</desc>
    <defs></defs>
    <g id="Page-1" stroke="none" stroke-width="1" fill="none" fill-rule="evenodd">
        <g id="laptop" fill-rule="nonzero">
            <path d="M12.39077,20.6486235 C12.39077,18.0865122 14.496624,16 17.0832755,16 L63.9168466,16 C66.5034932,16 68.609352,18.0865146 68.609352,20.6486235 L68.609352,53.7027531 L71.9664257,53.7027531 C72.5164549,53.7028572 73,54.1819281 73,54.7261132 L73,57.6263239 C73,60.5901119 70.5677697,63 67.5757199,63 L13.4244021,63 C10.4323523,63 8.00012195,60.5901119 8.00012195,57.6263239 L8.00017934,54.7319299 C7.98984445,54.2082439 8.42726702,53.6936466 9.0337541,53.7027531 L12.39077,53.7027531 L12.39077,20.6486235 Z M66.5420877,20.6486235 C66.5420877,19.1939405 65.3842316,18.0467203 63.9168466,18.0467203 L17.0832755,18.0467203 C15.6158951,18.0467203 14.4580343,19.1939431 14.4580343,20.6486235 L14.4580343,53.7027531 L66.5420877,53.7027531 L66.5420877,20.6486235 Z M10.0673862,57.6263239 C10.0673862,59.482686 11.551614,60.9532797 13.4244021,60.9532797 L67.5757199,60.9532797 C69.448508,60.9532797 70.9327357,59.482686 70.9327357,57.6263239 L70.9327357,55.7494734 L10.0673862,55.7494734 L10.0673862,57.6263239 Z" id="Shape" fill="#333333"></path>
            <path d="M41.0043447,31.6 C43.8414623,31.6471055 46.3512001,34.0173844 46.4,37.0000025 C46.4,39.9856559 43.9869288,42.4 41.0014603,42.3999896 C40.2633631,42.394667 39.5720184,42.2830266 39.0143764,42.0190119 C37.8736286,41.4149491 38.6175971,39.781821 39.7798504,40.2741283 C40.1656529,40.4177336 40.5777071,40.4922666 41.0043447,40.4922666 C42.9288349,40.4922666 44.4966112,38.9244891 44.4966112,37.0000025 C44.4966112,35.0727659 42.9301913,33.5077398 41.0043447,33.5077398 C39.0736555,33.5077398 37.5033886,35.07305 37.5033886,37.0000025 C37.5033886,37.201247 37.5273379,37.41136 37.5771645,37.6705249 C37.5799102,37.6898914 37.5799102,37.6898914 37.5817085,37.7043631 C37.5853773,37.7317883 37.5853773,37.7317883 37.5899918,37.7560987 C37.6350348,38.0500941 37.5719741,38.3046622 37.4139295,38.5064356 C37.2623841,38.6998957 37.0353423,38.8186489 36.786785,38.8406636 C36.221504,38.8907024 35.7688576,38.5073654 35.6561321,37.7689187 C35.6239186,37.5431732 35.6055586,37.2862002 35.6,36.9999899 C35.6,34.0700138 38.1317154,31.6 41.0043447,31.6 Z" id="Shape" fill="#FC595A"></path>
        </g>
    </g>
</svg>