<?xml version="1.0" encoding="UTF-8"?>
<svg width="80px" height="80px" viewBox="0 0 80 80" version="1.1" xmlns="http://www.w3.org/2000/svg" xmlns:xlink="http://www.w3.org/1999/xlink">
    <!-- Generator: Sketch 47 (45396) - http://www.bohemiancoding.com/sketch -->
    <title>memory-card</title>
    <desc>Created with Sketch.</desc>
    <defs></defs>
    <g id="Page-1" stroke="none" stroke-width="1" fill="none" fill-rule="evenodd">
        <g id="memory-card" fill-rule="nonzero" fill="#333333">
            <path d="M8,35.7153604 L8,30 L72,30 L72,35.7153604 L69.5375291,35.7153604 L69.5375291,36.4310513 L72,36.4310513 L72,42.0805714 L69.5375291,42.0805714 L69.5375291,42.7969078 L72,42.7969078 L72,51 L8,51 L8,42.7969078 L10.4624709,42.7969078 L10.4624709,42.0805714 L8,42.0805714 L8,36.4310513 L10.4624709,36.4310513 L10.4624709,35.7153604 L8,35.7153604 Z M65.925144,48.3831695 L13.6045404,48.3831695 L13.6045404,49.043348 L65.925144,49.043348 L65.925144,48.3831695 Z M67.5670087,38.3877033 L67.5670087,33.7587084 L70.0294797,33.7587084 L70.0294797,31.956652 L9.97052034,31.956652 L9.97052034,33.7587084 L12.4329913,33.7587084 L12.4329913,38.3877033 L9.97052034,38.3877033 L9.97052034,40.1239194 L12.4329913,40.1239194 L12.4329913,44.7535598 L9.97052034,44.7535598 L9.97052034,49.043348 L11.63402,49.043348 L11.63402,46.4265175 L67.8956643,46.4265175 L67.8956643,49.043348 L70.0294797,49.043348 L70.0294797,44.7535598 L67.5670087,44.7535598 L67.5670087,40.1239194 L70.0294797,40.1239194 L70.0294797,38.3877033 L67.5670087,38.3877033 Z" id="Shape"></path>
            <path d="M14,44 L14,35 L21,35 L21,44 L14,44 Z M16.0366149,42.0903841 L18.9633851,42.0903841 L18.9633851,36.9096159 L16.0366149,36.9096159 L16.0366149,42.0903841 Z" id="Shape"></path>
            <path d="M23,44 L23,35 L30,35 L30,44 L23,44 Z M25.0366149,42.0903841 L27.9633851,42.0903841 L27.9633851,36.9096159 L25.0366149,36.9096159 L25.0366149,42.0903841 Z" id="Shape"></path>
            <path d="M32,44 L32,35 L39,35 L39,44 L32,44 Z M34.0366149,42.0903841 L36.9633851,42.0903841 L36.9633851,36.9096159 L34.0366149,36.9096159 L34.0366149,42.0903841 Z" id="Shape"></path>
            <path d="M41,44 L41,35 L48,35 L48,44 L41,44 Z M43.0368111,42.0903841 L45.9631889,42.0903841 L45.9631889,36.9096159 L43.0368111,36.9096159 L43.0368111,42.0903841 Z" id="Shape"></path>
            <path d="M50,44 L50,35 L57,35 L57,44 L50,44 Z M52.0368111,42.0903841 L54.9631889,42.0903841 L54.9631889,36.9096159 L52.0368111,36.9096159 L52.0368111,42.0903841 Z" id="Shape"></path>
            <path d="M59,44 L59,35 L66,35 L66,44 L59,44 Z M61.0368111,42.0903841 L63.9631889,42.0903841 L63.9631889,36.9096159 L61.0368111,36.9096159 L61.0368111,42.0903841 Z" id="Shape"></path>
        </g>
    </g>
</svg>