<?xml version="1.0" encoding="UTF-8"?>
<svg width="80px" height="80px" viewBox="0 0 80 80" version="1.1" xmlns="http://www.w3.org/2000/svg" xmlns:xlink="http://www.w3.org/1999/xlink">
    <!-- Generator: Sketch 47 (45396) - http://www.bohemiancoding.com/sketch -->
    <title>mice</title>
    <desc>Created with Sketch.</desc>
    <defs></defs>
    <g id="Page-1" stroke="none" stroke-width="1" fill="none" fill-rule="evenodd">
        <g id="mice" fill-rule="nonzero">
            <path d="M52.4393115,24.7215796 C51.6391929,18.2055738 46.0797264,13.2726111 39.5019976,13.2726111 C32.3084146,13.2726111 26.4570878,19.1242677 26.4570878,26.3181528 L26.4570878,61.7719718 C26.4570878,66.3088685 22.7659049,70 18.2289434,70 C13.6917795,70 10,66.3086659 10,61.7719718 L10,26.3181528 C10,25.690652 10.5088141,25.1818472 11.1363273,25.1818472 C11.7638406,25.1818472 12.2726546,25.690652 12.2726546,26.3181528 L12.2726546,61.7719718 C12.2726546,65.0559869 14.9443346,67.7273889 18.2289434,67.7273889 C21.5129174,67.7273889 24.1844332,65.0558228 24.1844332,61.7719718 L24.1844332,26.3181528 C24.1844332,17.8720216 31.0562259,11 39.5019976,11 C47.36869,11 53.9754498,16.9990519 54.7436621,24.8098859 L54.7838452,25.2184493 L55.1924162,25.2585544 C63.001534,26.0250929 69.0000002,32.6316953 69,40.498402 L69,54.6786512 C69,63.1241448 62.1288449,69.995206 53.6832346,69.995206 C45.2376242,69.995206 38.3664692,63.1241448 38.3664692,54.6786512 L38.3664692,40.498402 C38.3664692,32.7010178 44.2654977,26.1305682 51.9977412,25.279517 L52.5010203,25.2241234 L52.4393115,24.7215796 Z M51.9818778,27.5777528 C45.5121295,28.4264123 40.639124,33.9617041 40.639124,40.498402 L40.639124,54.6786512 C40.639124,61.8723393 46.4894551,67.7225949 53.6832347,67.7225949 C60.8770144,67.7225949 66.7273455,61.8723394 66.7273455,54.6786512 L66.7273455,40.498402 C66.7273455,33.9617041 61.8543399,28.4264123 55.3845917,27.5777528 L54.8195621,27.5036359 L54.8195621,40.618402 C54.8195621,41.2462757 54.4613449,41.7639518 53.6832347,41.7547075 C52.9051246,41.7454632 52.5469074,41.2462757 52.5469074,40.618402 L52.5469074,27.5036359 L51.9818778,27.5777528 Z" id="Shape" fill="#333333"></path>
            <path d="M51.9818778,27.5777528 C45.8422678,28.3831069 41.1406011,33.4089976 40.6767545,39.5060503 C41.3385615,39.5060503 45.2952791,39.5035009 52.5469074,39.498402 L52.5469074,27.5036359 L51.9818778,27.5777528 Z M54.8069074,26.1776877 L54.8069074,40.7568135 L54.806204,40.7568135 C54.806204,41.3088236 54.3589172,41.7564251 53.8069072,41.7568132 L52.5484965,41.7584014 C45.295461,41.7635013 41.3394119,41.7660503 40.6767545,41.7660503 L39.3623958,41.7660503 L39.3623958,41.7660503 C38.810111,41.7660503 38.3623958,41.3183351 38.3623958,40.7660503 C38.3623958,40.7516671 38.3627061,40.7372855 38.3633265,40.7229156 L38.4232664,39.3346113 C38.9700522,32.1473608 44.5338264,26.250156 51.7106776,25.3087433 C52.2358248,25.2260582 52.9327889,25.1823778 53.80157,25.1777021 L53.8015703,25.1777466 C54.3538225,25.1747744 54.8039208,25.6200539 54.8068929,26.1723061 C54.8069026,26.1740999 54.8069074,26.1758938 54.8069074,26.1776877 Z" id="Path-Copy" fill="#FC595A"></path>
        </g>
    </g>
</svg>