<?xml version="1.0" encoding="UTF-8"?>
<svg width="80px" height="80px" viewBox="0 0 80 80" version="1.1" xmlns="http://www.w3.org/2000/svg" xmlns:xlink="http://www.w3.org/1999/xlink">
    <!-- Generator: Sketch 47 (45396) - http://www.bohemiancoding.com/sketch -->
    <title>motherboard</title>
    <desc>Created with Sketch.</desc>
    <defs></defs>
    <g id="Page-1" stroke="none" stroke-width="1" fill="none" fill-rule="evenodd">
        <g id="motherboard" fill="#333333">
            <path d="M67,10.9375 L67,69.0625 C67,69.625 66.6214286,70 66.0535714,70 L14.9464286,70 C14.3785714,70 14,69.625 14,69.0625 L14,41.875 C14,41.3125 14.3785714,40.9375 14.9464286,40.9375 C15.5142857,40.9375 15.8928571,41.3125 15.8928571,41.875 L15.8928571,68.125 L65.1071429,68.125 L65.1071429,11.875 L15.8928571,11.875 L15.8928571,12.8125 C15.8928571,13.375 15.5142857,13.75 14.9464286,13.75 C14.3785714,13.75 14,13.375 14,12.8125 L14,10.9375 C14,10.375 14.3785714,10 14.9464286,10 L66.0535714,10 C66.6214286,10 67,10.375 67,10.9375 Z M14,19.375 L14,15.625 C14,15.0625 14.3785714,14.6875 14.9464286,14.6875 L19.6785714,14.6875 C20.2464286,14.6875 20.625,15.0625 20.625,15.625 L20.625,19.375 C20.625,19.9375 20.2464286,20.3125 19.6785714,20.3125 L14.9464286,20.3125 C14.3785714,20.3125 14,19.9375 14,19.375 Z M15.8928571,18.4375 L18.7321429,18.4375 L18.7321429,16.5625 L15.8928571,16.5625 L15.8928571,18.4375 Z M14,39.0625 L14,34.375 C14,33.8125 14.3785714,33.4375 14.9464286,33.4375 L19.6785714,33.4375 C20.2464286,33.4375 20.625,33.8125 20.625,34.375 L20.625,39.0625 C20.625,39.625 20.2464286,40 19.6785714,40 L14.9464286,40 C14.3785714,40 14,39.625 14,39.0625 Z M15.8928571,38.125 L18.7321429,38.125 L18.7321429,35.3125 L15.8928571,35.3125 L15.8928571,38.125 Z M14,31.5625 L14,22.1875 C14,21.625 14.3785714,21.25 14.9464286,21.25 L21.5714286,21.25 C22.1392857,21.25 22.5178571,21.625 22.5178571,22.1875 L22.5178571,31.5625 C22.5178571,32.125 22.1392857,32.5 21.5714286,32.5 L14.9464286,32.5 C14.3785714,32.5 14,32.125 14,31.5625 Z M15.8928571,30.625 L20.625,30.625 L20.625,23.125 L15.8928571,23.125 L15.8928571,30.625 Z M49.9642857,48.4375 C49.3964286,48.4375 49.0178571,48.0625 49.0178571,47.5 L49.0178571,14.6875 C49.0178571,14.125 49.3964286,13.75 49.9642857,13.75 L53.75,13.75 C54.3178571,13.75 54.6964286,14.125 54.6964286,14.6875 L54.6964286,47.5 C54.6964286,48.0625 54.3178571,48.4375 53.75,48.4375 L49.9642857,48.4375 Z M52.8035714,35.3125 L50.9107143,35.3125 L50.9107143,46.5625 L52.8035714,46.5625 L52.8035714,35.3125 Z M50.9107143,33.4375 L52.8035714,33.4375 L52.8035714,15.625 L50.9107143,15.625 L50.9107143,33.4375 Z M43.3392857,36.25 L43.3392857,47.5 C43.3392857,48.0625 42.9607143,48.4375 42.3928571,48.4375 L29.1428571,48.4375 C28.575,48.4375 28.1964286,48.0625 28.1964286,47.5 L28.1964286,36.25 C28.1964286,35.6875 28.575,35.3125 29.1428571,35.3125 L42.3928571,35.3125 C42.9607143,35.3125 43.3392857,35.6875 43.3392857,36.25 Z M41.4464286,37.1875 L30.0892857,37.1875 L30.0892857,46.5625 L41.4464286,46.5625 L41.4464286,37.1875 Z M32.9285714,44.6875 L38.6071429,44.6875 C39.175,44.6875 39.5535714,44.3125 39.5535714,43.75 C39.5535714,43.1875 39.175,42.8125 38.6071429,42.8125 L32.9285714,42.8125 C32.3607143,42.8125 31.9821429,43.1875 31.9821429,43.75 C31.9821429,44.3125 32.3607143,44.6875 32.9285714,44.6875 Z M32.9285714,40.9375 L38.6071429,40.9375 C39.175,40.9375 39.5535714,40.5625 39.5535714,40 C39.5535714,39.4375 39.175,39.0625 38.6071429,39.0625 L32.9285714,39.0625 C32.3607143,39.0625 31.9821429,39.4375 31.9821429,40 C31.9821429,40.5625 32.3607143,40.9375 32.9285714,40.9375 Z M24.4107143,40 C24.9785714,40 25.3571429,39.625 25.3571429,39.0625 L25.3571429,36.25 C25.3571429,35.6875 24.9785714,35.3125 24.4107143,35.3125 C23.8428571,35.3125 23.4642857,35.6875 23.4642857,36.25 L23.4642857,39.0625 C23.4642857,39.625 23.8428571,40 24.4107143,40 Z M23.4642857,47.5 C23.4642857,48.0625 23.8428571,48.4375 24.4107143,48.4375 C24.9785714,48.4375 25.3571429,48.0625 25.3571429,47.5 L25.3571429,44.6875 C25.3571429,44.125 24.9785714,43.75 24.4107143,43.75 C23.8428571,43.75 23.4642857,44.125 23.4642857,44.6875 L23.4642857,47.5 Z M19.6785714,48.4375 C20.2464286,48.4375 20.625,48.0625 20.625,47.5 L20.625,44.6875 C20.625,44.125 20.2464286,43.75 19.6785714,43.75 C19.1107143,43.75 18.7321429,44.125 18.7321429,44.6875 L18.7321429,47.5 C18.7321429,48.0625 19.1107143,48.4375 19.6785714,48.4375 Z" id="Shape" fill-rule="nonzero"></path>
            <path d="M19.6785714,52.1875 L53.75,52.1875 C54.3178571,52.1875 54.6964286,52.5625 54.6964286,53.125 L54.6964286,56.875 C54.6964286,57.4375 54.3178571,57.8125 53.75,57.8125 L19.6785714,57.8125 C19.1107143,57.8125 18.7321429,57.4375 18.7321429,56.875 L18.7321429,53.125 C18.7321429,52.5625 19.1107143,52.1875 19.6785714,52.1875 Z M20.625,55.9375 L52.8035714,55.9375 L52.8035714,54.0625 L20.625,54.0625 L20.625,55.9375 Z" id="Combined-Shape"></path>
            <path d="M54.6964286,60.625 L54.6964286,64.375 C54.6964286,64.9375 54.3178571,65.3125 53.75,65.3125 L19.6785714,65.3125 C19.1107143,65.3125 18.7321429,64.9375 18.7321429,64.375 L18.7321429,60.625 C18.7321429,60.0625 19.1107143,59.6875 19.6785714,59.6875 L53.75,59.6875 C54.3178571,59.6875 54.6964286,60.0625 54.6964286,60.625 Z M52.8035714,61.5625 L20.625,61.5625 L20.625,63.4375 L52.8035714,63.4375 L52.8035714,61.5625 Z" id="Combined-Shape"></path>
            <path d="M61.3214286,61.5625 C60.7535714,61.5625 60.375,61.9375 60.375,62.5 L60.375,64.375 C60.375,64.9375 60.7535714,65.3125 61.3214286,65.3125 C61.8892857,65.3125 62.2678571,64.9375 62.2678571,64.375 L62.2678571,62.5 C62.2678571,61.9375 61.8892857,61.5625 61.3214286,61.5625 Z" id="Path"></path>
            <path d="M62.2678571,57.8125 C62.2678571,57.25 61.8892857,56.875 61.3214286,56.875 C60.7535714,56.875 60.375,57.25 60.375,57.8125 L60.375,59.6875 C60.375,60.25 60.7535714,60.625 61.3214286,60.625 C61.8892857,60.625 62.2678571,60.25 62.2678571,59.6875 L62.2678571,57.8125 Z" id="Path"></path>
            <path d="M62.2678571,53.125 C62.2678571,52.5625 61.8892857,52.1875 61.3214286,52.1875 C60.7535714,52.1875 60.375,52.5625 60.375,53.125 L60.375,55 C60.375,55.5625 60.7535714,55.9375 61.3214286,55.9375 C61.8892857,55.9375 62.2678571,55.5625 62.2678571,55 L62.2678571,53.125 Z" id="Path"></path>
            <path d="M62.2678571,47.5 C62.2678571,48.0625 61.8892857,48.4375 61.3214286,48.4375 L57.5357143,48.4375 C56.9678571,48.4375 56.5892857,48.0625 56.5892857,47.5 L56.5892857,14.6875 C56.5892857,14.125 56.9678571,13.75 57.5357143,13.75 L61.3214286,13.75 C61.8892857,13.75 62.2678571,14.125 62.2678571,14.6875 L62.2678571,47.5 Z M58.4821429,33.4375 L60.375,33.4375 L60.375,15.625 L58.4821429,15.625 L58.4821429,33.4375 Z M60.375,35.3125 L58.4821429,35.3125 L58.4821429,46.5625 L60.375,46.5625 L60.375,35.3125 Z" id="Combined-Shape"></path>
            <path d="M28.1964286,25.9375 L28.1964286,24.0625 L27.25,24.0625 C26.6821429,24.0625 26.3035714,23.6875 26.3035714,23.125 C26.3035714,22.5625 26.6821429,22.1875 27.25,22.1875 L28.1964286,22.1875 L28.1964286,20.3125 L27.25,20.3125 C26.6821429,20.3125 26.3035714,19.9375 26.3035714,19.375 C26.3035714,18.8125 26.6821429,18.4375 27.25,18.4375 L28.1964286,18.4375 L28.1964286,16.5625 C28.1964286,16 28.575,15.625 29.1428571,15.625 L31.0357143,15.625 L31.0357143,14.6875 C31.0357143,14.125 31.4142857,13.75 31.9821429,13.75 C32.55,13.75 32.9285714,14.125 32.9285714,14.6875 L32.9285714,15.625 L34.8214286,15.625 L34.8214286,14.6875 C34.8214286,14.125 35.2,13.75 35.7678571,13.75 C36.3357143,13.75 36.7142857,14.125 36.7142857,14.6875 L36.7142857,15.625 L38.6071429,15.625 L38.6071429,14.6875 C38.6071429,14.125 38.9857143,13.75 39.5535714,13.75 C40.1214286,13.75 40.5,14.125 40.5,14.6875 L40.5,15.625 L42.3928571,15.625 C42.9607143,15.625 43.3392857,16 43.3392857,16.5625 L43.3392857,18.4375 L44.2857143,18.4375 C44.8535714,18.4375 45.2321429,18.8125 45.2321429,19.375 C45.2321429,19.9375 44.8535714,20.3125 44.2857143,20.3125 L43.3392857,20.3125 L43.3392857,22.1875 L44.2857143,22.1875 C44.8535714,22.1875 45.2321429,22.5625 45.2321429,23.125 C45.2321429,23.6875 44.8535714,24.0625 44.2857143,24.0625 L43.3392857,24.0625 L43.3392857,25.9375 L44.2857143,25.9375 C44.8535714,25.9375 45.2321429,26.3125 45.2321429,26.875 C45.2321429,27.4375 44.8535714,27.8125 44.2857143,27.8125 L43.3392857,27.8125 L43.3392857,29.6875 C43.3392857,30.25 42.9607143,30.625 42.3928571,30.625 L40.5,30.625 L40.5,31.5625 C40.5,32.125 40.1214286,32.5 39.5535714,32.5 C38.9857143,32.5 38.6071429,32.125 38.6071429,31.5625 L38.6071429,30.625 L36.7142857,30.625 L36.7142857,31.5625 C36.7142857,32.125 36.3357143,32.5 35.7678571,32.5 C35.2,32.5 34.8214286,32.125 34.8214286,31.5625 L34.8214286,30.625 L32.9285714,30.625 L32.9285714,31.5625 C32.9285714,32.125 32.55,32.5 31.9821429,32.5 C31.4142857,32.5 31.0357143,32.125 31.0357143,31.5625 L31.0357143,30.625 L29.1428571,30.625 C28.575,30.625 28.1964286,30.25 28.1964286,29.6875 L28.1964286,27.8125 L27.25,27.8125 C26.6821429,27.8125 26.3035714,27.4375 26.3035714,26.875 C26.3035714,26.3125 26.6821429,25.9375 27.25,25.9375 L28.1964286,25.9375 Z M30.0892857,28.75 L41.4464286,28.75 L41.4464286,17.5 L30.0892857,17.5 L30.0892857,28.75 Z" id="Combined-Shape"></path>
        </g>
    </g>
</svg>