<?xml version="1.0" encoding="UTF-8"?>
<svg width="80px" height="80px" viewBox="0 0 80 80" version="1.1" xmlns="http://www.w3.org/2000/svg" xmlns:xlink="http://www.w3.org/1999/xlink">
    <!-- Generator: Sketch 47 (45396) - http://www.bohemiancoding.com/sketch -->
    <title>power-bank</title>
    <desc>Created with Sketch.</desc>
    <defs></defs>
    <g id="Page-1" stroke="none" stroke-width="1" fill="none" fill-rule="evenodd">
        <g id="power-bank">
            <g id="Group" transform="translate(17.000000, 10.000000)">
                <path d="M21.8073284,7.0005535 C21.3712786,7.01357019 20.9796442,7.26737989 20.7941893,7.65714687 L12.1101396,25.9438771 C11.941307,26.2981649 11.967929,26.7130997 12.1806929,27.0435328 C12.3934568,27.3739659 12.7627555,27.573916 13.1594043,27.5734382 L23.0013277,27.5734382 L23.0013277,37.8596646 C23.0026456,38.3891494 23.3721908,38.8484303 23.8943773,38.9695713 C24.4165638,39.0907123 24.9546815,38.8419983 25.1948026,38.3685245 L33.8788523,21.2246986 C34.0572708,20.870578 34.0375561,20.4505785 33.8267286,20.1142601 C33.615901,19.7779417 33.2439215,19.5730988 32.8432502,19.5726752 L23.0013277,19.5726752 L23.0013277,8.14345794 C23.001444,7.83406874 22.8744957,7.53784802 22.6494828,7.32246404 C22.4244698,7.10708007 22.1206142,6.99093234 21.8073284,7.0005535 L21.8073284,7.0005535 Z M20.6855813,13.2730937 L20.6855813,20.7155796 C20.6856533,21.3467643 21.2040107,21.8584206 21.8434541,21.858484 L30.9707382,21.858484 L25.317074,33.015215 L25.317074,26.4301882 C25.3170503,25.7989698 24.7986788,25.2872608 24.1592013,25.2871974 L14.9821289,25.2871974 L20.6855813,13.2730937 Z" id="Shape" fill="#333333"></path>
                <polygon id="Shape" fill="#FC595A" points="11 43 11 45.38122 13.3812497 45.38122 13.3812497 43"></polygon>
                <polygon id="Shape" fill="#FC595A" points="15 43 15 45.38122 17.3812506 45.38122 17.3812506 43"></polygon>
                <polygon id="Shape" fill="#333333" points="20 43 20 45.38122 22.3812497 45.38122 22.3812497 43"></polygon>
                <polygon id="Shape" fill="#333333" points="24 43 24 45.38122 26.3812497 45.38122 26.3812497 43"></polygon>
                <polygon id="Shape" fill="#333333" points="29 43 29 45.38122 31.3812506 45.38122 31.3812506 43"></polygon>
                <polygon id="Shape" fill="#333333" points="34 43 34 45.38122 36.3812497 45.38122 36.3812497 43"></polygon>
                <polygon id="Shape" fill="#333333" points="20 53 20 55.38122 27.14375 55.38122 27.14375 53"></polygon>
                <polygon id="Shape" fill="#333333" points="34 53 34 55.38122 36.3812497 55.38122 36.3812497 53"></polygon>
                <path d="M8.05000039,0 C3.61008005,0 0,3.56178807 0,7.94230109 L0,51.0576989 C0,55.4380404 3.61008005,59 8.05000039,59 L37.9499996,59 C42.3896896,59 46,55.4380404 46,51.0576989 L46,7.94230109 C46,3.56178807 42.3896896,0 37.9499996,0 L8.05000039,0 Z M8.05000039,2.26920438 L37.9499996,2.26920438 C41.1552802,2.26920438 43.7000003,4.77966932 43.7000003,7.94230109 L43.7000003,51.0576989 C43.7000003,54.2201591 41.1552802,56.7307956 37.9499996,56.7307956 L8.05000039,56.7307956 C4.84449028,56.7307956 2.29999974,54.2201591 2.29999974,51.0576989 L2.29999974,7.94230109 C2.29999974,4.77966932 4.84449028,2.26920438 8.05000039,2.26920438 Z" id="Shape" fill="#333333" fill-rule="nonzero"></path>
                <path d="M0,44 C0,48.59657 3.61008005,52.33436 8.05000039,52.33436 L37.9499996,52.33436 C42.3896896,52.33436 46,48.59657 46,44 L43.7000003,44 C43.7000003,47.31848 41.1552802,49.95314 37.9499996,49.95314 L8.05000039,49.95314 C4.84449028,49.95314 2.29999974,47.31848 2.29999974,44 L0,44 Z" id="Shape" fill="#333333" fill-rule="nonzero"></path>
            </g>
        </g>
    </g>
</svg>