<?xml version="1.0" encoding="UTF-8"?>
<svg width="80px" height="80px" viewBox="0 0 80 80" version="1.1" xmlns="http://www.w3.org/2000/svg" xmlns:xlink="http://www.w3.org/1999/xlink">
    <!-- Generator: Sketch 47 (45396) - http://www.bohemiancoding.com/sketch -->
    <title>projector</title>
    <desc>Created with Sketch.</desc>
    <defs></defs>
    <g id="Page-1" stroke="none" stroke-width="1" fill="none" fill-rule="evenodd">
        <g id="projector" fill-rule="nonzero">
            <path d="M66.5003308,51 C63.4673083,51 61,48.4947533 61,45.4164374 L61,35.5855781 C61,32.5059185 63.4673083,30 66.5003308,30 C69.5320301,30 72,32.5059185 72,35.5855781 L72,45.4164374 C71.9993383,48.4940815 69.5320301,51 66.5003308,51 Z M66.5003308,31.9341928 C64.518015,31.9341928 62.9035789,33.5727814 62.9035789,35.5862499 L62.9035789,45.4171092 C62.9035789,47.4299059 64.5173534,49.0671508 66.5003308,49.0671508 C68.4833083,49.0671508 70.0957594,47.4299059 70.0957594,45.4171092 L70.0957594,35.5855781 C70.0950977,33.5727814 68.4826466,31.9341928 66.5003308,31.9341928 Z" id="Shape" fill="#333333"></path>
            <path d="M57.0382159,55 L13.9617841,55 C13.4297618,55 13,54.577231 13,54.0553344 L13,24.9446656 C13,24.422769 13.4304301,24 13.9617841,24 L57.0382159,24 C57.5702382,24 58,24.422769 58,24.9446656 L58,54.0553344 C58,54.5778874 57.5695699,55 57.0382159,55 Z M14.9235682,53.1106688 L56.0764318,53.1106688 L56.0764318,25.8893312 L14.9235682,25.8893312 L14.9235682,53.1106688 Z" id="Shape" fill="#333333"></path>
            <path d="M61.0793346,46 L56.9200256,46 C56.4113884,46 56,45.583213 56,45.0693483 L56,33.9312989 C56,33.416787 56.4120282,33 56.9200256,33 L61.0793346,33 C61.5886116,33 62,33.416787 62,33.9312989 L62,45.0693483 C62,45.583213 61.5879718,46 61.0793346,46 Z M57.840691,44.1374023 L60.1586692,44.1374023 L60.1586692,34.8619505 L57.840691,34.8619505 L57.840691,44.1374023 Z" id="Shape" fill="#333333"></path>
            <path d="M14.0606563,47 L8.93999617,47 C8.42002608,47 8,46.5634062 8,46.0236051 L8,30.9770739 C8,30.4372728 8.42067931,30 8.93999617,30 L14.0606563,30 C14.5799732,30 14.9999992,30.4372728 14.9999992,30.9770739 L14.9999992,46.0236051 C15.0006525,46.5640852 14.5799732,47 14.0606563,47 Z M9.87999233,45.0465311 L13.1206601,45.0465311 L13.1206601,31.9548269 L9.87999233,31.9548269 L9.87999233,45.0465311 Z" id="Shape" fill="#333333"></path>
            <path d="M41.000642,50 C39.3462444,50 38,48.6539778 38,46.9987169 C38,45.3453807 39.3462444,44 41.000642,44 C42.6537556,44 44,45.3453807 44,46.9987169 C44,48.6539778 42.6543976,50 41.000642,50 Z M41.000642,45.84645 C40.365718,45.84645 39.8476354,46.3642002 39.8476354,46.9987169 C39.8476354,47.6351583 40.365718,48.1529085 41.000642,48.1529085 C41.635566,48.1529085 42.1517227,47.6351583 42.1517227,46.9987169 C42.1517227,46.3642002 41.636208,45.84645 41.000642,45.84645 Z" id="Shape" fill="#333333"></path>
            <path d="M48.000642,50 C46.3462444,50 45,48.6539778 45,46.9987169 C45,45.3453807 46.3462444,44 48.000642,44 C49.6537556,44 51,45.3453807 51,46.9987169 C51,48.6539778 49.6537556,50 48.000642,50 Z M48.000642,45.84645 C47.365718,45.84645 46.8476354,46.3642002 46.8476354,46.9987169 C46.8476354,47.6351583 47.365718,48.1529085 48.000642,48.1529085 C48.635566,48.1529085 49.1517227,47.6351583 49.1517227,46.9987169 C49.1517227,46.3642002 48.635566,45.84645 48.000642,45.84645 Z" id="Shape" fill="#FC595A"></path>
            <path d="M34.0382241,48 L14.9611076,48 C14.4297581,48 14,47.552467 14,47 C14,46.447533 14.4304265,46 14.9611076,46 L34.0382241,46 C34.5695735,46 35,46.4482279 35,47 C35,47.552467 34.5695735,48 34.0382241,48 Z" id="Shape" fill="#333333"></path>
        </g>
    </g>
</svg>