<?xml version="1.0" encoding="UTF-8"?>
<svg width="80px" height="80px" viewBox="0 0 80 80" version="1.1" xmlns="http://www.w3.org/2000/svg" xmlns:xlink="http://www.w3.org/1999/xlink">
    <!-- Generator: Sketch 47 (45396) - http://www.bohemiancoding.com/sketch -->
    <title>router</title>
    <desc>Created with Sketch.</desc>
    <defs></defs>
    <g id="Page-1" stroke="none" stroke-width="1" fill="none" fill-rule="evenodd">
        <g id="router" fill-rule="nonzero">
            <path d="M68.1034234,53 L11.8965766,53 C9.71623312,53 8,51.3241193 8,49.1941376 L8,39.8058624 C8,37.6758807 9.71623312,36 11.8965766,36 L68.1034234,36 C70.2837669,36 72,37.6758807 72,39.8058624 L72,49.1941376 C72,51.3241193 70.2837669,53 68.1034234,53 Z M11.8965766,37.8343246 C10.7488832,37.8343246 9.87664307,38.6860564 9.87664307,39.8058624 L9.87664307,49.1941376 C9.87664307,50.3139436 10.7488832,51.1656754 11.8965766,51.1656754 L68.1034234,51.1656754 C69.2511168,51.1656754 70.1233569,50.3139436 70.1233569,49.1941376 L70.1233569,39.8058624 C70.1233569,38.6860564 69.2511168,37.8343246 68.1034234,37.8343246 L11.8965766,37.8343246 Z" id="Shape" fill="#333333"></path>
            <path d="M19.4501625,56 L15.5498375,56 C14.1081619,56 13,54.9139129 13,53.5 L13,51 L22,51 L22,53.5 C22,54.9139129 20.8918381,56 19.4501625,56 Z M14.979415,53.5 C14.979415,53.8444969 15.1973636,54.058104 15.5498375,54.058104 L19.4501625,54.058104 C19.8026364,54.058104 20.020585,53.8444969 20.020585,53.5 L20.020585,52.941896 L14.979415,52.941896 L14.979415,53.5 Z" id="Shape" fill="#333333"></path>
            <path d="M64.4501625,56 L60.5498375,56 C59.1081619,56 58,54.9139129 58,53.5 L58,51 L67,51 L67,53.5 C67,54.9139129 65.8918381,56 64.4501625,56 Z M59.979415,53.5 C59.979415,53.8444969 60.1973636,54.058104 60.5498375,54.058104 L64.4501625,54.058104 C64.8026364,54.058104 65.020585,53.8444969 65.020585,53.5 L65.020585,52.941896 L59.979415,52.941896 L59.979415,53.5 Z" id="Shape" fill="#333333"></path>
            <path d="M15.5,47 C14.0865024,47 13,45.9139129 13,44.5 C13,43.0860871 14.0865024,42 15.5,42 C16.9134976,42 18,43.0860871 18,44.5 C18,45.9139129 16.9134976,47 15.5,47 Z M15.5,43.941896 C15.1544154,43.941896 14.9407266,44.1555031 14.9407266,44.5 C14.9407266,44.8444969 15.1544154,45.058104 15.5,45.058104 C15.8455846,45.058104 16.0592734,44.8444969 16.0592734,44.5 C16.0592734,44.1555031 15.8455846,43.941896 15.5,43.941896 Z" id="Shape" fill="#333333"></path>
            <path d="M22.5,47 C21.0865024,47 20,45.9139129 20,44.5 C20,43.0860871 21.0865024,42 22.5,42 C23.9134976,42 25,43.0860871 25,44.5 C25,45.9139129 23.9134976,47 22.5,47 Z M22.5,43.941896 C22.1544154,43.941896 21.9407266,44.1555031 21.9407266,44.5 C21.9407266,44.8444969 22.1544154,45.058104 22.5,45.058104 C22.8455846,45.058104 23.0592734,44.8444969 23.0592734,44.5 C23.0592734,44.1555031 22.8455846,43.941896 22.5,43.941896 Z" id="Shape" fill="#333333"></path>
            <path d="M30.5,47 C29.0865024,47 28,45.9139129 28,44.5 C28,43.0860871 29.0865024,42 30.5,42 C31.9134976,42 33,43.0860871 33,44.5 C33,45.9139129 31.9134976,47 30.5,47 Z M30.5,43.941896 C30.1544154,43.941896 29.9407266,44.1555031 29.9407266,44.5 C29.9407266,44.8444969 30.1544154,45.058104 30.5,45.058104 C30.8455846,45.058104 31.0592734,44.8444969 31.0592734,44.5 C31.0592734,44.1555031 30.8455846,43.941896 30.5,43.941896 Z" id="Shape" fill="#333333"></path>
            <path d="M37.5,47 C36.0865024,47 35,45.9139129 35,44.5 C35,43.0860871 36.0865024,42 37.5,42 C38.9134976,42 40,43.0860871 40,44.5 C40,45.9139129 38.9134976,47 37.5,47 Z M37.5,43.941896 C37.1544154,43.941896 36.9407266,44.1555031 36.9407266,44.5 C36.9407266,44.8444969 37.1544154,45.058104 37.5,45.058104 C37.8455846,45.058104 38.0592734,44.8444969 38.0592734,44.5 C38.0592734,44.1555031 37.8455846,43.941896 37.5,43.941896 Z" id="Shape" fill="#333333"></path>
            <path d="M55,37 L55,33.6743028 C55,31.6179496 56.7617856,30 59,30 C61.2382144,30 63,31.6179496 63,33.6743028 L63,37 L55,37 Z M61.0735469,35.2290837 L61.0735469,33.6743028 C61.0735469,32.5932058 60.1781557,31.7709163 59,31.7709163 C57.8218443,31.7709163 56.9264531,32.5932058 56.9264531,33.6743028 L56.9264531,35.2290837 L61.0735469,35.2290837 Z" id="Shape" fill="#333333"></path>
            <path d="M63.4065072,27.9021573 C61.0644913,26.5340128 57.9355087,26.5340128 55.5934928,27.9021573 L55.4260038,28 L54.5,26.4027822 L54.6692149,26.30153 C57.5694102,24.5661567 61.4305898,24.5661567 64.3307851,26.30153 L64.5,26.4027822 L63.5739962,28 L63.4065072,27.9021573 Z" id="Shape" fill="#FC595A"></path>
            <path d="M66.3911956,24.3946636 C64.345084,23.1258593 61.9666915,22.4772221 59.5,22.4772221 C57.1378571,22.4772221 54.7397824,23.1510454 52.6043321,24.3973547 L52.4363684,24.4953831 L51.5,22.8115072 L51.6766376,22.706403 C54.0979834,21.2656361 56.783597,20.5 59.5,20.5 C62.216403,20.5 64.9020166,21.2656361 67.3233624,22.706403 L67.5,22.8115072 L66.5610642,24.5 L66.3911956,24.3946636 Z" id="Shape" fill="#FC595A"></path>
            <path d="M68.8619972,19.910168 C66.0476311,18.4602393 62.8338138,17.7112225 59.5,17.7112225 C56.2719029,17.7112225 53.0459923,18.4801449 50.1344772,19.9119429 L49.9616191,19.9969494 L49,18.5422309 L49.1768932,18.4500872 C52.2659249,16.8410106 55.8494022,16 59.5,16 C63.1505978,16 66.7340751,16.8410106 69.8231068,18.4500872 L70,18.5422309 L69.0363644,20 L68.8619972,19.910168 Z" id="Shape" fill="#FC595A"></path>
        </g>
    </g>
</svg>