<?xml version="1.0" encoding="UTF-8"?>
<svg width="80px" height="80px" viewBox="0 0 80 80" version="1.1" xmlns="http://www.w3.org/2000/svg" xmlns:xlink="http://www.w3.org/1999/xlink">
    <!-- Generator: Sketch 47 (45396) - http://www.bohemiancoding.com/sketch -->
    <title>server</title>
    <desc>Created with Sketch.</desc>
    <defs></defs>
    <g id="Page-1" stroke="none" stroke-width="1" fill="none" fill-rule="evenodd">
        <g id="server">
            <path d="M62.823051,31.6775662 L16.1748665,31.6775662 C14.4243546,31.6775662 13,33.1105941 13,34.8700481 L13,45.1306499 C13,46.8894953 14.4244436,48.3224338 16.1748665,48.3224338 L62.823051,48.3224338 C64.5748531,48.3224338 66,46.8895038 66,45.1306499 L66,34.8693501 C66,33.1107558 64.5744169,31.6775662 62.823051,31.6775662 Z M63.8513804,45.1306499 C63.8513804,45.6994803 63.3866088,46.1662423 62.823051,46.1662423 L16.1748665,46.1662423 C15.6118397,46.1662423 15.1486196,45.6986124 15.1486196,45.1306499 L15.1486196,34.8700481 C15.1486196,34.3016908 15.6115389,33.8337577 16.1748665,33.8337577 L62.823051,33.8337577 C63.3866088,33.8337577 63.8513804,34.3005197 63.8513804,34.8693501 L63.8513804,45.1306499 Z M62.823051,52.3551324 L16.1748665,52.3551324 C14.4243546,52.3551324 13,53.7881602 13,55.5476143 L13,65.8082161 C13,67.5670615 14.4244436,69 16.1748665,69 L62.823051,69 C64.5748531,69 66,67.56707 66,65.8082161 L66,55.5469163 C66,53.788322 64.5744169,52.3551324 62.823051,52.3551324 Z M63.8513804,65.8082161 C63.8513804,66.3770465 63.3866088,66.8438085 62.823051,66.8438085 L16.1748665,66.8438085 C15.6118397,66.8438085 15.1486196,66.3761785 15.1486196,65.8082161 L15.1486196,55.5476143 C15.1486196,54.979257 15.6115389,54.5113239 16.1748665,54.5113239 L62.823051,54.5113239 C63.3866088,54.5113239 63.8513804,54.9780859 63.8513804,55.5469163 L63.8513804,65.8082161 Z M62.823051,11 L16.1748665,11 C14.4243546,11 13,12.4330279 13,14.1924819 L13,24.4530837 C13,26.2119291 14.4244436,27.6448676 16.1748665,27.6448676 L62.823051,27.6448676 C64.5748531,27.6448676 66,26.2119376 66,24.4530837 L66,14.1917839 C66,12.4331896 64.5744169,11 62.823051,11 Z M63.8513804,24.4530837 C63.8513804,25.0219141 63.3866088,25.4886761 62.823051,25.4886761 L16.1748665,25.4886761 C15.6118397,25.4886761 15.1486196,25.0210462 15.1486196,24.4530837 L15.1486196,14.1924819 C15.1486196,13.6241246 15.6115389,13.1561915 16.1748665,13.1561915 L62.823051,13.1561915 C63.3866088,13.1561915 63.8513804,13.6229535 63.8513804,14.1917839 L63.8513804,24.4530837 Z" id="Shape" fill="#333333" fill-rule="nonzero"></path>
            <path d="M22.5515067,38.1659187 C21.5438443,38.1659187 20.7247172,38.9894633 20.7247172,40 C20.7247172,41.0105367 21.5438443,41.8340813 22.5515067,41.8340813 C23.558554,41.8340813 24.377602,41.0104575 24.377602,40 C24.377602,38.9895425 23.558554,38.1659187 22.5515067,38.1659187 Z" id="Path" fill="#333333"></path>
            <path d="M36.434895,38.1659187 C35.4272325,38.1659187 34.6081055,38.9894633 34.6081055,40 C34.6081055,41.0105367 35.4272325,41.8340813 36.434895,41.8340813 C37.4419423,41.8340813 38.2609902,41.0104575 38.2609902,40 C38.2609902,38.9895425 37.4419423,38.1659187 36.434895,38.1659187 Z" id="Path" fill="#333333"></path>
            <path d="M22.5515067,58.8434849 C21.5438443,58.8434849 20.7247172,59.6670295 20.7247172,60.6775662 C20.7247172,61.6881028 21.5438443,62.5116475 22.5515067,62.5116475 C23.558554,62.5116475 24.377602,61.6880237 24.377602,60.6775662 C24.377602,59.6671087 23.558554,58.8434849 22.5515067,58.8434849 Z" id="Path" fill="#333333"></path>
            <path d="M29.4932008,58.8434849 C28.4855384,58.8434849 27.6664114,59.6670295 27.6664114,60.6775662 C27.6664114,61.6881028 28.4855384,62.5116475 29.4932008,62.5116475 C30.5002481,62.5116475 31.3192961,61.6880237 31.3192961,60.6775662 C31.3192961,59.6671087 30.5002481,58.8434849 29.4932008,58.8434849 Z" id="Path" fill="#333333"></path>
            <path d="M36.434895,58.8434849 C35.4272325,58.8434849 34.6081055,59.6670295 34.6081055,60.6775662 C34.6081055,61.6881028 35.4272325,62.5116475 36.434895,62.5116475 C37.4419423,62.5116475 38.2609902,61.6880237 38.2609902,60.6775662 C38.2609902,59.6671087 37.4419423,58.8434849 36.434895,58.8434849 Z" id="Path" fill="#333333"></path>
            <path d="M22.5515067,17.4876545 C21.5438443,17.4876545 20.7247172,18.3111991 20.7247172,19.3217358 C20.7247172,20.3322724 21.5438443,21.1558171 22.5515067,21.1558171 C23.558554,21.1558171 24.377602,20.3321932 24.377602,19.3217358 C24.377602,18.3112783 23.558554,17.4876545 22.5515067,17.4876545 Z" id="Path" fill="#333333"></path>
            <path d="M29.4917582,17.4876545 C28.4848915,17.4876545 27.6664114,18.3111991 27.6664114,19.3217358 C27.6664114,20.3322724 28.4848915,21.1558171 29.4917582,21.1558171 C30.4980103,21.1558171 31.3164115,20.3321932 31.3164115,19.3217358 C31.3164115,18.3112783 30.4980103,17.4876545 29.4917582,17.4876545 Z" id="Path" fill="#333333"></path>
            <path d="M30.0003801,38 C28.8969645,38 28,38.898046 28,40 C28,41.101954 28.8969645,42 30.0003801,42 C31.103122,42 32,41.1018677 32,40 C32,38.8981323 31.103122,38 30.0003801,38 Z" id="Path" fill="#FC595A"></path>
            <path d="M36.8253469,17.5 C35.8184802,17.5 35,18.319467 35,19.325 C35,20.3305331 35.8184802,21.1500001 36.8253469,21.1500001 C37.8315989,21.1500001 38.6500001,20.3304544 38.6500001,19.325 C38.6500001,18.3195457 37.8315989,17.5 36.8253469,17.5 Z" id="Path" fill="#FC595A"></path>
        </g>
    </g>
</svg>