<?xml version="1.0" encoding="UTF-8"?>
<svg width="80px" height="80px" viewBox="0 0 80 80" version="1.1" xmlns="http://www.w3.org/2000/svg" xmlns:xlink="http://www.w3.org/1999/xlink">
    <!-- Generator: Sketch 47 (45396) - http://www.bohemiancoding.com/sketch -->
    <title>smartphone</title>
    <desc>Created with Sketch.</desc>
    <defs></defs>
    <g id="Page-1" stroke="none" stroke-width="1" fill="none" fill-rule="evenodd">
        <g id="smartphone">
            <path d="M53.8679245,70 C55.8490566,70 57.5,68.3423913 57.5,66.3532609 L57.5,12.6467391 C57.5,10.6576087 55.8490566,9 53.8679245,9 L26.1320755,9 C24.1509434,9 22.5,10.6576087 22.5,12.6467391 L22.5,66.3532609 C22.5,68.3423913 24.1509434,70 26.1320755,70 L53.8679245,70 Z M24.4811321,22.2608696 L55.5188679,22.2608696 L55.5188679,55.4130435 L24.4811321,55.4130435 L24.4811321,22.2608696 Z M26.1320755,10.9891304 L53.8679245,10.9891304 C54.7924528,10.9891304 55.5188679,11.7184783 55.5188679,12.6467391 L55.5188679,20.2717391 L24.4811321,20.2717391 L24.4811321,12.6467391 C24.4811321,11.7184783 25.2075472,10.9891304 26.1320755,10.9891304 Z M24.4811321,66.3532609 L24.4811321,57.4021739 L55.5188679,57.4021739 L55.5188679,66.3532609 C55.5188679,67.2815217 54.7924528,68.0108696 53.8679245,68.0108696 L26.1320755,68.0108696 C25.2075472,68.0108696 24.4811321,67.2815217 24.4811321,66.3532609 Z" id="Shape" fill="#333333" fill-rule="nonzero"></path>
            <rect id="Rectangle" fill="#FC595A" x="32.87" y="37.12" width="3.9" height="6.79"></rect>
            <rect id="Rectangle-Copy" fill="#FC595A" x="37.66" y="37.12" width="3.9" height="6.79"></rect>
            <rect id="Rectangle-Copy-2" fill="#FC595A" x="42.45" y="37.12" width="3.9" height="6.79"></rect>
            <path d="M49.23,38.1758164 C49.2594568,38.1719793 49.2894972,38.17 49.32,38.17 C49.7010765,38.17 50.01,38.4789235 50.01,38.86 L50.01,42.06 C50.01,42.4410765 49.7010765,42.75 49.32,42.75 C49.2894972,42.75 49.2594568,42.7480207 49.23,42.7441836 L49.23,45.73 C49.23,46.2822847 48.7822847,46.73 48.23,46.73 L31.07,46.73 C30.5177153,46.73 30.07,46.2822847 30.07,45.73 L30.07,35.18 C30.07,34.6277153 30.5177153,34.18 31.07,34.18 L48.23,34.18 C48.7822847,34.18 49.23,34.6277153 49.23,35.18 L49.23,38.1758164 Z M32.07,36.18 L32.07,44.73 L47.23,44.73 L47.23,36.18 L32.07,36.18 Z" id="Combined-Shape" fill="#333333" fill-rule="nonzero"></path>
            <path d="M38.5714286,17 L41.4285714,17 C42,17 42.5,16.5333333 42.5,16 C42.5,15.4666667 42,15 41.4285714,15 L38.5714286,15 C38,15 37.5,15.4666667 37.5,16 C37.5,16.5333333 38,17 38.5714286,17 Z" id="Shape" fill="#333333" fill-rule="nonzero"></path>
            <path d="M37.4545455,65 L42.5454545,65 C43.0545455,65 43.5,64.5333333 43.5,64 C43.5,63.4666667 43.0545455,63 42.5454545,63 L37.4545455,63 C36.9454545,63 36.5,63.4666667 36.5,64 C36.5,64.5333333 36.9454545,65 37.4545455,65 Z" id="Shape" fill="#333333" fill-rule="nonzero"></path>
        </g>
    </g>
</svg>