<?xml version="1.0" encoding="UTF-8"?>
<svg width="80px" height="80px" viewBox="0 0 80 80" version="1.1" xmlns="http://www.w3.org/2000/svg" xmlns:xlink="http://www.w3.org/1999/xlink">
    <!-- Generator: Sketch 47 (45396) - http://www.bohemiancoding.com/sketch -->
    <title>ssd</title>
    <desc>Created with Sketch.</desc>
    <defs></defs>
    <g id="Page-1" stroke="none" stroke-width="1" fill="none" fill-rule="evenodd">
        <g id="ssd" fill-rule="nonzero">
            <path d="M61.9584906,11 L19.0415094,11 C16.8283019,11 15,12.8257329 15,15.0358306 L15,20.0325733 L15,57.8925081 L15,65.9641694 C15,68.1742671 16.8283019,70 19.0415094,70 L61.9584906,70 C64.1716981,70 66,68.1742671 66,65.9641694 L66,57.8925081 L66,20.0325733 L66,15.0358306 C66,12.8257329 64.1716981,11 61.9584906,11 Z M61.9584906,67.9820847 L19.0415094,67.9820847 C17.8867925,67.9820847 17.0207547,67.1172638 17.0207547,65.9641694 L17.0207547,61.3517915 C17.5981132,61.7361564 18.2716981,61.9283388 19.0415094,61.9283388 L61.9584906,61.9283388 C62.7283019,61.9283388 63.4018868,61.7361564 63.9792453,61.3517915 L63.9792453,65.9641694 C63.9792453,67.0211726 63.1132075,67.9820847 61.9584906,67.9820847 Z M19.0415094,13.0179153 L61.9584906,13.0179153 C63.1132075,13.0179153 63.9792453,13.8827362 63.9792453,15.0358306 L63.9792453,20.0325733 L63.9792453,57.8925081 C63.9792453,59.0456026 63.1132075,59.9104235 61.9584906,59.9104235 L19.0415094,59.9104235 C17.8867925,59.9104235 17.0207547,59.0456026 17.0207547,57.8925081 L17.0207547,20.0325733 L17.0207547,15.0358306 C17.0207547,13.9788274 17.8867925,13.0179153 19.0415094,13.0179153 Z" id="Shape" fill="#333333"></path>
            <circle id="Oval" fill="#333333" cx="22.5" cy="64.5" r="1.5"></circle>
            <circle id="Oval" fill="#FC595A" cx="28.5" cy="64.5" r="1.5"></circle>
        </g>
    </g>
</svg>