<?xml version="1.0" encoding="UTF-8"?>
<svg width="80px" height="80px" viewBox="0 0 80 80" version="1.1" xmlns="http://www.w3.org/2000/svg" xmlns:xlink="http://www.w3.org/1999/xlink">
    <!-- Generator: Sketch 47 (45396) - http://www.bohemiancoding.com/sketch -->
    <title>tablet-1</title>
    <desc>Created with Sketch.</desc>
    <defs></defs>
    <g id="Page-1" stroke="none" stroke-width="1" fill="none" fill-rule="evenodd">
        <g id="tablet-1" fill-rule="nonzero">
            <path d="M20.683695,9 L59.316305,9 C61.3449087,9 63,10.6503403 63,12.6723513 L63,66.3276487 C63,68.3496597 61.3449087,70 59.316305,70 L20.683695,70 C18.6550913,70 17,68.3496597 17,66.3276487 L17,12.6723513 C17,10.6503403 18.6550913,9 20.683695,9 Z M61.1515582,12.6723513 C61.1515582,11.6456414 60.3451985,10.8415965 59.316305,10.8415965 L20.683695,10.8415965 C19.6548015,10.8415965 18.8484418,11.6456414 18.8484418,12.6723513 L18.8484418,14.503106 L61.1515582,14.503106 L61.1515582,12.6723513 Z M18.8484418,16.3447025 L18.8484418,59.9037445 L61.1515582,59.9037445 L61.1515582,16.3447025 L18.8484418,16.3447025 Z M18.8484418,66.3276487 C18.8484418,67.3543586 19.6548015,68.1584035 20.683695,68.1584035 L59.316305,68.1584035 C60.3451985,68.1584035 61.1515582,67.3543586 61.1515582,66.3276487 L61.1515582,61.745341 L18.8484418,61.745341 L18.8484418,66.3276487 Z M40.0000138,63.3431857 C40.8916311,63.3431857 41.6141032,64.0635765 41.6141032,64.9518722 C41.6141032,65.8401679 40.8916311,66.5605587 40.0000138,66.5605587 C39.1083965,66.5605587 38.3859243,65.8401679 38.3859243,64.9518722 C38.3859243,64.0635765 39.1083965,63.3431857 40.0000138,63.3431857 Z" id="Shape" fill="#333333"></path>
            <g id="noun_1008453_cc" transform="translate(32.000000, 33.000000)" fill="#FC595A">
                <path d="M13.1510754,0.224552665 C9.72411632,-0.0748508884 6.27588368,-0.0748508884 2.84892462,0.224552665 C1.65676832,0.336616044 0.400603615,1.45264448 0.213379067,2.62700728 C-0.0711263557,4.53259561 -0.0711263557,6.46735355 0.213379067,8.37294188 C0.400603615,9.54576957 1.6535679,10.6633331 2.84892462,10.7753965 C6.27588047,11.0748678 9.72411953,11.0748678 13.1510754,10.7753965 C14.3432317,10.6633331 15.6009966,9.54730468 15.7866209,8.37294188 C16.0711264,6.46735355 16.0711264,4.53259561 15.7866209,2.62700728 C15.6009966,1.4541796 14.3432317,0.335080929 13.1510754,0.224552665 Z M9.60020981,6.08255064 L6.9726653,7.6575784 C6.43819523,7.97841738 5.99973774,7.74507994 5.99973774,7.14024472 L5.99973774,3.85816933 C5.99973774,3.25333411 6.43819523,3.01999667 6.9726653,3.34083565 L9.60020981,4.91586341 C10.1346799,5.2367024 10.1346799,5.76171165 9.60020981,6.08255064 Z" id="Shape"></path>
            </g>
        </g>
    </g>
</svg>