<?xml version="1.0" encoding="UTF-8"?>
<svg width="80px" height="80px" viewBox="0 0 80 80" version="1.1" xmlns="http://www.w3.org/2000/svg" xmlns:xlink="http://www.w3.org/1999/xlink">
    <!-- Generator: Sketch 47 (45396) - http://www.bohemiancoding.com/sketch -->
    <title>tv-stream</title>
    <desc>Created with Sketch.</desc>
    <defs></defs>
    <g id="Page-1" stroke="none" stroke-width="1" fill="none" fill-rule="evenodd">
        <g id="tv-stream">
            <path d="M60.9075893,22.4707205 C60.0785063,21.0609955 58.2251489,20 56.587396,20 L23.412604,20 C21.7748511,20 19.9214937,21.0609955 19.0925433,22.470495 L10.2771716,37.4679463 C9.56163127,38.6866911 9,40.749907 9,42.159919 L9,57.6524966 C9,59.4959736 10.5034766,61 12.3543401,61 L67.6456599,61 C69.4965234,61 71,59.4959736 71,57.6524966 L71,42.159919 C71,40.7499935 70.4384377,38.6869443 69.7229602,37.4681707 L60.9075893,22.4707205 Z M13.0754745,37.2071986 L21.0657629,23.6142263 C21.4776147,22.9106662 22.601074,22.268556 23.412604,22.268556 L56.587396,22.268556 C57.398926,22.268556 58.5223853,22.9106662 58.9332637,23.6125668 L66.9232971,37.2069773 C68.0252733,39.1965676 68.2278558,40.7756486 67.4477488,41.9168384 C66.8015723,42.8621061 65.6770193,43.2388664 64.3281807,43.2388664 L15.6718193,43.2388664 C14.3230425,43.2388664 13.1985037,42.8621274 12.5522007,41.9169667 C11.7719304,40.7758907 11.9740923,39.1968138 13.0754745,37.2071986 Z M11.2853746,58.731444 L11.2853746,43.894546 L12.9414321,44.993081 C13.5634095,45.4056657 14.4474811,45.6555645 15.6718193,45.6555645 L64.3281807,45.6555645 C65.5525189,45.6555645 66.4365905,45.4056657 67.0585679,44.993081 L68.7146254,43.894546 L68.7146254,58.731444 L11.2853746,58.731444 Z" id="Shape" fill="#333333" fill-rule="nonzero"></path>
            <path d="M59.3174049,51.2272267 C58.3987691,51.2272267 57.6563615,51.9701622 57.6563615,52.8802294 C57.6563615,53.7902967 58.3987691,54.5332321 59.3174049,54.5332321 C60.2360407,54.5332321 60.9784483,53.7902967 60.9784483,52.8802294 C60.9784483,51.9701622 60.2360407,51.2272267 59.3174049,51.2272267 Z" id="Path" fill="#FC595A"></path>
        </g>
    </g>
</svg>