<?xml version="1.0" encoding="UTF-8"?>
<svg width="80px" height="80px" viewBox="0 0 80 80" version="1.1" xmlns="http://www.w3.org/2000/svg" xmlns:xlink="http://www.w3.org/1999/xlink">
    <!-- Generator: Sketch 47 (45396) - http://www.bohemiancoding.com/sketch -->
    <title>video-card</title>
    <desc>Created with Sketch.</desc>
    <defs></defs>
    <g id="Page-1" stroke="none" stroke-width="1" fill="none" fill-rule="evenodd">
        <g id="video-card" fill-rule="nonzero">
            <path d="M54.1466525,54.6161862 L67.2800213,54.6161862 C69.8563962,54.6161862 72,52.4614523 72,49.8703253 L72,28.33507 C72,25.7439431 69.8563962,23.5892092 67.2800213,23.5892092 L13.0839532,23.5892092 L13.0839532,20 L9,20 L9,22.3133032 L10.7853348,22.3133032 L10.7853348,60 L13.0839532,60 L13.0839532,54.6161862 L25.0680128,54.6161862 L25.0680128,60 L54.1466525,60 L54.1466525,54.6161862 Z M27.3666312,57.6866968 L27.3666312,54.6161862 L30.424017,54.6161862 L30.424017,57.6866968 L27.3666312,57.6866968 Z M32.7226355,57.6866968 L32.7226355,54.6161862 L35.7800213,54.6161862 L35.7800213,57.6866968 L32.7226355,57.6866968 Z M38.0786397,57.6866968 L38.0786397,54.6161862 L41.1360255,54.6161862 L41.1360255,57.6866968 L38.0786397,57.6866968 Z M43.434644,57.6866968 L43.434644,54.6161862 L46.4920298,54.6161862 L46.4920298,57.6866968 L43.434644,57.6866968 Z M48.7906482,57.6866968 L48.7906482,54.6161862 L51.848034,54.6161862 L51.848034,57.6866968 L48.7906482,57.6866968 Z M69.7013815,49.8703253 C69.7013815,51.2273286 68.6313828,52.3028829 67.2800213,52.3028829 L13.0839532,52.3028829 L13.0839532,25.9025124 L67.2800213,25.9025124 C68.6313828,25.9025124 69.7013815,26.9780668 69.7013815,28.33507 L69.7013815,49.8703253 Z" id="Shape" fill="#333333"></path>
            <path d="M61,30 C58.8226853,30 57,31.8022353 57,34 C57,36.2246871 58.7759415,38 61,38 C63.2240585,38 65,36.2246871 65,34 C65,31.8022353 63.1773147,30 61,30 Z M61,35.5439642 C60.1183393,35.5439642 59.3801271,34.8060133 59.3801271,33.9260805 C59.3801271,33.0461476 60.1183393,32.3081967 61,32.3081967 C61.8816607,32.3081967 62.6198729,33.0461476 62.6198729,33.9260805 C62.6198729,34.8060133 61.8816607,35.5439642 61,35.5439642 Z" id="Shape" fill="#333333"></path>
            <path d="M61,41 C58.8226853,41 57,42.8022353 57,45 C57,47.2246871 58.7759415,49 61,49 C63.2240585,49 65,47.2246871 65,45 C65,42.8022353 63.1773147,41 61,41 Z M61,46.5439642 C60.1183393,46.5439642 59.3801271,45.8060133 59.3801271,44.9260805 C59.3801271,44.0461476 60.1183393,43.3081967 61,43.3081967 C61.8816607,43.3081967 62.6198729,44.0461476 62.6198729,44.9260805 C62.6198729,45.8060133 61.8816607,46.5439642 61,46.5439642 Z" id="Shape" fill="#333333"></path>
            <path d="M40.873513,38.8536284 C40.8883493,38.5379748 40.950919,38.2348051 41.0541682,37.9511682 C39.7996695,37.3671336 38.2580424,37.6942717 37.3538541,38.8286435 C37.2571198,38.9500038 37.1350915,39.0393447 37.0012875,39.0951385 C37.0177122,40.3160146 37.349793,41.4607106 37.9196649,42.4513986 C38.2217021,40.8576464 39.3187068,39.4801025 40.873513,38.8536284 Z M41.3213522,40.6019616 C40.0774322,41.2202805 39.3704399,42.6256383 39.6941733,44.0319636 C39.7292463,44.1843237 39.7228983,44.3365404 39.6825135,44.4768309 C40.5956063,45.1867146 41.690913,45.6734891 42.8864932,45.8552529 C41.8261775,44.6232493 41.4322042,42.9076314 41.9133317,41.3042741 C41.6827087,41.1015983 41.4827613,40.8648751 41.3213522,40.6019616 Z M43.559415,42.0439282 C43.2661115,43.3975438 43.924925,44.8262681 45.2308323,45.457052 C45.3705756,45.5245513 45.4846823,45.6237851 45.5686733,45.7419129 C46.7353346,45.4610786 47.7871223,44.8855676 48.6408008,44.0985758 C47.0161364,44.1613099 45.4260348,43.3992381 44.4682731,42.0215265 C44.2961462,42.051479 44.1190952,42.0670932 43.9383968,42.0670932 C43.8100778,42.0670932 43.6835982,42.0592193 43.559415,42.0439282 Z M46.0765679,41.1997592 C46.9566483,42.2715967 48.4832236,42.6452747 49.7849408,42.0165148 C49.9280088,41.9474095 50.0804423,41.9200234 50.2284551,41.9295595 C50.6440391,41.0396293 50.8761457,40.0469075 50.8761457,39 C50.8761457,38.8348507 50.8703697,38.6710498 50.8590087,38.5087881 C49.8939324,39.8164357 48.3041524,40.5836746 46.6319318,40.4701253 C46.4838237,40.7406947 46.2961031,40.9865035 46.0765679,41.1997592 Z M46.9923466,38.7012814 C48.3778692,38.6850163 49.6275604,37.7230281 49.9453142,36.3156131 C49.9802901,36.1606957 50.053722,36.0244283 50.1532813,35.9145899 C49.6247344,34.8530105 48.831948,33.9459914 47.8609719,33.2795415 C48.2812292,34.8498531 47.8926103,36.5672359 46.766004,37.807124 C46.8840859,38.0864608 46.9619516,38.3869297 46.9923466,38.7012814 Z M45.6046576,36.424136 C46.4513085,35.3279682 46.4773142,33.7581885 45.5794294,32.6239023 C45.4829691,32.5020453 45.4235368,32.3627627 45.3995491,32.2196201 C44.9284667,32.1186856 44.4396394,32.0655548 43.9383968,32.0655548 C43.2291162,32.0655548 42.5446953,32.1719413 41.9002352,32.3696204 C43.3946711,33.0150684 44.499764,34.3901101 44.7663638,36.0458738 C45.0669566,36.1298804 45.3489198,36.2584979 45.6046576,36.424136 Z M42.9610273,36.0917923 C42.6331251,34.7492803 41.4220558,33.7532471 39.9775363,33.7532471 C39.818072,33.7532471 39.6683956,33.7113065 39.5389476,33.6378527 C38.6336631,34.3807685 37.9198621,35.3482349 37.4827535,36.4550835 C38.9214123,35.6915348 40.6859007,35.6865221 42.1437908,36.5119497 C42.3910801,36.3334131 42.6660459,36.1908087 42.9610273,36.0917923 Z M36.2211169,39.0494134 C36.1805208,39.0264815 36.1412037,39.0000534 36.1035684,38.9700836 C35.7190941,38.6639175 35.6557168,38.1040654 35.9620619,37.7197326 C36.107901,37.5367665 36.2642638,37.3671123 36.4295927,37.2109469 C36.8309208,35.5218476 37.7879506,34.0478538 39.0969767,32.9925738 C39.0908599,32.9504634 39.0876933,32.9073967 39.0876933,32.8635897 C39.0876933,32.3721922 39.4861429,31.9739324 39.9775363,31.9739324 C40.2053783,31.9739324 40.4295475,31.9896274 40.6490209,32.0199949 C41.6468586,31.549382 42.761883,31.2862401 43.9383968,31.2862401 C44.5164592,31.2862401 45.0796775,31.3497652 45.6214452,31.4702121 C45.6529301,31.4359912 45.6875138,31.4037992 45.7251498,31.3740354 C46.1105115,31.069279 46.6700163,31.1344663 46.9749518,31.5196875 C47.1188126,31.7014249 47.2476266,31.890259 47.3615645,32.0846843 C48.8900459,32.8420318 50.1316008,34.0907447 50.8794975,35.6241897 C50.9225102,35.6274501 50.9658172,35.633882 51.0091487,35.6436557 C51.4885389,35.7517852 51.7895519,36.2280189 51.6813236,36.7073906 C51.6299587,36.9348993 51.563255,37.1550287 51.4825483,37.3669402 C51.5960622,37.8933255 51.6558317,38.4396861 51.6558317,39 C51.6558317,40.1874643 51.3873852,41.3122594 50.9078413,42.3170637 C50.9320138,42.3526803 50.9538966,42.3904935 50.9731904,42.4303992 C51.1871165,42.8728673 51.0016783,43.4048902 50.5591327,43.6186501 C50.349529,43.7198936 50.1362431,43.8046917 49.9207317,43.8735543 C48.860284,45.1724607 47.3848208,46.1195334 45.6965067,46.5127044 C45.6830648,46.5575103 45.6659042,46.6018387 45.6448899,46.6453029 C45.4310273,47.0876397 44.8990547,47.2728838 44.4566403,47.0591873 C44.244566,46.9567504 44.0433005,46.840954 43.8533707,46.7133014 C42.0814639,46.6941831 40.4528058,46.0782048 39.159127,45.0570055 C39.1167013,45.0740072 39.0724179,45.0879519 39.0264791,45.0985169 C38.5476263,45.208643 38.0700546,44.9098735 37.959828,44.4310401 C37.9069801,44.2014642 37.8714692,43.9719353 37.8524368,43.7438154 C36.8395545,42.447445 36.2322237,40.8191171 36.2211169,39.0494134 Z M43.9383968,40.2877786 C44.6501409,40.2877786 45.2270271,39.7111671 45.2270271,39 C45.2270271,38.2888329 44.6501409,37.7122214 43.9383968,37.7122214 C43.2266526,37.7122214 42.6497665,38.2888329 42.6497665,39 C42.6497665,39.7111671 43.2266526,40.2877786 43.9383968,40.2877786 Z" id="Combined-Shape" fill="#FC595A"></path>
            <path d="M36.323783,45.4567379 L36.513553,45.6733992 C38.3546474,47.7753849 41.0497275,49 43.944926,49 C49.5090929,49 54,44.5342969 54,39 C54,33.4657031 49.5090929,29 43.944926,29 C41.0497275,29 38.3546474,30.2246151 36.513553,32.3266008 L36.323783,32.5432621 L36.034489,32.5432621 L17,32.5432621 L17,45.4567379 L36.323783,45.4567379 Z M19.2938486,43.1730483 L19.2938486,34.8269517 L22.3448899,34.8269517 L22.3448899,43.1730483 L19.2938486,43.1730483 Z M24.6387384,43.1730483 L24.6387384,34.8269517 L27.6897797,34.8269517 L27.6897797,43.1730483 L24.6387384,43.1730483 Z M29.9836283,43.1730483 L29.9836283,34.8269517 L34.8117222,34.8269517 L34.4909839,35.6774535 C34.0836917,36.7574708 33.8898519,37.817606 33.8898519,39 C33.8898519,40.182394 34.0836917,41.2425292 34.4909839,42.3225465 L34.8117222,43.1730483 L29.9836283,43.1730483 Z M43.944926,46.7163104 C39.6744956,46.7163104 36.1837005,43.2451065 36.1837005,39 C36.1837005,34.7548935 39.6744956,31.2836896 43.944926,31.2836896 C48.2153564,31.2836896 51.7061514,34.7548935 51.7061514,39 C51.7061514,43.2451065 48.2153564,46.7163104 43.944926,46.7163104 Z" id="Shape" fill="#333333"></path>
        </g>
    </g>
</svg>