<?xml version="1.0" encoding="UTF-8"?>
<svg width="80px" height="80px" viewBox="0 0 80 80" version="1.1" xmlns="http://www.w3.org/2000/svg" xmlns:xlink="http://www.w3.org/1999/xlink">
    <!-- Generator: Sketch 47 (45396) - http://www.bohemiancoding.com/sketch -->
    <title>vr-headset</title>
    <desc>Created with Sketch.</desc>
    <defs></defs>
    <g id="Page-1" stroke="none" stroke-width="1" fill="none" fill-rule="evenodd">
        <g id="vr-headset">
            <path d="M76.1532103,38.8874265 L78.3906367,36.65 L80.0099112,38.2692745 L74.9399556,43.3392302 L74.1303184,42.5295929 L69.87,38.2692745 L71.4892745,36.65 L73.8662933,39.0270187 C73.3513191,20.7710958 58.3904651,6.13 40.01,6.13 C26.6740539,6.13 15.138269,13.8374063 9.61408483,25.0407792 L7.55897276,24.0293645 C13.4566551,12.0685152 25.7723912,3.84 40.01,3.84 C59.6084185,3.84 75.5652344,19.4315546 76.1532103,38.8874265 Z M6.15368698,40.9722804 C6.66829805,59.2285295 21.6292997,73.87 40.01,73.87 C52.9605285,73.87 64.213444,66.6016543 69.9119957,55.9217135 L71.9337132,56.9982038 C65.849874,68.4002309 53.8361326,76.16 40.01,76.16 C20.404777,76.16 4.44368576,60.5576169 3.86618287,41.0923071 L1.61927453,43.3392302 L1.77635684e-15,41.7199556 L5.06995562,36.65 L5.87959289,37.4596373 L10.1399112,41.7199556 L8.52063671,43.3392302 L6.15368698,40.9722804 Z" id="arrows" fill="#FC595A" fill-rule="nonzero"></path>
            <path d="M61.7021277,56.5 C66.3094436,56.5 70,52.7474642 70,48.0651731 L70,31.9348269 C70,27.2557301 66.2454169,23.5 61.5677492,23.5 L18.4322508,23.5 C13.7779053,23.5 10,27.2994868 10,31.9348269 L10,48.0651731 C10,52.7442699 13.7545831,56.5 18.4322508,56.5 L28.8465845,56.5 C31.2238072,56.5 33.3786268,55.3064709 34.6022119,53.3150814 L37.8955526,44.6422816 C38.2774629,43.6872141 39.1083887,43.1924644 40,43.1924644 C40.8916113,43.1924644 41.7225371,43.6872141 42.1054571,44.6448684 L45.3133343,53.0799129 L45.4511648,53.2869422 C46.6885625,55.3064709 48.843382,56.5 51.2206047,56.5 L61.7021277,56.5 Z" id="Path" fill="#333333"></path>
            <path d="M47.4526231,52.1909629 L44.3461211,43.8271426 C43.6316644,42.0729403 42.0115713,40.9745418 40.1343785,40.9745418 C38.2335381,40.9745418 36.5645695,42.0936427 35.9241462,43.8232998 L32.7453549,52.1961364 C31.8277712,53.467025 30.4259946,54.2148676 28.9137738,54.2148676 L18.4322508,54.2148676 C14.9907254,54.2148676 12.2172452,51.4618811 12.2172452,48.0651731 L12.2172452,31.9348269 C12.2172452,28.5381189 14.9907254,25.7851324 18.4322508,25.7851324 L61.6349384,25.7851324 C65.0764638,25.7851324 67.849944,28.5381189 67.849944,31.9348269 L67.849944,48.0651731 C67.849944,51.4404565 65.0978807,54.2148676 61.7693169,54.2148676 L51.287794,54.2148676 C49.707366,54.2148676 48.3016822,53.4649406 47.4526231,52.1909629 Z" id="Path" fill="#FFFFFF"></path>
            <path d="M55.0503919,45.4775967 C58.4420005,45.4775967 61.1326011,42.8061106 61.1982083,39.395112 C61.1982083,36.0501115 58.4412886,33.3126273 55.0503919,33.3126273 C51.6594952,33.3126273 48.9025756,36.0501115 48.9025756,39.395112 C48.9025756,42.7401125 51.6594952,45.4775967 55.0503919,45.4775967 Z M55.0503919,35.5305499 C57.1588384,35.5305499 58.9137738,37.2860214 58.9137738,39.395112 C58.9137738,41.5714124 57.2260277,43.2596741 55.0503919,43.2596741 C52.9419455,43.2596741 51.1870101,41.5042026 51.1870101,39.395112 C51.1870101,37.2630954 52.8973763,35.5305499 55.0503919,35.5305499 Z M25.4871221,45.4775967 C28.9453828,45.4775967 31.6349384,42.8071482 31.6349384,39.395112 C31.6349384,36.0501115 28.8780188,33.3126273 25.4871221,33.3126273 C22.0962254,33.3126273 19.3393057,36.0501115 19.3393057,39.395112 C19.3393057,42.7401125 22.0962254,45.4775967 25.4871221,45.4775967 Z M25.4871221,35.5305499 C27.663706,35.5305499 29.4208066,37.2881873 29.3505039,39.395112 C29.3505039,41.5714124 27.6627578,43.2596741 25.4871221,43.2596741 C23.3786756,43.2596741 21.6237402,41.5042026 21.6237402,39.395112 C21.6237402,37.2630954 23.3341064,35.5305499 25.4871221,35.5305499 Z" id="Shape" fill="#333333" fill-rule="nonzero"></path>
        </g>
    </g>
</svg>